{"glyphs":{"0":{"ha":878,"x_min":42,"x_max":836,"o":"m 728 114 q 674 50 728 114 q 438 -14 619 -14 q 149 113 256 -14 q 42 465 42 240 q 149 819 42 692 q 440 947 257 947 q 728 818 621 947 q 836 465 836 689 q 728 114 836 242 m 440 194 q 586 265 536 194 q 635 465 636 335 q 583 668 632 597 q 439 739 533 739 q 293 668 343 739 q 243 465 243 597 q 293 264 243 333 q 440 194 343 194 z "},"1":{"ha":653,"x_min":35,"x_max":632,"o":"m 576 0 l 90 0 q 39 28 50 0 q 35 49 35 36 l 35 160 q 90 208 35 208 l 208 208 q 231 215 225 208 q 236 239 236 221 l 236 665 l 110 607 q 88 600 96 600 q 57 640 57 596 l 57 790 q 75 836 57 824 q 96 849 83 842 l 256 922 q 260 924 257 924 q 292 931 271 931 l 375 931 q 428 896 419 931 q 431 875 431 882 l 431 239 q 436 215 431 221 q 458 208 442 208 l 576 208 q 601 206 588 208 q 632 160 632 196 l 632 49 q 628 28 632 36 q 576 0 617 0 z "},"2":{"ha":740,"x_min":28,"x_max":693,"o":"m 638 0 l 83 0 q 28 56 28 0 l 28 156 q 74 269 29 215 q 181 363 118 322 q 306 444 244 404 q 412 530 368 483 q 456 625 456 576 q 338 739 456 739 q 176 701 258 739 q 101 714 119 675 l 60 804 q 65 863 40 846 q 200 924 122 901 q 350 947 278 947 q 577 867 497 947 q 657 654 657 788 q 612 490 657 563 q 513 378 567 417 q 383 291 458 340 q 275 208 308 242 l 638 208 q 693 153 693 208 l 693 56 q 638 0 693 0 z "},"3":{"ha":701,"x_min":35,"x_max":661,"o":"m 340 -17 q 181 7 263 -17 q 40 75 99 31 q 35 133 17 94 l 74 219 q 125 244 93 264 q 328 192 219 192 q 423 217 386 192 q 460 283 460 242 q 340 371 460 371 l 206 371 q 150 426 150 371 l 150 510 q 206 565 150 565 l 261 565 q 439 664 439 565 q 314 739 439 739 q 133 685 233 739 q 82 710 101 665 l 43 796 q 49 854 25 835 q 336 947 171 947 q 559 882 478 947 q 640 710 640 817 q 499 489 640 567 q 619 399 578 461 q 661 257 661 336 q 576 59 661 135 q 340 -17 492 -17 z "},"4":{"ha":790,"x_min":22,"x_max":768,"o":"m 625 56 q 569 0 625 0 l 486 0 q 431 56 431 0 l 431 179 l 76 179 q 22 233 22 179 l 22 306 q 50 385 22 339 l 368 908 q 417 931 382 931 l 569 931 q 625 875 625 931 l 625 388 l 713 388 q 768 332 768 388 l 768 233 q 714 179 768 179 l 625 179 l 625 56 m 256 388 l 431 388 l 431 678 l 256 388 z "},"5":{"ha":710,"x_min":35,"x_max":678,"o":"m 328 -17 q 40 72 157 -17 q 35 131 17 92 l 79 228 q 131 253 100 275 q 317 194 206 194 q 432 219 388 194 q 476 293 476 243 q 263 400 476 400 l 149 400 q 93 456 93 400 l 93 875 q 149 931 93 931 l 558 931 q 614 875 614 931 l 614 792 q 558 736 614 736 l 274 736 l 274 594 l 361 594 q 590 515 501 594 q 678 294 678 436 q 581 65 678 147 q 328 -17 485 -17 z "},"6":{"ha":767,"x_min":33,"x_max":738,"o":"m 388 -17 q 128 90 222 -17 q 33 351 33 197 q 128 645 33 501 q 435 942 222 789 q 476 962 461 961 q 513 942 492 963 l 564 882 q 564 815 599 842 q 353 626 431 717 q 413 631 383 631 q 646 544 554 631 q 738 325 738 457 q 639 80 738 176 q 388 -17 540 -17 m 394 192 q 496 227 456 192 q 536 324 536 263 q 494 415 536 379 q 390 450 453 450 q 242 417 308 450 q 235 351 235 379 q 280 233 235 275 q 394 192 325 192 z "},"7":{"ha":728,"x_min":25,"x_max":706,"o":"m 222 0 l 118 0 q 68 26 82 0 q 75 88 54 51 l 450 722 l 81 722 q 25 778 25 722 l 25 875 q 81 931 25 931 l 650 931 q 706 875 706 931 l 706 778 q 697 743 706 756 q 690 729 694 736 l 289 56 q 251 6 263 11 q 222 0 240 0 z "},"8":{"ha":800,"x_min":38,"x_max":763,"o":"m 664 61 q 615 22 664 61 q 400 -17 565 -17 q 136 61 235 -17 q 38 257 38 139 q 176 474 38 400 q 65 690 65 544 q 156 885 65 808 q 400 961 247 961 q 644 885 553 961 q 735 690 735 808 q 624 474 735 546 q 763 257 763 396 q 664 61 763 139 m 501 734 q 482 747 501 734 q 400 760 463 760 q 299 734 338 760 q 260 656 260 708 q 400 553 260 553 q 540 656 540 553 q 501 734 540 708 m 278 210 q 302 198 278 210 q 400 185 325 185 q 522 210 475 185 q 568 289 568 236 q 400 386 568 386 q 232 289 232 386 q 278 210 232 236 z "},"9":{"ha":767,"x_min":29,"x_max":733,"o":"m 379 947 q 639 840 544 947 q 733 579 733 733 q 639 285 733 429 q 332 -11 544 142 q 290 -31 306 -31 q 254 -11 275 -32 l 203 49 q 203 115 168 89 q 414 304 336 214 q 354 300 383 300 q 121 387 213 300 q 29 606 29 474 q 128 851 29 754 q 379 947 226 947 m 372 739 q 271 703 311 739 q 231 607 231 668 q 272 516 231 551 q 376 481 314 481 q 525 514 458 481 q 532 579 532 551 q 487 697 532 656 q 372 739 442 739 z "},"\u0000":{"ha":0,"x_min":0,"x_max":0,"o":""},"\r":{"ha":0,"x_min":0,"x_max":0,"o":""}," ":{"ha":278,"x_min":0,"x_max":0,"o":""},"!":{"ha":333,"x_min":36,"x_max":297,"o":"m 63 875 q 118 931 63 931 l 215 931 q 271 875 271 931 l 271 383 q 215 328 271 328 l 118 328 q 63 383 63 328 l 63 875 m 258 22 q 239 3 258 22 q 167 -17 219 -17 q 75 22 114 -17 q 36 115 36 61 q 75 207 36 168 q 167 246 114 246 q 258 207 219 246 q 297 115 297 168 q 258 22 297 61 z "},"\"":{"ha":518,"x_min":25,"x_max":521,"o":"m 296 629 l 324 931 q 361 961 326 965 l 494 942 q 521 904 528 938 l 453 606 q 410 578 446 572 l 328 589 q 303 602 313 590 q 296 629 294 614 m 25 615 l 53 917 q 90 947 56 951 l 224 928 q 250 890 257 924 l 182 592 q 139 564 175 558 l 57 575 q 33 588 42 576 q 25 615 24 600 z "},"#":{"ha":1110,"x_min":74,"x_max":1036,"o":"m 674 -72 q 606 -112 658 -125 l 531 -93 q 490 -24 476 -78 l 547 186 l 415 186 l 346 -72 q 276 -112 331 -129 l 203 -90 q 164 -24 150 -74 l 221 186 l 129 186 q 74 242 74 186 l 74 325 q 129 381 74 381 l 272 381 l 318 549 l 208 549 q 153 604 153 549 l 153 688 q 208 743 153 743 l 371 743 l 440 1001 q 510 1042 456 1057 l 582 1024 q 622 954 638 1010 l 565 743 l 699 743 l 768 1001 q 836 1042 782 1056 l 910 1021 q 950 954 964 1006 l 893 743 l 981 743 q 1036 688 1036 743 l 1036 604 q 981 549 1036 549 l 840 549 l 796 381 l 901 381 q 957 325 957 381 l 957 242 q 901 186 957 186 l 743 186 l 674 -72 m 600 381 l 646 549 l 513 549 l 468 381 l 600 381 z "},"$":{"ha":703,"x_min":26,"x_max":675,"o":"m 406 -139 l 322 -139 q 267 -83 267 -139 l 267 -8 q 56 76 140 15 q 27 106 32 94 q 33 144 22 118 l 74 228 q 97 255 85 250 q 135 247 110 260 q 379 171 274 171 q 474 243 474 171 q 434 313 474 278 q 285 397 394 349 q 61 681 61 496 q 115 847 61 779 q 267 938 168 915 l 267 1014 q 322 1069 267 1069 l 406 1069 q 461 1014 461 1069 l 461 935 q 596 881 544 914 q 624 851 619 865 q 618 813 628 836 l 582 733 q 521 714 564 696 q 354 760 418 760 q 287 742 311 760 q 263 694 263 724 q 302 628 263 663 q 449 547 342 594 q 675 264 675 446 q 619 87 675 157 q 461 -7 564 17 l 461 -83 q 406 -139 461 -139 z "},"%":{"ha":1389,"x_min":56,"x_max":1333,"o":"m 475 -87 q 399 -108 447 -133 l 338 -76 q 317 0 288 -50 l 883 965 q 960 986 911 1011 l 1021 954 q 1042 878 1071 928 l 475 -87 m 526 480 q 490 441 526 480 q 328 403 453 403 q 129 480 203 403 q 56 676 56 557 q 129 872 56 796 q 328 949 203 949 q 526 872 453 949 q 600 676 600 796 q 526 480 600 557 m 328 561 q 410 589 379 561 q 442 676 442 617 q 410 763 442 735 q 328 790 378 790 q 247 763 278 790 q 215 676 215 735 q 247 590 215 618 q 328 561 278 561 m 1260 60 q 1223 22 1260 60 q 1061 -17 1186 -17 q 863 60 936 -17 q 789 257 789 138 q 863 453 789 376 q 1061 529 936 529 q 1260 453 1186 529 q 1333 257 1333 376 q 1260 60 1333 138 m 1061 142 q 1144 169 1113 142 q 1175 257 1175 197 q 1143 343 1175 315 q 1061 371 1111 371 q 980 343 1011 371 q 949 257 949 315 q 980 170 949 199 q 1061 142 1011 142 z "},"&":{"ha":861,"x_min":28,"x_max":854,"o":"m 743 0 q 688 -56 743 -56 l 604 -56 q 549 0 549 -56 l 549 85 q 442 10 506 36 q 317 -17 379 -17 q 103 55 178 -17 q 28 238 28 126 q 192 465 28 390 q 65 682 65 535 q 154 872 65 797 q 386 947 243 947 q 629 872 532 947 q 635 814 656 853 l 596 742 q 540 726 579 708 q 386 760 469 760 q 290 731 325 760 q 256 657 256 703 q 394 558 256 558 l 549 558 l 549 600 q 604 656 549 656 l 688 656 q 743 600 743 656 l 743 558 l 799 558 q 854 503 854 558 l 854 426 q 799 371 854 371 l 743 371 l 743 0 m 356 185 q 496 235 443 185 q 549 369 549 285 l 549 371 l 339 371 q 251 342 283 371 q 218 269 218 313 q 253 207 218 229 q 356 185 289 185 z "},"'":{"ha":247,"x_min":25,"x_max":250,"o":"m 25 615 l 53 917 q 90 947 56 951 l 224 928 q 250 890 257 924 l 182 592 q 139 564 175 558 l 57 575 q 33 588 42 576 q 25 615 24 600 z "},"(":{"ha":358,"x_min":47,"x_max":376,"o":"m 267 681 q 251 621 267 681 q 235 433 235 561 q 267 185 235 306 q 376 -83 300 65 q 374 -124 389 -108 q 328 -139 358 -139 l 244 -139 q 168 -83 193 -139 q 47 433 47 181 q 168 950 47 686 q 244 1006 193 1006 l 328 1006 q 374 990 358 1006 q 376 950 389 975 q 267 681 300 801 z "},")":{"ha":358,"x_min":-18,"x_max":311,"o":"m 91 185 q 107 245 91 185 q 124 433 124 306 q 91 681 124 561 q -18 950 58 801 q -15 990 -31 975 q 31 1006 0 1006 l 114 1006 q 190 950 165 1006 q 311 433 311 686 q 190 -83 311 181 q 114 -139 165 -139 l 31 -139 q -15 -124 0 -139 q -18 -83 -31 -108 q 91 185 58 65 z "},"*":{"ha":647,"x_min":44,"x_max":601,"o":"m 399 411 l 342 492 q 322 504 333 504 q 303 492 311 504 l 247 413 q 200 404 229 385 l 121 460 q 113 507 93 481 l 172 586 q 160 624 192 613 l 68 651 q 44 694 35 661 l 74 788 q 90 809 78 803 q 117 810 103 815 l 208 776 q 240 800 240 765 l 239 896 q 274 931 239 931 l 371 931 q 404 896 404 931 l 403 800 q 436 776 403 765 l 525 808 q 569 786 557 819 l 601 696 q 601 669 607 682 q 579 653 594 657 l 485 624 q 472 586 453 613 l 531 510 q 524 461 551 482 l 446 403 q 399 411 419 383 z "},"+":{"ha":694,"x_min":60,"x_max":635,"o":"m 438 222 q 382 167 438 167 l 313 167 q 257 222 257 167 l 257 378 l 115 378 q 60 433 60 378 l 60 503 q 115 558 60 558 l 257 558 l 257 715 q 313 771 257 771 l 382 771 q 438 715 438 771 l 438 558 l 579 558 q 635 503 635 558 l 635 433 q 579 378 635 378 l 438 378 l 438 222 z "},",":{"ha":294,"x_min":19,"x_max":267,"o":"m 267 51 q 210 -131 267 -67 q 54 -196 154 -196 q 19 -162 19 -196 l 19 -131 q 54 -90 19 -94 q 117 -69 99 -85 q 139 -25 135 -54 l 140 -17 q 58 15 88 -17 q 28 96 28 47 q 62 177 28 143 q 143 211 96 211 q 232 170 197 211 q 267 51 267 129 z "},"-":{"ha":458,"x_min":21,"x_max":438,"o":"m 382 467 q 438 411 438 467 l 438 342 q 382 286 438 286 l 76 286 q 21 342 21 286 l 21 411 q 76 467 21 467 l 382 467 z "},".":{"ha":293,"x_min":28,"x_max":265,"o":"m 230 19 q 212 1 230 19 q 146 -17 194 -17 q 63 19 97 -17 q 28 103 28 54 q 63 185 28 150 q 146 221 97 221 q 230 186 194 221 q 265 103 265 151 q 230 19 265 54 z "},"/":{"ha":694,"x_min":-18,"x_max":713,"o":"m 157 -108 q 81 -129 129 -158 l 3 -83 q -18 -7 -46 -54 l 538 986 q 614 1007 567 1036 l 692 961 q 713 885 739 932 l 157 -108 z "},":":{"ha":293,"x_min":28,"x_max":265,"o":"m 230 440 q 212 422 230 440 q 146 404 194 404 q 63 440 97 404 q 28 524 28 475 q 63 607 28 572 q 146 642 97 642 q 230 607 194 642 q 265 524 265 572 q 230 440 265 475 m 230 19 q 212 1 230 19 q 146 -17 194 -17 q 63 19 97 -17 q 28 103 28 54 q 63 185 28 150 q 146 221 97 221 q 230 186 194 221 q 265 103 265 151 q 230 19 265 54 z "},";":{"ha":294,"x_min":19,"x_max":267,"o":"m 230 509 q 212 491 230 509 q 146 474 194 474 q 63 509 97 474 q 28 593 28 544 q 63 676 28 642 q 146 711 97 711 q 230 676 194 711 q 265 593 265 642 q 230 509 265 544 m 267 51 q 210 -131 267 -67 q 54 -196 154 -196 q 19 -162 19 -196 l 19 -131 q 54 -90 19 -94 q 117 -69 99 -85 q 139 -25 135 -54 l 140 -17 q 58 15 88 -17 q 28 96 28 47 q 62 177 28 143 q 143 211 96 211 q 232 170 197 211 q 267 51 267 129 z "},"<":{"ha":694,"x_min":88,"x_max":621,"o":"m 621 194 q 606 153 621 165 q 565 153 590 140 l 143 361 q 94 399 106 381 l 94 400 l 94 401 q 93 404 93 403 q 92 407 92 404 q 90 410 90 408 q 89 414 90 411 l 89 418 q 88 422 89 418 l 88 514 q 97 539 88 528 q 113 554 106 550 q 143 569 121 558 l 565 778 q 606 778 590 790 q 621 736 621 765 l 621 653 q 588 596 621 615 q 565 583 582 592 l 308 465 l 565 347 q 595 333 586 338 q 613 317 604 328 q 621 292 621 306 l 621 194 z "},"=":{"ha":694,"x_min":74,"x_max":621,"o":"m 565 694 q 621 639 621 694 l 621 569 q 565 514 621 514 l 129 514 q 74 569 74 514 l 74 639 q 129 694 74 694 l 565 694 m 565 417 q 621 361 621 417 l 621 292 q 565 236 621 236 l 129 236 q 74 292 74 236 l 74 361 q 129 417 74 417 l 565 417 z "},">":{"ha":694,"x_min":88,"x_max":621,"o":"m 88 194 l 88 292 q 96 317 88 306 q 113 333 104 328 q 143 347 122 338 l 400 465 l 143 583 q 121 596 126 592 q 88 653 88 615 l 88 736 q 103 778 88 765 q 143 778 118 790 l 565 569 q 595 554 588 558 q 612 539 603 550 q 621 514 621 528 l 621 422 q 620 422 621 424 q 619 418 619 419 l 619 414 l 619 413 q 618 410 618 411 q 617 407 618 408 q 615 404 617 404 q 614 401 615 403 l 614 400 l 614 399 q 565 361 603 381 l 143 153 q 103 153 118 140 q 88 194 88 165 z "},"?":{"ha":715,"x_min":51,"x_max":631,"o":"m 436 674 q 315 775 436 775 q 142 717 246 775 q 90 742 111 699 l 51 829 q 57 888 33 868 q 177 949 107 926 q 317 971 247 971 q 545 890 460 971 q 631 674 631 808 q 606 556 631 608 q 526 459 581 503 q 438 394 472 415 q 338 338 404 372 q 319 328 325 331 q 280 323 297 318 q 253 343 263 328 l 203 421 q 214 478 178 460 q 298 519 267 503 q 365 562 329 536 q 419 615 401 588 q 436 674 436 642 m 376 22 q 357 3 376 22 q 285 -17 338 -17 q 193 22 232 -17 q 154 115 154 61 q 193 207 154 168 q 285 246 232 246 q 376 207 338 246 q 415 115 415 168 q 376 22 415 61 z "},"@":{"ha":1410,"x_min":63,"x_max":1347,"o":"m 768 -181 q 247 -12 431 -181 q 63 463 63 157 q 237 928 63 753 q 700 1104 411 1104 q 1169 928 992 1104 q 1347 463 1347 751 q 1277 201 1347 289 q 1083 113 1207 113 q 856 232 922 113 q 769 144 831 175 q 642 113 708 113 q 478 174 542 113 q 414 328 414 235 q 474 481 414 421 q 656 540 533 540 q 821 504 735 540 l 821 522 q 783 608 821 578 q 676 638 744 638 q 540 585 628 638 q 489 610 514 569 l 449 676 q 454 735 425 714 q 699 818 558 818 q 921 740 840 818 q 1001 514 1001 663 l 1001 397 q 1025 310 1001 340 q 1090 279 1049 279 q 1192 463 1192 279 q 1062 807 1192 674 q 699 940 932 940 q 344 807 469 940 q 218 463 218 674 q 352 109 218 235 q 768 -17 486 -17 q 810 -27 797 -17 q 824 -65 824 -37 l 824 -132 q 810 -170 824 -160 q 768 -181 797 -181 m 676 272 q 776 297 731 272 q 821 361 821 321 l 821 367 q 676 394 749 394 q 594 333 594 394 q 618 289 594 306 q 676 272 642 272 z "},"A":{"ha":939,"x_min":18,"x_max":922,"o":"m 233 15 q 202 -37 221 -26 q 146 -40 183 -47 l 64 -24 q 19 2 26 -15 q 25 57 11 19 l 293 875 q 319 920 306 910 q 360 931 332 931 l 479 931 q 496 930 490 931 q 506 924 501 929 q 513 916 511 919 q 521 899 515 913 q 532 875 526 885 l 913 82 q 922 26 931 44 q 874 1 913 8 l 799 -12 q 742 -10 758 -19 q 704 43 725 -1 l 643 176 l 283 176 l 233 15 m 564 350 l 428 647 l 336 350 l 564 350 z "},"B":{"ha":811,"x_min":83,"x_max":783,"o":"m 397 -28 l 138 -28 q 83 28 83 -28 l 83 875 q 139 931 83 926 l 382 944 q 626 887 538 954 q 714 704 714 819 q 676 576 714 633 q 581 492 638 519 q 732 406 681 467 q 783 260 783 346 q 397 -28 783 -28 m 340 750 l 285 746 l 285 575 l 361 575 q 513 667 513 575 q 473 736 513 715 q 340 750 433 757 m 285 167 l 431 167 q 547 192 511 167 q 582 272 582 218 q 403 381 582 381 l 285 381 l 285 167 z "},"C":{"ha":840,"x_min":39,"x_max":804,"o":"m 500 192 q 703 242 593 192 q 763 221 747 261 l 804 118 q 796 67 819 82 q 497 -17 657 -17 q 164 115 289 -17 q 39 465 39 246 q 165 815 39 683 q 500 947 290 947 q 796 864 660 947 q 804 813 819 849 l 763 710 q 703 689 747 669 q 500 739 593 739 q 308 663 376 739 q 240 465 240 586 q 308 267 240 343 q 500 192 375 192 z "},"D":{"ha":903,"x_min":83,"x_max":867,"o":"m 139 0 q 97 12 111 -3 q 83 56 83 26 l 83 875 q 139 931 83 931 l 358 931 q 730 824 593 931 q 867 486 867 717 q 826 289 867 375 q 714 149 786 203 q 552 63 642 94 q 356 22 463 32 l 233 10 l 229 10 l 139 0 m 364 722 l 285 722 l 285 224 l 361 231 q 578 309 492 244 q 665 486 665 374 q 581 667 665 613 q 364 722 497 722 z "},"E":{"ha":731,"x_min":69,"x_max":688,"o":"m 125 0 q 69 56 68 0 l 97 875 q 153 931 99 931 l 632 931 q 688 875 688 931 l 688 790 q 633 736 688 736 l 288 736 l 281 558 l 576 578 q 632 522 632 582 l 632 438 q 578 383 632 388 l 275 363 l 268 194 l 632 194 q 688 139 688 194 l 688 54 q 633 0 688 0 l 125 0 z "},"F":{"ha":711,"x_min":83,"x_max":688,"o":"m 278 28 q 222 -28 278 -28 l 139 -28 q 83 28 83 -28 l 83 875 q 139 931 83 931 l 632 931 q 688 875 688 931 l 688 790 q 633 736 688 736 l 278 736 l 278 522 l 575 522 q 631 467 631 522 l 631 382 q 576 328 631 328 l 278 328 l 278 28 z "},"G":{"ha":924,"x_min":39,"x_max":849,"o":"m 849 -28 q 792 -81 849 -81 l 701 -81 q 647 -24 647 -81 l 647 36 q 488 0 575 0 q 160 130 282 0 q 39 479 39 260 q 167 819 39 690 q 507 947 294 947 q 810 864 675 947 q 818 813 833 849 l 776 710 q 717 689 761 669 q 507 739 603 739 q 310 667 379 739 q 240 479 240 594 q 313 272 240 350 q 524 194 385 194 q 647 214 593 194 l 647 335 l 501 328 q 478 331 485 328 q 447 382 447 340 l 447 474 q 503 529 447 528 l 793 543 q 818 540 811 543 q 849 488 849 531 l 849 -28 z "},"H":{"ha":922,"x_min":83,"x_max":839,"o":"m 783 -28 l 693 -28 q 638 28 638 -28 l 638 379 l 285 354 l 285 56 q 229 0 285 0 l 139 0 q 83 56 83 0 l 83 903 q 139 958 83 958 l 229 958 q 285 903 285 958 l 285 556 l 638 581 l 638 875 q 693 931 638 931 l 783 931 q 839 875 839 931 l 839 28 q 783 -28 839 -28 z "},"I":{"ha":368,"x_min":83,"x_max":285,"o":"m 285 28 q 229 -28 285 -28 l 139 -28 q 83 28 83 -28 l 83 903 q 139 958 83 958 l 229 958 q 285 903 285 958 l 285 28 z "},"J":{"ha":796,"x_min":24,"x_max":779,"o":"m 289 -17 q 32 60 165 -17 q 24 111 8 74 l 65 214 q 125 235 82 256 q 286 192 213 192 q 381 237 349 192 q 414 392 414 282 l 414 749 l 147 736 q 107 749 121 735 q 93 790 93 763 l 93 875 q 149 931 93 929 l 724 958 q 765 945 751 960 q 779 903 779 931 l 779 818 q 725 764 779 767 l 615 758 l 615 281 q 526 58 615 132 q 289 -17 436 -17 z "},"K":{"ha":857,"x_min":83,"x_max":821,"o":"m 714 -12 q 701 -15 707 -14 q 690 -16 694 -15 q 680 -15 685 -17 q 672 -12 675 -12 q 665 -8 669 -12 q 659 -2 661 -4 q 652 6 657 0 q 645 16 647 13 q 636 29 643 19 q 626 43 629 39 l 393 392 l 285 285 l 285 56 q 229 0 285 0 l 139 0 q 83 56 83 0 l 83 847 q 139 903 83 903 l 229 903 q 285 847 285 903 l 285 558 l 654 924 q 733 929 694 964 l 794 874 q 803 796 840 832 l 532 528 q 551 497 540 514 l 821 82 q 782 1 863 19 l 714 -12 z "},"L":{"ha":679,"x_min":83,"x_max":660,"o":"m 606 1 l 139 28 q 83 82 83 28 l 83 875 q 139 931 83 931 l 229 931 q 285 875 285 931 l 285 214 l 604 196 q 660 140 660 192 l 660 56 q 646 14 660 28 q 606 1 632 0 z "},"M":{"ha":1061,"x_min":83,"x_max":978,"o":"m 285 56 q 229 0 285 0 l 139 0 q 83 56 83 0 l 83 903 q 139 958 83 958 l 229 958 q 278 939 265 958 l 540 547 l 779 897 q 832 931 800 931 l 922 931 q 978 875 978 931 l 978 28 q 922 -28 978 -28 l 832 -28 q 776 28 776 -28 l 776 564 l 606 313 q 569 292 592 292 l 499 292 q 463 314 476 292 l 285 581 l 285 56 z "},"N":{"ha":943,"x_min":83,"x_max":888,"o":"m 285 28 q 229 -28 285 -28 l 139 -28 q 83 28 83 -28 l 83 847 q 139 903 83 903 l 229 903 q 260 897 250 903 l 261 896 l 263 894 q 265 894 264 894 l 267 893 l 272 888 l 276 883 l 278 881 l 649 326 l 686 875 q 742 931 690 931 l 832 931 q 888 875 892 931 l 832 56 q 776 0 828 0 l 686 0 q 642 15 657 0 q 638 19 640 17 q 635 24 636 22 l 285 546 l 285 28 z "},"O":{"ha":1025,"x_min":39,"x_max":986,"o":"m 855 104 q 790 37 855 104 q 511 -31 725 -31 q 168 105 297 -31 q 39 465 39 240 q 169 825 39 689 q 514 961 299 961 q 855 825 726 961 q 986 465 983 689 q 855 104 985 239 m 514 178 q 712 257 642 178 q 785 465 782 336 q 711 673 782 593 q 513 753 640 753 q 311 673 382 753 q 240 465 240 593 q 311 257 240 336 q 514 178 382 178 z "},"P":{"ha":800,"x_min":83,"x_max":769,"o":"m 229 -28 l 139 -28 q 83 28 83 -28 l 83 875 q 139 931 83 931 l 358 931 q 659 845 549 931 q 769 575 769 760 q 654 322 769 410 q 356 217 539 235 l 285 210 l 285 28 q 229 -28 285 -28 m 364 722 l 285 722 l 285 418 l 361 425 q 509 472 450 433 q 568 575 568 510 q 364 722 568 722 z "},"Q":{"ha":1017,"x_min":35,"x_max":982,"o":"m 713 -124 q 665 -123 678 -132 q 625 -68 651 -114 l 563 42 q 510 39 526 39 q 166 167 297 39 q 35 493 35 296 q 166 819 35 690 q 510 947 297 947 q 851 819 719 947 q 982 493 982 690 q 920 255 982 360 q 747 93 858 150 l 813 -29 q 822 -83 831 -64 q 774 -110 813 -101 l 713 -124 m 308 667 q 272 632 308 667 q 236 493 236 596 q 308 319 236 390 q 508 247 381 247 q 708 319 635 247 q 781 493 781 392 q 708 667 781 594 q 508 739 635 739 q 308 667 381 739 z "},"R":{"ha":825,"x_min":83,"x_max":785,"o":"m 685 -40 q 637 -40 650 -49 q 597 15 624 -31 l 451 267 q 358 261 413 261 l 285 261 l 285 56 q 229 0 285 0 l 139 0 q 83 56 83 0 l 83 875 q 139 931 83 931 l 358 931 q 664 847 558 931 q 769 596 769 764 q 636 325 769 410 l 785 54 q 746 -26 819 -11 l 685 -40 m 364 722 l 285 722 l 285 469 l 364 469 q 568 596 568 469 q 364 722 568 722 z "},"S":{"ha":703,"x_min":26,"x_max":675,"o":"m 474 243 q 443 305 474 275 q 367 358 413 335 q 267 412 321 381 q 168 476 214 443 q 92 563 122 510 q 61 681 61 617 q 140 874 61 801 q 356 947 218 947 q 483 928 415 947 q 596 881 550 910 q 624 851 619 865 q 618 813 628 836 l 579 728 q 518 708 561 690 q 356 753 418 753 q 263 694 263 753 q 293 635 263 664 q 369 583 324 607 q 469 528 415 560 q 568 464 522 497 q 644 378 614 431 q 675 264 675 325 q 592 58 675 132 q 364 -17 510 -17 q 200 8 285 -17 q 56 76 115 33 q 27 106 32 94 q 33 144 22 118 l 74 228 q 97 255 85 250 q 135 247 110 260 q 372 178 261 178 q 474 243 474 178 z "},"T":{"ha":839,"x_min":19,"x_max":819,"o":"m 521 56 q 465 0 521 0 l 375 0 q 319 56 319 0 l 319 722 l 74 722 q 19 776 19 722 l 19 875 q 75 931 19 931 l 764 931 q 819 875 819 931 l 819 776 q 765 722 819 722 l 521 722 l 521 56 z "},"U":{"ha":914,"x_min":75,"x_max":831,"o":"m 629 83 l 629 128 q 351 -17 538 -17 q 151 63 228 -17 q 75 294 75 143 l 75 875 q 131 931 75 931 l 221 931 q 276 875 276 931 l 276 378 q 312 228 276 274 q 418 183 347 183 q 567 240 504 183 q 629 392 629 297 l 629 847 q 685 903 629 903 l 775 903 q 831 847 831 903 l 831 83 q 775 28 831 28 l 685 28 q 629 83 629 28 z "},"V":{"ha":882,"x_min":17,"x_max":863,"o":"m 550 0 l 444 0 q 406 10 417 0 q 378 56 394 19 l 25 849 q 17 903 8 886 q 64 929 25 921 l 128 943 q 185 942 168 951 q 222 888 203 932 l 479 299 l 649 922 q 680 977 660 965 q 736 978 700 989 l 818 954 q 862 928 854 944 q 857 874 869 911 l 617 56 q 593 10 607 21 q 550 0 579 0 z "},"W":{"ha":1313,"x_min":18,"x_max":1293,"o":"m 554 56 q 531 10 546 21 q 488 0 517 0 l 403 0 q 363 10 375 0 q 336 56 350 19 l 25 849 q 18 904 10 886 q 64 929 26 922 l 139 943 q 194 940 176 950 q 226 888 211 929 l 426 335 l 536 783 q 559 828 544 818 q 603 839 574 839 l 688 839 q 730 828 717 839 q 754 783 743 818 l 907 317 l 1086 915 q 1117 969 1099 958 q 1174 971 1136 979 l 1249 954 q 1293 928 1286 946 q 1288 874 1300 911 l 1033 56 q 1009 10 1022 21 q 967 0 996 0 l 868 0 q 826 10 839 0 q 801 56 813 21 l 664 489 l 554 56 z "},"X":{"ha":888,"x_min":67,"x_max":822,"o":"m 733 -1 q 656 10 688 -35 l 444 296 l 246 -17 q 168 -35 214 -65 l 83 21 q 67 99 38 51 l 308 479 l 69 804 q 82 882 38 850 l 154 935 q 232 924 199 968 l 444 636 l 642 947 q 721 961 672 994 l 804 906 q 822 829 850 874 l 582 451 l 818 131 q 806 51 851 85 l 733 -1 z "},"Y":{"ha":789,"x_min":15,"x_max":774,"o":"m 513 56 q 457 0 513 0 l 367 0 q 317 25 329 0 q 311 56 311 36 l 311 322 l 25 849 q 15 903 6 886 q 64 929 25 921 l 132 943 q 193 931 175 953 q 219 888 201 918 l 385 594 l 403 563 l 564 915 q 588 956 578 946 q 651 971 606 981 l 726 954 q 774 928 765 946 q 765 874 782 911 l 513 304 l 513 56 z "},"Z":{"ha":750,"x_min":38,"x_max":713,"o":"m 657 0 l 93 0 q 38 56 38 0 l 38 153 q 49 192 38 178 l 53 197 l 424 722 l 107 722 q 51 778 51 722 l 51 875 q 107 931 51 931 l 629 931 q 685 875 685 931 l 685 778 q 678 747 685 761 q 668 729 676 739 l 297 208 l 657 208 q 713 153 713 208 l 713 56 q 657 0 713 0 z "},"[":{"ha":392,"x_min":60,"x_max":372,"o":"m 240 801 l 240 65 q 246 41 240 47 q 268 35 251 35 l 317 35 q 372 -14 372 35 l 372 -90 q 317 -139 372 -139 l 200 -139 q 92 -103 125 -139 q 60 11 60 -68 l 60 856 q 92 970 60 935 q 200 1006 125 1006 l 317 1006 q 372 957 372 1006 l 372 881 q 317 832 372 832 l 268 832 q 246 826 251 832 q 240 801 240 819 z "},"\\":{"ha":694,"x_min":-18,"x_max":713,"o":"m 538 -108 l -18 885 q 3 961 -44 932 l 81 1007 q 157 986 128 1036 l 713 -7 q 692 -83 740 -54 l 614 -129 q 538 -108 565 -158 z "},"]":{"ha":392,"x_min":19,"x_max":332,"o":"m 151 801 q 146 826 151 819 q 124 832 140 832 l 75 832 q 19 881 19 832 l 19 957 q 75 1006 19 1006 l 192 1006 q 299 970 267 1006 q 332 856 332 935 l 332 11 q 299 -103 332 -68 q 192 -139 267 -139 l 75 -139 q 19 -90 19 -139 l 19 -14 q 75 35 19 35 l 124 35 q 146 41 140 35 q 151 65 151 47 l 151 801 z "},"^":{"ha":694,"x_min":65,"x_max":629,"o":"m 260 521 q 190 465 235 465 l 107 465 q 66 481 78 465 q 65 521 54 496 l 229 875 q 299 931 254 931 l 396 931 q 465 875 440 931 l 629 521 q 628 481 640 496 q 588 465 617 465 l 504 465 q 435 521 460 465 l 347 710 l 260 521 z "},"_":{"ha":747,"x_min":-18,"x_max":769,"o":"m -18 -224 l -18 -114 q 17 -78 -18 -81 l 735 -47 q 760 -56 750 -46 q 769 -81 769 -65 l 769 -192 q 735 -228 769 -225 l 17 -257 q -8 -249 1 -258 q -18 -224 -18 -239 z "},"`":{"ha":694,"x_min":199,"x_max":513,"o":"m 406 789 q 322 844 365 789 l 214 982 q 199 1022 196 1006 q 229 1038 201 1038 l 369 1038 q 446 992 425 1038 l 513 844 q 485 789 536 789 l 406 789 z "},"a":{"ha":706,"x_min":25,"x_max":654,"o":"m 613 -42 l 501 -42 q 460 0 460 -42 l 460 60 q 290 -15 392 -6 q 267 -17 282 -17 q 92 49 160 -17 q 25 213 25 114 q 92 375 25 311 q 294 439 158 439 q 460 403 374 439 q 456 429 458 413 q 315 531 432 531 q 151 478 238 531 q 100 503 122 460 l 81 543 l 60 583 q 50 606 56 592 q 65 642 46 628 q 338 725 171 725 q 569 640 483 725 q 654 407 654 554 l 654 0 q 650 -24 654 -14 q 613 -42 640 -42 m 315 157 q 401 174 361 157 q 454 221 442 192 q 460 246 460 232 l 460 251 q 315 279 388 279 q 219 218 219 279 q 247 174 219 190 q 315 157 275 157 z "},"b":{"ha":774,"x_min":63,"x_max":744,"o":"m 201 -28 l 118 -28 q 88 -22 99 -28 q 63 28 63 -10 l 63 944 q 68 975 63 964 q 118 1000 81 1000 l 201 1000 q 251 975 239 1000 q 257 944 257 964 l 257 632 q 451 711 332 711 q 660 613 575 711 q 744 356 744 514 q 743 315 744 329 q 638 86 731 172 q 410 0 544 0 q 257 26 333 0 q 201 -28 257 -28 m 396 200 q 508 240 465 200 q 550 356 550 281 q 512 467 550 424 q 411 510 474 510 q 263 385 289 510 q 257 325 257 361 l 257 228 q 396 200 321 200 z "},"c":{"ha":672,"x_min":29,"x_max":639,"o":"m 224 338 q 375 185 224 185 q 549 238 457 185 q 600 213 579 256 l 639 125 q 633 67 657 86 q 513 6 583 28 q 374 -17 443 -17 q 123 80 217 -17 q 29 338 29 176 q 124 597 29 499 q 374 694 218 694 q 513 672 443 694 q 633 611 583 650 q 639 553 657 592 l 600 465 q 549 440 579 422 q 375 493 457 493 q 263 453 303 493 q 224 338 224 414 z "},"d":{"ha":774,"x_min":29,"x_max":711,"o":"m 656 -28 l 572 -28 q 517 28 517 -28 l 517 79 q 322 0 442 0 q 114 99 199 0 q 29 356 29 197 q 128 613 29 515 q 378 711 228 711 q 517 694 447 711 l 517 944 q 572 1000 517 1000 l 656 1000 q 711 944 711 1000 l 711 28 q 656 -28 711 -28 m 363 201 q 476 249 436 201 q 517 386 517 297 l 517 490 q 378 511 454 511 q 266 471 308 511 q 224 356 224 431 q 262 244 224 288 q 363 201 300 201 z "},"e":{"ha":700,"x_min":29,"x_max":678,"o":"m 393 -17 q 128 84 228 -17 q 29 347 29 185 q 120 608 29 504 q 378 711 211 711 q 595 626 513 711 q 678 397 678 542 q 668 335 678 353 q 624 313 658 317 l 236 268 q 419 164 283 164 q 579 222 475 164 q 609 224 594 232 q 631 197 624 217 l 658 125 q 668 92 668 100 q 653 67 668 85 q 533 6 603 28 q 393 -17 463 -17 m 364 531 q 228 418 251 531 l 478 447 q 438 508 468 485 q 364 531 408 531 z "},"f":{"ha":567,"x_min":19,"x_max":549,"o":"m 310 0 l 199 0 q 161 18 171 0 q 157 42 157 28 l 157 469 l 58 464 q 28 474 36 463 q 19 507 19 485 l 19 618 q 24 636 19 628 q 67 665 32 663 l 157 671 l 157 717 q 160 769 157 736 q 256 957 175 890 q 458 1015 338 1024 l 479 1014 l 499 1013 q 519 1010 508 1013 q 549 974 547 1001 q 547 950 550 968 l 529 857 q 485 825 524 824 l 444 828 q 374 803 393 832 q 351 713 354 775 l 351 683 l 510 693 q 540 683 532 694 q 549 650 549 672 l 549 539 q 535 506 549 519 q 501 492 522 493 l 351 482 l 351 42 q 310 0 351 0 z "},"g":{"ha":772,"x_min":28,"x_max":710,"o":"m 385 -292 q 107 -212 206 -292 q 92 -185 92 -194 q 101 -154 92 -176 l 135 -71 q 186 -46 154 -26 q 382 -90 268 -90 q 515 32 515 -90 l 515 107 q 321 28 440 28 q 113 119 197 28 q 28 356 28 210 q 127 613 28 515 q 376 711 226 711 q 515 694 447 711 l 515 708 q 571 764 515 764 l 654 764 q 710 708 710 764 l 710 13 q 620 -217 710 -143 q 385 -292 531 -292 m 361 229 q 475 277 435 229 q 515 414 515 325 l 515 490 q 376 511 453 511 q 265 471 307 511 q 222 356 222 431 q 260 265 222 300 q 361 229 299 229 z "},"h":{"ha":763,"x_min":63,"x_max":710,"o":"m 257 56 q 201 0 257 0 l 118 0 q 63 56 63 0 l 63 917 q 118 972 63 972 l 201 972 q 257 917 257 972 l 257 590 q 354 680 294 649 q 475 711 414 711 q 646 639 582 711 q 710 422 710 567 l 710 28 q 654 -28 710 -28 l 571 -28 q 515 28 515 -28 l 515 360 q 408 510 515 510 q 297 464 338 510 q 257 325 257 418 l 257 56 z "},"i":{"ha":319,"x_min":42,"x_max":278,"o":"m 243 798 q 226 780 243 798 q 160 763 208 763 q 76 798 111 763 q 42 882 42 833 q 76 965 42 931 q 160 1000 111 1000 q 243 965 208 1000 q 278 882 278 931 q 243 798 278 833 m 257 56 q 201 0 257 0 l 118 0 q 63 56 63 0 l 63 611 q 118 667 63 667 l 201 667 q 257 611 257 667 l 257 56 z "},"j":{"ha":317,"x_min":-168,"x_max":275,"o":"m 240 770 q 223 752 240 770 q 157 735 206 735 q 74 770 108 735 q 39 854 39 806 q 74 938 39 903 q 157 972 108 972 q 240 938 206 972 q 275 854 275 903 q 240 770 275 806 m -25 -308 q -129 -293 -74 -308 q -167 -272 -158 -286 q -167 -233 -176 -258 l -128 -131 q -83 -99 -115 -93 q -24 -107 -39 -107 q 40 -78 19 -107 q 60 29 60 -49 l 60 597 q 101 639 60 639 l 213 639 q 254 597 254 639 l 254 -4 q 185 -228 254 -149 q -25 -308 117 -308 z "},"k":{"ha":700,"x_min":63,"x_max":672,"o":"m 574 -14 q 528 -12 540 -21 q 490 39 515 -3 l 335 297 l 257 226 l 257 56 q 201 0 257 0 l 118 0 q 63 56 63 0 l 63 917 q 118 972 63 972 l 201 972 q 257 917 257 972 l 257 493 l 503 719 q 578 724 544 757 l 642 661 q 650 588 685 618 l 472 424 l 672 76 q 635 -1 710 14 l 574 -14 z "},"l":{"ha":326,"x_min":63,"x_max":264,"o":"m 264 56 q 208 0 264 0 l 118 0 q 63 56 63 0 l 63 944 q 118 1000 63 1000 l 208 1000 q 264 944 264 1000 l 264 56 z "},"m":{"ha":1174,"x_min":63,"x_max":1121,"o":"m 689 28 q 633 -28 689 -28 l 550 -28 q 494 28 494 -28 l 494 360 q 388 511 494 511 q 288 467 319 511 q 257 325 257 422 l 257 56 q 201 0 257 0 l 118 0 q 63 56 63 0 l 63 694 q 118 750 63 750 l 201 750 q 257 694 257 750 l 257 597 q 454 711 328 711 q 667 567 613 711 q 886 694 738 694 q 1057 622 993 694 q 1121 406 1121 550 l 1121 56 q 1065 0 1121 0 l 982 0 q 926 56 926 0 l 926 343 q 819 494 926 494 q 720 450 751 494 q 689 308 689 406 l 689 28 z "},"n":{"ha":763,"x_min":63,"x_max":710,"o":"m 257 28 q 201 -28 257 -28 l 118 -28 q 63 28 63 -28 l 63 694 q 118 750 63 750 l 201 750 q 257 694 257 750 l 257 590 q 354 680 294 649 q 475 711 414 711 q 646 639 582 711 q 710 422 710 567 l 710 56 q 654 0 710 0 l 571 0 q 515 56 515 0 l 515 360 q 408 510 515 510 q 297 464 338 510 q 257 325 257 418 l 257 28 z "},"o":{"ha":756,"x_min":29,"x_max":726,"o":"m 632 85 q 585 34 632 85 q 378 -17 538 -17 q 124 85 218 -17 q 29 347 29 188 q 124 609 29 507 q 378 711 218 711 q 632 609 538 711 q 726 347 726 507 q 632 85 726 188 m 266 224 q 287 205 266 224 q 378 185 308 185 q 490 224 447 185 q 532 347 532 264 q 490 470 532 431 q 378 510 447 510 q 266 470 308 510 q 224 347 224 431 q 266 224 224 264 z "},"p":{"ha":774,"x_min":63,"x_max":744,"o":"m 257 -236 q 201 -292 257 -292 l 118 -292 q 63 -236 63 -292 l 63 667 q 118 722 63 722 l 201 722 q 257 667 257 722 l 257 615 q 451 694 332 694 q 660 596 575 694 q 744 339 744 497 q 645 81 744 179 q 396 -17 546 -17 q 257 0 325 -17 l 257 -236 m 396 183 q 508 224 465 183 q 550 339 550 264 q 512 450 550 407 q 411 493 474 493 q 297 445 338 493 q 257 308 257 397 l 257 204 q 396 183 319 183 z "},"q":{"ha":774,"x_min":29,"x_max":711,"o":"m 656 -292 l 572 -292 q 522 -267 535 -292 q 517 -236 517 -256 l 517 79 q 322 0 442 0 q 114 99 199 0 q 29 356 29 197 q 124 613 29 515 q 364 711 219 711 q 517 685 440 711 q 524 714 517 700 q 572 736 536 736 l 656 736 q 686 731 675 736 q 711 681 711 718 l 711 -236 q 706 -267 711 -256 q 656 -292 693 -292 m 363 201 q 511 326 485 201 q 517 386 517 350 l 517 483 q 378 511 453 511 q 266 471 308 511 q 224 356 224 431 q 262 244 224 288 q 363 201 300 201 z "},"r":{"ha":546,"x_min":63,"x_max":532,"o":"m 257 56 q 201 0 257 0 l 118 0 q 63 56 63 0 l 63 708 q 118 764 63 764 l 201 764 q 257 708 257 764 l 257 593 q 340 680 290 649 q 439 711 389 711 q 519 693 490 711 q 532 667 535 683 l 518 507 q 481 485 517 476 q 392 496 429 496 q 294 451 332 496 q 257 325 257 407 l 257 56 z "},"s":{"ha":594,"x_min":32,"x_max":569,"o":"m 43 488 q 113 649 43 586 q 304 711 183 711 q 533 647 447 711 q 539 589 557 629 l 510 517 q 458 492 493 478 q 285 535 350 535 q 231 497 231 535 q 256 460 231 475 q 318 439 281 446 q 400 419 356 432 q 482 388 444 406 q 544 328 519 369 q 569 228 569 288 q 489 43 569 103 q 297 -17 408 -17 q 46 58 139 -17 q 33 78 36 67 q 33 95 31 89 q 40 117 35 101 l 68 194 q 90 220 75 213 q 119 219 104 228 q 308 167 217 167 q 382 204 382 167 q 357 242 382 226 q 294 264 332 257 q 213 286 257 271 q 131 321 168 301 q 68 383 93 340 q 43 488 43 426 z "},"t":{"ha":642,"x_min":15,"x_max":618,"o":"m 613 44 q 374 -31 514 -31 q 197 41 258 -31 q 135 251 135 113 l 135 432 l 54 436 q 15 479 15 438 l 15 590 q 28 625 15 611 q 63 638 42 639 l 135 633 l 135 792 q 176 833 135 833 l 288 833 q 329 792 329 833 l 329 622 l 529 610 q 568 567 568 608 l 568 456 q 555 421 568 435 q 521 408 542 407 l 329 419 l 329 286 q 424 168 329 168 q 531 208 467 168 q 582 183 563 228 l 618 103 q 613 44 638 63 z "},"u":{"ha":763,"x_min":53,"x_max":700,"o":"m 506 56 l 506 104 q 408 15 468 46 q 288 -17 349 -17 q 117 56 181 -17 q 53 272 53 128 l 53 639 q 108 694 53 694 l 192 694 q 247 639 247 694 l 247 335 q 354 185 247 185 q 465 231 425 185 q 506 369 506 276 l 506 694 q 561 750 506 750 l 644 750 q 700 694 700 750 l 700 56 q 644 0 700 0 l 561 0 q 506 56 506 0 z "},"v":{"ha":714,"x_min":7,"x_max":700,"o":"m 440 0 l 335 0 q 298 9 308 0 q 271 53 288 18 l 15 582 q 8 630 1 618 q 53 658 14 642 l 118 686 q 167 687 154 697 q 201 632 181 676 l 367 272 l 496 681 q 526 733 510 722 q 578 735 543 744 l 657 711 q 700 685 693 701 q 694 635 707 669 l 504 53 q 481 10 493 19 q 440 0 468 0 z "},"w":{"ha":1043,"x_min":7,"x_max":1026,"o":"m 476 53 q 454 10 468 21 q 413 0 440 0 l 307 0 q 269 10 281 0 q 243 53 257 19 l 15 582 q 8 631 1 619 q 53 658 14 642 l 118 686 q 168 688 153 699 q 201 632 183 676 l 351 256 l 418 569 q 441 615 426 604 q 485 625 456 625 l 549 625 q 590 615 576 625 q 615 569 603 604 l 719 260 l 824 681 q 852 734 833 722 q 906 735 871 746 l 985 711 q 1026 685 1019 701 q 1022 635 1033 669 l 860 53 q 838 10 851 19 q 796 0 824 0 l 690 0 q 651 10 664 0 q 626 53 639 19 l 538 307 l 476 53 z "},"x":{"ha":740,"x_min":25,"x_max":708,"o":"m 615 -29 q 542 -11 575 -57 l 378 206 l 178 6 q 103 -3 136 -36 l 33 64 q 25 140 -8 106 l 253 369 l 67 615 q 86 689 38 656 l 157 739 q 231 721 197 767 l 392 508 l 556 672 q 631 678 594 714 l 700 611 q 708 536 743 571 l 517 344 l 706 94 q 686 21 735 54 l 615 -29 z "},"y":{"ha":763,"x_min":53,"x_max":700,"o":"m 375 -292 q 97 -212 196 -292 q 82 -185 82 -194 q 92 -154 82 -176 l 125 -71 q 147 -31 138 -39 q 176 -32 157 -22 q 372 -90 282 -90 q 506 32 506 -90 l 506 132 q 408 42 468 74 q 288 11 349 11 q 117 83 181 11 q 53 300 53 156 l 53 667 q 108 722 53 722 l 192 722 q 247 667 247 722 l 247 363 q 354 213 247 213 q 465 258 425 213 q 506 397 506 304 l 506 639 q 561 694 506 694 l 644 694 q 700 639 700 694 l 700 13 q 610 -217 700 -143 q 375 -292 521 -292 z "},"z":{"ha":649,"x_min":35,"x_max":618,"o":"m 563 0 l 90 0 q 39 31 49 0 q 35 56 35 42 l 35 147 q 50 197 28 175 l 336 500 l 97 500 q 74 503 88 500 q 42 556 42 514 l 42 639 q 46 664 42 653 q 97 694 56 694 l 549 694 q 600 664 590 694 q 604 639 604 653 l 604 556 q 603 539 604 543 q 602 535 603 538 q 600 531 601 532 l 600 529 q 599 528 600 528 q 593 517 597 522 q 589 512 592 515 q 585 507 586 508 l 285 194 l 563 194 q 586 192 572 194 q 618 139 618 181 l 618 56 q 614 31 618 42 q 563 0 604 0 z "},"{":{"ha":476,"x_min":13,"x_max":457,"o":"m 457 -97 q 401 -146 457 -146 l 285 -146 q 177 -110 210 -146 q 144 4 144 -75 l 144 313 q 139 337 144 331 q 117 343 133 343 l 68 343 q 13 392 13 343 l 13 468 q 68 517 13 517 l 117 517 q 139 523 133 517 q 144 547 144 529 l 144 856 q 177 970 144 935 q 285 1006 210 1006 l 401 1006 q 457 957 457 1006 l 457 881 q 401 832 457 832 l 353 832 q 331 826 336 832 q 325 801 325 819 l 325 563 q 308 483 325 510 q 238 431 290 457 q 308 376 290 403 q 325 297 325 350 l 325 58 q 331 34 325 40 q 353 28 336 28 l 401 28 q 457 -21 457 28 l 457 -97 z "},"|":{"ha":308,"x_min":57,"x_max":251,"o":"m 251 -83 q 196 -139 251 -139 l 113 -139 q 57 -83 57 -139 l 57 982 q 113 1038 57 1038 l 196 1038 q 251 982 251 1038 l 251 -83 z "},"}":{"ha":476,"x_min":13,"x_max":457,"o":"m 13 -97 l 13 -21 q 68 28 13 28 l 117 28 q 139 34 133 28 q 144 58 144 40 l 144 297 q 161 371 144 339 q 232 431 178 403 q 161 489 178 457 q 144 563 144 521 l 144 801 q 139 826 144 819 q 117 832 133 832 l 68 832 q 13 881 13 832 l 13 957 q 68 1006 13 1006 l 185 1006 q 292 970 260 1006 q 325 856 325 935 l 325 547 q 331 523 325 529 q 353 517 336 517 l 401 517 q 457 468 457 517 l 457 392 q 401 343 457 343 l 353 343 q 331 337 336 343 q 325 313 325 331 l 325 4 q 292 -110 325 -75 q 185 -146 260 -146 l 68 -146 q 13 -97 13 -146 z "},"~":{"ha":694,"x_min":74,"x_max":621,"o":"m 456 353 q 351 365 419 353 q 249 378 283 378 q 128 358 197 378 q 74 392 74 343 l 74 481 q 115 540 74 528 q 239 558 175 558 q 347 546 281 558 q 446 533 413 533 q 567 553 497 533 q 621 519 621 568 l 621 431 q 579 371 621 383 q 456 353 519 353 z "}," ":{"ha":278,"x_min":0,"x_max":0,"o":""},"¡":{"ha":333,"x_min":36,"x_max":297,"o":"m 75 617 q 94 636 75 617 q 167 656 114 656 q 258 617 219 656 q 297 524 297 578 q 258 432 297 471 q 167 393 219 393 q 75 432 114 393 q 36 524 36 471 q 75 617 36 578 m 271 -236 q 215 -292 271 -292 l 118 -292 q 63 -236 63 -292 l 63 256 q 118 311 63 311 l 215 311 q 271 256 271 311 l 271 -236 z "},"¢":{"ha":679,"x_min":32,"x_max":642,"o":"m 464 -111 q 408 -167 464 -167 l 325 -167 q 269 -111 269 -167 l 269 -3 q 95 117 158 28 q 32 338 32 206 q 95 560 32 469 q 269 681 158 650 l 269 814 q 325 869 269 869 l 408 869 q 464 814 464 869 l 464 686 q 636 611 569 665 q 642 553 660 592 l 603 465 q 551 440 582 422 q 378 493 460 493 q 266 453 306 493 q 226 338 226 414 q 378 185 226 185 q 551 238 460 185 q 603 213 582 256 l 642 125 q 636 67 660 86 q 464 -8 569 13 l 464 -111 z "},"£":{"ha":824,"x_min":39,"x_max":794,"o":"m 697 0 l 94 -17 q 42 14 53 -19 q 39 39 39 28 l 39 124 q 42 147 39 133 q 93 178 51 175 l 203 181 l 203 363 l 94 363 q 69 365 83 363 q 39 411 39 371 l 39 508 q 52 547 39 536 q 94 557 65 557 l 203 557 l 203 650 q 292 873 203 799 q 529 947 382 947 l 549 947 q 786 871 664 940 q 794 819 810 857 l 753 717 q 693 696 736 675 q 532 739 606 739 q 413 629 435 739 q 404 557 407 610 l 597 557 q 622 554 615 557 q 653 508 653 549 l 653 411 q 622 365 653 371 q 597 363 608 363 l 404 363 l 404 186 l 699 194 q 739 182 725 196 q 753 140 753 168 l 753 56 q 750 32 753 43 q 697 0 740 3 z "},"¤":{"ha":726,"x_min":50,"x_max":678,"o":"m 160 138 q 86 133 121 99 l 50 169 q 58 242 17 200 l 118 301 q 78 465 78 371 q 117 628 78 557 l 58 686 q 50 758 17 728 l 86 794 q 160 790 121 829 l 219 731 q 364 765 282 765 q 508 731 446 765 l 568 790 q 642 794 607 829 l 678 758 q 669 686 711 728 l 611 628 q 650 465 650 557 q 610 301 650 371 l 669 242 q 678 169 711 200 l 642 133 q 568 138 607 99 l 507 199 q 364 164 444 164 q 221 199 283 164 l 160 138 m 364 329 q 461 363 424 329 q 499 465 499 396 q 461 567 499 535 q 364 600 424 600 q 269 567 306 600 q 232 465 232 535 q 269 363 232 396 q 364 329 306 329 z "},"¥":{"ha":789,"x_min":14,"x_max":765,"o":"m 513 56 q 457 0 513 0 l 367 0 q 311 56 311 0 l 311 204 l 144 204 q 102 215 115 204 q 89 253 89 225 l 89 294 q 119 340 89 335 q 144 343 126 343 l 300 343 l 263 413 l 144 413 q 119 415 133 413 q 89 461 89 421 l 89 503 q 119 549 89 543 q 144 551 126 551 l 186 551 l 25 849 q 14 875 24 851 q 38 921 6 908 q 64 929 40 922 l 132 943 q 157 947 147 944 q 189 935 176 947 q 219 888 196 928 l 403 563 l 564 915 q 592 961 578 947 q 651 971 611 981 q 680 965 661 969 q 708 958 699 961 l 726 954 q 753 946 750 947 q 765 874 790 931 l 622 551 l 679 551 q 704 549 697 551 q 735 503 735 543 l 735 461 q 732 438 735 451 q 679 413 722 413 l 561 413 l 546 378 l 529 343 l 679 343 q 722 333 708 343 q 735 294 735 322 l 735 253 q 732 229 735 243 q 679 204 722 204 l 513 204 l 513 56 z "},"¦":{"ha":308,"x_min":57,"x_max":251,"o":"m 251 621 q 196 565 251 565 l 113 565 q 57 621 57 565 l 57 982 q 113 1038 57 1038 l 196 1038 q 251 982 251 1038 l 251 621 m 251 -83 q 196 -139 251 -139 l 113 -139 q 57 -83 57 -139 l 57 278 q 113 333 57 333 l 196 333 q 251 278 251 333 l 251 -83 z "},"§":{"ha":649,"x_min":63,"x_max":586,"o":"m 328 79 q 82 163 185 79 q 76 221 58 181 l 108 300 q 130 326 115 319 q 160 325 144 333 q 343 260 276 260 q 400 297 400 260 q 340 354 400 333 l 275 378 q 109 465 156 421 q 63 583 63 510 q 124 715 63 657 q 76 861 76 763 q 140 1002 76 944 q 321 1060 203 1060 q 567 976 464 1060 q 572 918 590 958 l 540 839 q 519 813 533 819 q 489 814 504 806 q 306 879 372 879 q 249 842 249 879 q 308 785 249 806 l 374 761 q 540 674 493 718 q 586 556 586 629 q 525 424 586 482 q 572 278 572 376 q 509 137 572 194 q 328 79 446 79 m 235 586 q 281 531 235 554 q 372 508 326 508 q 414 553 414 508 q 368 608 414 585 q 276 631 322 631 q 235 586 235 631 z "},"¨":{"ha":694,"x_min":94,"x_max":600,"o":"m 569 834 q 553 818 569 834 q 493 803 538 803 q 417 834 449 803 q 386 910 386 865 q 418 985 386 953 q 493 1017 450 1017 q 568 985 536 1017 q 600 910 600 953 q 569 834 600 865 m 277 834 q 261 818 277 834 q 201 803 246 803 q 126 834 157 803 q 94 910 94 865 q 126 985 94 953 q 201 1017 158 1017 q 276 985 244 1017 q 308 910 308 953 q 277 834 308 865 z "},"©":{"ha":1424,"x_min":63,"x_max":1361,"o":"m 1182 -2 q 1093 -89 1182 -2 q 711 -176 1004 -176 q 240 -2 418 -176 q 63 463 63 172 q 241 928 63 753 q 714 1104 419 1104 q 1184 928 1006 1104 q 1361 463 1363 751 q 1182 -2 1360 172 m 714 -12 q 1075 118 947 -12 q 1206 463 1203 249 q 1078 806 1210 672 q 713 940 947 940 q 347 807 476 940 q 218 463 218 674 q 347 118 218 249 q 714 -12 476 -12 m 586 463 q 731 317 586 317 q 894 367 808 317 q 943 343 925 385 l 981 261 q 975 206 999 224 q 729 126 876 126 q 491 217 581 126 q 401 463 401 308 q 491 708 401 615 q 729 801 581 801 q 975 722 876 801 q 981 667 999 703 l 943 583 q 894 560 925 543 q 731 610 808 610 q 624 572 661 610 q 586 463 586 535 z "},"ª":{"ha":706,"x_min":96,"x_max":586,"o":"m 435 418 l 435 442 q 285 385 374 385 q 149 433 201 385 q 96 557 96 482 q 148 678 96 631 q 306 726 200 726 q 435 703 381 726 l 435 708 q 322 792 435 792 q 194 754 256 792 q 154 772 172 742 l 124 833 q 128 876 107 863 q 340 939 208 939 q 522 879 457 939 q 586 703 586 819 l 586 418 q 554 388 586 388 l 468 388 q 435 418 435 388 m 322 515 q 400 533 365 515 q 435 582 435 551 l 435 586 q 322 606 379 606 q 247 561 247 606 q 269 528 247 540 q 322 515 290 515 z "},"«":{"ha":832,"x_min":29,"x_max":813,"o":"m 53 440 l 342 679 q 407 675 378 710 l 460 614 q 451 556 485 583 l 204 349 l 401 183 q 410 125 433 154 l 357 64 q 326 44 340 44 q 292 60 313 43 l 53 256 q 33 278 38 269 q 29 308 29 288 l 29 388 q 33 418 29 408 q 53 440 38 428 m 414 249 q 394 271 399 261 q 390 301 390 281 l 390 381 q 394 410 390 401 q 414 433 399 419 l 653 629 q 688 645 674 646 q 718 625 701 644 l 771 564 q 763 506 794 535 l 565 340 l 804 140 q 813 82 838 113 l 760 21 q 694 17 731 -14 l 414 249 z "},"¬":{"ha":694,"x_min":74,"x_max":621,"o":"m 565 267 l 496 267 q 440 322 440 267 l 440 438 l 129 438 q 74 493 74 438 l 74 563 q 129 618 74 618 l 565 618 q 621 563 621 618 l 621 322 q 565 267 621 267 z "},"­":{"ha":0,"x_min":0,"x_max":0,"o":""},"®":{"ha":819,"x_min":60,"x_max":771,"o":"m 414 275 q 157 371 254 275 q 60 625 60 467 q 158 881 60 785 q 417 978 256 978 q 674 881 575 978 q 771 625 772 783 q 673 371 771 467 q 414 275 575 275 m 417 357 q 620 431 547 357 q 693 625 693 506 q 622 819 697 743 q 415 894 547 894 q 210 819 282 894 q 138 625 138 744 q 210 431 138 504 q 417 357 282 357 m 367 472 q 343 450 367 450 l 307 450 q 283 472 283 450 l 283 794 q 307 815 283 815 l 407 815 q 525 790 483 815 q 567 699 567 764 q 499 596 567 621 l 560 483 q 533 450 578 450 l 490 450 l 482 457 l 415 583 l 367 583 l 367 472 m 413 747 l 367 747 l 367 651 l 413 651 q 479 699 479 651 q 413 747 479 747 z "},"¯":{"ha":694,"x_min":132,"x_max":563,"o":"m 507 949 q 563 893 563 949 l 563 844 q 507 789 563 789 l 188 789 q 132 844 132 789 l 132 893 q 188 949 132 949 l 507 949 z "},"°":{"ha":694,"x_min":122,"x_max":572,"o":"m 511 561 q 481 530 511 561 q 347 499 450 499 q 183 561 244 499 q 122 722 122 624 q 183 884 122 821 q 347 947 244 947 q 511 884 450 947 q 572 722 572 821 q 511 561 572 624 m 283 653 q 295 642 283 653 q 347 631 307 631 q 413 653 388 631 q 439 722 439 675 q 413 792 439 769 q 347 814 388 814 q 283 792 307 814 q 258 722 258 769 q 283 653 258 675 z "},"±":{"ha":694,"x_min":60,"x_max":635,"o":"m 579 128 l 115 128 q 60 183 60 128 l 60 253 q 115 308 60 308 l 257 308 l 257 447 l 115 447 q 60 503 60 447 l 60 572 q 115 628 60 628 l 257 628 l 257 785 q 313 840 257 840 l 382 840 q 438 785 438 840 l 438 628 l 579 628 q 635 572 635 628 l 635 503 q 579 447 635 447 l 438 447 l 438 308 l 579 308 q 635 253 635 308 l 635 183 q 579 128 635 128 z "},"²":{"ha":449,"x_min":42,"x_max":407,"o":"m 376 432 l 72 432 q 42 463 42 432 l 42 540 q 76 608 42 574 q 151 665 110 642 q 226 718 192 688 q 260 776 260 749 q 213 810 260 810 q 126 788 171 810 q 92 797 101 775 l 63 867 q 67 899 53 888 q 219 949 132 949 q 344 906 300 949 q 388 792 388 864 q 367 711 388 747 q 326 656 347 675 q 263 610 304 638 q 208 571 222 582 l 376 571 q 407 540 407 571 l 407 463 q 376 432 407 432 z "},"³":{"ha":457,"x_min":56,"x_max":400,"o":"m 224 418 q 58 469 126 418 q 56 501 46 479 l 76 558 q 106 572 86 583 q 217 543 156 543 q 257 554 242 543 q 272 583 272 565 q 196 624 272 624 l 163 624 q 132 654 132 624 l 132 718 q 163 749 132 749 l 179 749 q 261 789 261 749 q 208 822 261 822 q 110 792 165 822 q 81 806 90 779 l 60 864 q 63 896 51 888 q 221 947 132 947 q 344 910 299 947 q 389 814 389 874 q 310 697 389 739 q 376 647 353 681 q 400 569 400 613 q 353 460 400 503 q 224 418 307 418 z "},"´":{"ha":694,"x_min":194,"x_max":508,"o":"m 385 844 q 301 789 342 789 l 222 789 q 194 844 171 789 l 261 992 q 338 1038 282 1038 l 478 1038 q 508 1022 506 1038 q 493 982 511 1006 l 385 844 z "},"¶":{"ha":774,"x_min":38,"x_max":706,"o":"m 385 217 q 133 314 228 217 q 38 574 38 411 q 133 833 38 736 q 385 931 228 931 q 419 922 410 931 q 428 892 428 914 l 428 256 q 419 225 428 233 q 385 217 410 217 m 383 -1 q 478 44 446 -1 q 511 199 511 89 l 511 875 q 567 931 511 931 l 650 931 q 706 875 706 931 l 706 88 q 618 -135 706 -61 q 386 -210 531 -210 q 138 -144 267 -210 q 121 -89 104 -128 l 163 14 q 222 35 178 53 q 383 -1 313 -1 z "},"·":{"ha":694,"x_min":213,"x_max":474,"o":"m 435 510 q 415 490 435 510 q 343 471 396 471 q 251 510 290 471 q 213 603 213 549 q 251 694 213 656 q 343 733 290 733 q 435 694 396 733 q 474 603 474 656 q 435 510 474 549 z "},"¸":{"ha":694,"x_min":213,"x_max":568,"o":"m 357 -374 q 215 -335 275 -374 q 213 -300 201 -325 l 242 -232 q 272 -217 254 -206 q 358 -242 322 -242 q 429 -207 429 -242 q 409 -180 429 -190 q 358 -169 389 -169 q 324 -172 344 -169 q 294 -175 303 -175 q 268 -151 261 -175 l 314 26 l 385 26 l 367 -64 q 403 -61 392 -61 q 522 -102 476 -61 q 568 -211 568 -143 q 357 -374 568 -374 z "},"¹":{"ha":411,"x_min":42,"x_max":369,"o":"m 339 432 l 72 432 q 42 458 42 432 l 42 543 q 72 571 42 571 l 126 571 q 142 588 142 571 l 142 782 l 69 757 q 42 776 42 746 l 42 864 q 63 896 42 889 l 156 928 q 164 929 158 929 q 172 931 167 931 l 239 931 q 269 900 269 931 l 269 588 q 272 574 269 578 q 285 571 275 571 l 339 571 q 369 543 369 571 l 369 458 q 339 432 369 432 z "},"º":{"ha":603,"x_min":29,"x_max":574,"o":"m 500 472 q 463 433 500 472 q 301 394 426 394 q 103 472 176 394 q 29 668 29 549 q 103 864 29 788 q 301 940 176 940 q 500 864 426 940 q 574 668 574 788 q 500 472 574 549 m 301 546 q 389 576 356 546 q 422 668 422 606 q 389 760 422 731 q 301 789 356 789 q 215 760 249 789 q 182 668 182 731 q 215 576 182 606 q 301 546 249 546 z "},"»":{"ha":832,"x_min":19,"x_max":803,"o":"m 490 679 l 779 440 q 799 418 794 428 q 803 388 803 408 l 803 308 q 799 278 803 288 q 779 256 794 269 l 540 60 q 506 44 519 43 q 475 64 492 44 l 422 125 q 431 183 399 154 l 628 349 l 381 556 q 372 614 347 583 l 425 675 q 490 679 454 710 m 442 301 q 438 271 442 281 q 418 249 433 261 l 138 17 q 72 21 101 -14 l 19 82 q 28 140 -6 113 l 267 340 l 69 506 q 61 564 38 535 l 114 625 q 144 645 131 644 q 179 629 158 646 l 418 433 q 438 410 433 419 q 442 381 442 401 l 442 301 z "},"¼":{"ha":1043,"x_min":42,"x_max":1001,"o":"m 339 13 q 263 -8 308 -39 l 242 6 q 221 82 194 38 l 711 908 q 788 929 740 958 l 808 917 q 829 840 858 888 l 339 13 m 339 432 l 72 432 q 42 458 42 432 l 42 543 q 72 571 42 571 l 126 571 q 142 588 142 571 l 142 782 l 69 757 q 42 776 42 746 l 42 864 q 63 896 42 889 l 156 928 q 164 929 158 929 q 172 931 167 931 l 239 931 q 269 900 269 931 l 269 588 q 272 574 269 578 q 285 571 275 571 l 339 571 q 369 543 369 571 l 369 458 q 339 432 369 432 m 924 31 q 893 0 924 0 l 833 0 q 803 31 803 0 l 803 85 l 593 85 q 564 114 564 85 l 564 154 q 579 197 564 175 l 775 486 q 801 499 782 499 l 893 499 q 924 468 924 499 l 924 217 l 971 217 q 1001 186 1001 217 l 1001 114 q 972 85 1001 85 l 924 85 l 924 31 m 719 217 l 803 217 l 803 344 l 719 217 z "},"½":{"ha":1063,"x_min":42,"x_max":1021,"o":"m 339 13 q 263 -8 308 -39 l 242 6 q 221 82 194 38 l 711 908 q 788 929 740 958 l 808 917 q 829 840 858 888 l 339 13 m 339 432 l 72 432 q 42 458 42 432 l 42 543 q 72 571 42 571 l 126 571 q 142 588 142 571 l 142 782 l 69 757 q 42 776 42 746 l 42 864 q 63 896 42 889 l 156 928 q 164 929 158 929 q 172 931 167 931 l 239 931 q 269 900 269 931 l 269 588 q 272 574 269 578 q 285 571 275 571 l 339 571 q 369 543 369 571 l 369 458 q 339 432 369 432 m 990 0 l 686 0 q 656 31 656 0 l 656 108 q 690 176 656 142 q 765 233 724 210 q 840 286 806 256 q 874 344 874 317 q 826 378 874 378 q 740 356 785 378 q 706 365 715 343 l 676 435 q 681 467 667 456 q 833 517 746 517 q 958 474 914 517 q 1001 360 1001 432 q 981 279 1001 315 q 940 224 961 243 q 877 178 918 206 q 822 139 836 150 l 990 139 q 1021 108 1021 139 l 1021 31 q 990 0 1021 0 z "},"¾":{"ha":1028,"x_min":56,"x_max":986,"o":"m 224 418 q 58 469 126 418 q 56 501 46 479 l 76 558 q 106 572 86 583 q 217 543 156 543 q 257 554 242 543 q 272 583 272 565 q 196 624 272 624 l 163 624 q 132 654 132 624 l 132 718 q 163 749 132 749 l 179 749 q 261 789 261 749 q 208 822 261 822 q 110 792 165 822 q 81 806 90 779 l 60 864 q 63 896 51 888 q 221 947 132 947 q 344 910 299 947 q 389 814 389 874 q 310 697 389 739 q 376 647 353 681 q 400 569 400 613 q 353 460 400 503 q 224 418 307 418 m 324 13 q 247 -8 293 -39 l 226 6 q 206 82 179 38 l 696 908 q 772 929 725 958 l 793 917 q 814 840 843 888 l 324 13 m 908 31 q 878 0 908 0 l 818 0 q 788 31 788 0 l 788 85 l 578 85 q 549 114 549 85 l 549 154 q 564 197 549 175 l 760 486 q 786 499 767 499 l 878 499 q 908 468 908 499 l 908 217 l 956 217 q 986 186 986 217 l 986 114 q 957 85 986 85 l 908 85 l 908 31 m 704 217 l 788 217 l 788 344 l 704 217 z "},"¿":{"ha":660,"x_min":57,"x_max":636,"o":"m 311 640 q 331 660 311 640 q 403 679 350 679 q 494 640 456 679 q 533 547 533 601 q 494 456 533 494 q 403 417 456 417 q 311 456 350 417 q 272 547 272 494 q 311 640 272 601 m 251 -11 q 372 -112 251 -112 q 546 -54 442 -112 q 597 -79 576 -36 l 636 -167 q 631 -225 654 -206 q 510 -286 581 -264 q 371 -308 440 -308 q 142 -227 228 -308 q 57 -11 57 -146 q 82 107 57 54 q 161 203 107 160 q 249 269 215 247 q 350 325 283 290 q 368 335 363 332 q 408 340 390 344 q 435 319 425 335 l 485 242 q 474 185 511 203 q 390 143 421 160 q 322 101 358 126 q 269 48 286 75 q 251 -11 251 21 z "},"À":{"ha":939,"x_min":18,"x_max":922,"o":"m 375 1039 q 292 1094 335 1039 l 183 1232 q 168 1272 165 1256 q 199 1288 171 1288 l 339 1288 q 415 1242 394 1288 l 482 1094 q 454 1039 506 1039 l 375 1039 m 233 15 q 202 -37 221 -26 q 146 -40 183 -47 l 64 -24 q 19 2 26 -15 q 25 57 11 19 l 293 875 q 319 920 306 910 q 360 931 332 931 l 479 931 q 496 930 490 931 q 506 924 501 929 q 513 916 511 919 q 521 899 515 913 q 532 875 526 885 l 913 82 q 922 26 931 44 q 874 1 913 8 l 799 -12 q 742 -10 758 -19 q 704 43 725 -1 l 643 176 l 283 176 l 233 15 m 564 350 l 428 647 l 336 350 l 564 350 z "},"Á":{"ha":939,"x_min":18,"x_max":922,"o":"m 535 1094 q 451 1039 492 1039 l 372 1039 q 344 1094 321 1039 l 411 1242 q 488 1288 432 1288 l 628 1288 q 658 1272 656 1288 q 643 1232 661 1256 l 535 1094 m 233 15 q 202 -37 221 -26 q 146 -40 183 -47 l 64 -24 q 19 2 26 -15 q 25 57 11 19 l 293 875 q 319 920 306 910 q 360 931 332 931 l 479 931 q 496 930 490 931 q 506 924 501 929 q 513 916 511 919 q 521 899 515 913 q 532 875 526 885 l 913 82 q 922 26 931 44 q 874 1 913 8 l 799 -12 q 742 -10 758 -19 q 704 43 725 -1 l 643 176 l 283 176 l 233 15 m 564 350 l 428 647 l 336 350 l 564 350 z "},"Â":{"ha":939,"x_min":18,"x_max":922,"o":"m 464 1288 q 540 1242 511 1288 l 635 1094 q 642 1056 650 1072 q 607 1039 635 1039 l 542 1039 q 474 1071 500 1039 l 401 1164 l 328 1071 q 260 1039 301 1039 l 193 1039 q 158 1056 165 1039 q 165 1094 150 1072 l 260 1242 q 336 1288 289 1288 l 464 1288 m 233 15 q 202 -37 221 -26 q 146 -40 183 -47 l 64 -24 q 19 2 26 -15 q 25 57 11 19 l 293 875 q 319 920 306 910 q 360 931 332 931 l 479 931 q 496 930 490 931 q 506 924 501 929 q 513 916 511 919 q 521 899 515 913 q 532 875 526 885 l 913 82 q 922 26 931 44 q 874 1 913 8 l 799 -12 q 742 -10 758 -19 q 704 43 725 -1 l 643 176 l 283 176 l 233 15 m 564 350 l 428 647 l 336 350 l 564 350 z "},"Ã":{"ha":939,"x_min":18,"x_max":922,"o":"m 494 1039 q 419 1051 468 1039 q 343 1064 369 1064 q 251 1044 304 1064 q 197 1078 197 1024 l 197 1146 q 239 1206 197 1190 q 333 1224 288 1224 q 413 1211 364 1224 q 485 1199 461 1199 q 576 1218 524 1199 q 631 1185 631 1239 l 631 1117 q 589 1057 631 1072 q 494 1039 540 1039 m 233 15 q 202 -37 221 -26 q 146 -40 183 -47 l 64 -24 q 19 2 26 -15 q 25 57 11 19 l 293 875 q 319 920 306 910 q 360 931 332 931 l 479 931 q 496 930 490 931 q 506 924 501 929 q 513 916 511 919 q 521 899 515 913 q 532 875 526 885 l 913 82 q 922 26 931 44 q 874 1 913 8 l 799 -12 q 742 -10 758 -19 q 704 43 725 -1 l 643 176 l 283 176 l 233 15 m 564 350 l 428 647 l 336 350 l 564 350 z "},"Ä":{"ha":939,"x_min":18,"x_max":922,"o":"m 622 1084 q 606 1068 622 1084 q 546 1053 590 1053 q 470 1084 501 1053 q 439 1160 439 1115 q 471 1235 439 1203 q 546 1267 503 1267 q 621 1235 589 1267 q 653 1160 653 1203 q 622 1084 653 1115 m 330 1084 q 314 1068 330 1084 q 254 1053 299 1053 q 178 1084 210 1053 q 147 1160 147 1115 q 179 1235 147 1203 q 254 1267 211 1267 q 329 1235 297 1267 q 361 1160 361 1203 q 330 1084 361 1115 m 233 15 q 202 -37 221 -26 q 146 -40 183 -47 l 64 -24 q 19 2 26 -15 q 25 57 11 19 l 293 875 q 319 920 306 910 q 360 931 332 931 l 479 931 q 496 930 490 931 q 506 924 501 929 q 513 916 511 919 q 521 899 515 913 q 532 875 526 885 l 913 82 q 922 26 931 44 q 874 1 913 8 l 799 -12 q 742 -10 758 -19 q 704 43 725 -1 l 643 176 l 283 176 l 233 15 m 564 350 l 428 647 l 336 350 l 564 350 z "},"Å":{"ha":939,"x_min":18,"x_max":922,"o":"m 233 15 q 202 -37 221 -26 q 146 -40 183 -47 l 64 -24 q 19 2 26 -15 q 25 57 11 19 l 283 844 q 208 988 208 893 q 265 1117 208 1068 q 411 1165 322 1165 q 557 1117 500 1165 q 614 988 614 1068 q 544 849 614 897 l 913 82 q 922 26 931 44 q 874 1 913 8 l 799 -12 q 742 -10 758 -19 q 704 43 725 -1 l 643 176 l 283 176 l 233 15 m 365 947 q 374 940 365 947 q 411 933 383 933 q 458 947 439 933 q 476 988 476 961 q 458 1026 476 1013 q 410 1040 439 1040 q 365 1026 383 1040 q 346 988 346 1011 q 365 947 346 961 m 564 350 l 428 647 l 336 350 l 564 350 z "},"Æ":{"ha":1239,"x_min":15,"x_max":1196,"o":"m 229 11 q 192 -43 208 -32 q 142 -44 176 -54 l 64 -24 q 16 4 25 -12 q 25 57 7 21 l 432 875 q 462 922 451 913 q 499 931 472 931 l 1140 931 q 1196 875 1196 931 l 1196 790 q 1142 736 1196 736 l 786 736 l 786 557 l 1083 578 q 1139 522 1139 582 l 1139 438 q 1085 383 1139 388 l 786 363 l 786 194 l 1126 194 q 1182 139 1182 194 l 1182 54 q 1128 0 1182 0 l 647 0 q 592 56 592 0 l 592 176 l 310 176 l 229 11 m 592 350 l 592 761 l 393 350 l 592 350 z "},"Ç":{"ha":840,"x_min":39,"x_max":804,"o":"m 494 -374 q 353 -335 413 -374 q 350 -300 339 -325 l 379 -232 q 410 -217 392 -206 q 496 -242 460 -242 q 567 -207 567 -242 q 547 -180 567 -190 q 496 -169 526 -169 q 461 -172 482 -169 q 432 -175 440 -175 q 406 -151 399 -175 l 442 -14 q 148 133 257 4 q 39 465 39 261 q 165 815 39 683 q 500 947 290 947 q 796 864 660 947 q 804 813 819 849 l 763 710 q 703 689 747 669 q 500 739 593 739 q 308 663 376 739 q 240 465 240 586 q 308 267 240 343 q 500 192 375 192 q 703 242 593 192 q 763 221 747 261 l 804 118 q 796 67 819 82 q 514 -17 665 -12 l 504 -64 q 540 -61 529 -61 q 660 -102 614 -61 q 706 -211 706 -143 q 494 -374 706 -374 z "},"È":{"ha":731,"x_min":69,"x_max":688,"o":"m 396 1039 q 313 1094 356 1039 l 204 1232 q 189 1272 186 1256 q 219 1288 192 1288 l 360 1288 q 436 1242 415 1288 l 503 1094 q 475 1039 526 1039 l 396 1039 m 125 0 q 69 56 68 0 l 97 875 q 153 931 99 931 l 632 931 q 688 875 688 931 l 688 790 q 633 736 688 736 l 288 736 l 281 558 l 576 578 q 632 522 632 582 l 632 438 q 578 383 632 388 l 275 363 l 268 194 l 632 194 q 688 139 688 194 l 688 54 q 633 0 688 0 l 125 0 z "},"É":{"ha":731,"x_min":69,"x_max":688,"o":"m 486 1094 q 403 1039 443 1039 l 324 1039 q 296 1094 272 1039 l 363 1242 q 439 1288 383 1288 l 579 1288 q 610 1272 607 1288 q 594 1232 613 1256 l 486 1094 m 125 0 q 69 56 68 0 l 97 875 q 153 931 99 931 l 632 931 q 688 875 688 931 l 688 790 q 633 736 688 736 l 288 736 l 281 558 l 576 578 q 632 522 632 582 l 632 438 q 578 383 632 388 l 275 363 l 268 194 l 632 194 q 688 139 688 194 l 688 54 q 633 0 688 0 l 125 0 z "},"Ê":{"ha":731,"x_min":69,"x_max":688,"o":"m 457 1288 q 533 1242 504 1288 l 628 1094 q 635 1056 643 1072 q 600 1039 628 1039 l 535 1039 q 467 1071 493 1039 l 394 1164 l 321 1071 q 253 1039 294 1039 l 186 1039 q 151 1056 158 1039 q 158 1094 143 1072 l 253 1242 q 329 1288 282 1288 l 457 1288 m 125 0 q 69 56 68 0 l 97 875 q 153 931 99 931 l 632 931 q 688 875 688 931 l 688 790 q 633 736 688 736 l 288 736 l 281 558 l 576 578 q 632 522 632 582 l 632 438 q 578 383 632 388 l 275 363 l 268 194 l 632 194 q 688 139 688 194 l 688 54 q 633 0 688 0 l 125 0 z "},"Ë":{"ha":731,"x_min":69,"x_max":688,"o":"m 615 1084 q 599 1068 615 1084 q 539 1053 583 1053 q 463 1084 494 1053 q 432 1160 432 1115 q 463 1235 432 1203 q 539 1267 494 1267 q 615 1235 583 1267 q 646 1160 646 1203 q 615 1084 646 1115 m 323 1084 q 307 1068 323 1084 q 247 1053 292 1053 q 172 1084 203 1053 q 140 1160 140 1115 q 172 1235 140 1203 q 247 1267 203 1267 q 323 1235 292 1267 q 354 1160 354 1203 q 323 1084 354 1115 m 125 0 q 69 56 68 0 l 97 875 q 153 931 99 931 l 632 931 q 688 875 688 931 l 688 790 q 633 736 688 736 l 288 736 l 281 558 l 576 578 q 632 522 632 582 l 632 438 q 578 383 632 388 l 275 363 l 268 194 l 632 194 q 688 139 688 194 l 688 54 q 633 0 688 0 l 125 0 z "},"Ì":{"ha":368,"x_min":-49,"x_max":285,"o":"m 158 1039 q 75 1094 118 1039 l -33 1232 q -49 1272 -51 1256 q -18 1288 -46 1288 l 122 1288 q 199 1242 178 1288 l 265 1094 q 238 1039 289 1039 l 158 1039 m 285 28 q 229 -28 285 -28 l 139 -28 q 83 28 83 -28 l 83 903 q 139 958 83 958 l 229 958 q 285 903 285 958 l 285 28 z "},"Í":{"ha":368,"x_min":83,"x_max":428,"o":"m 304 1094 q 221 1039 261 1039 l 142 1039 q 114 1094 90 1039 l 181 1242 q 257 1288 201 1288 l 397 1288 q 428 1272 425 1288 q 413 1232 431 1256 l 304 1094 m 285 28 q 229 -28 285 -28 l 139 -28 q 83 28 83 -28 l 83 903 q 139 958 83 958 l 229 958 q 285 903 285 958 l 285 28 z "},"Î":{"ha":368,"x_min":-60,"x_max":426,"o":"m 247 1288 q 324 1242 294 1288 l 418 1094 q 426 1056 433 1072 q 390 1039 418 1039 l 325 1039 q 257 1071 283 1039 l 185 1164 l 111 1071 q 43 1039 85 1039 l -24 1039 q -59 1056 -51 1039 q -51 1094 -67 1072 l 43 1242 q 119 1288 72 1288 l 247 1288 m 285 28 q 229 -28 285 -28 l 139 -28 q 83 28 83 -28 l 83 903 q 139 958 83 958 l 229 958 q 285 903 285 958 l 285 28 z "},"Ï":{"ha":368,"x_min":-69,"x_max":436,"o":"m 405 1084 q 389 1068 405 1084 q 329 1053 374 1053 q 253 1084 285 1053 q 222 1160 222 1115 q 254 1235 222 1203 q 329 1267 286 1267 q 404 1235 372 1267 q 436 1160 436 1203 q 405 1084 436 1115 m 113 1084 q 98 1068 113 1084 q 38 1053 82 1053 q -38 1084 -7 1053 q -69 1160 -69 1115 q -37 1235 -69 1203 q 38 1267 -6 1267 q 113 1235 81 1267 q 144 1160 144 1203 q 113 1084 144 1115 m 285 28 q 229 -28 285 -28 l 139 -28 q 83 28 83 -28 l 83 903 q 139 958 83 958 l 229 958 q 285 903 285 958 l 285 28 z "},"Ð":{"ha":975,"x_min":21,"x_max":939,"o":"m 211 0 q 169 12 183 -3 q 156 56 156 26 l 156 376 l 75 376 q 21 431 21 376 l 21 515 q 76 571 21 571 l 156 571 l 156 875 q 211 931 156 931 l 431 931 q 802 824 665 931 q 939 486 939 717 q 899 289 939 375 q 786 149 858 203 q 624 63 714 94 q 428 22 535 32 l 306 10 l 301 10 l 211 0 m 501 376 l 357 376 l 357 224 l 433 231 q 651 309 564 244 q 738 486 738 374 q 653 667 738 613 q 436 722 569 722 l 357 722 l 357 571 l 500 571 q 556 515 556 571 l 556 431 q 501 376 556 376 z "},"Ñ":{"ha":943,"x_min":83,"x_max":888,"o":"m 553 1039 q 477 1051 526 1039 q 401 1064 428 1064 q 310 1044 363 1064 q 256 1078 256 1024 l 256 1146 q 297 1206 256 1190 q 392 1224 346 1224 q 471 1211 422 1224 q 543 1199 519 1199 q 635 1218 582 1199 q 689 1185 689 1239 l 689 1117 q 647 1057 689 1072 q 553 1039 599 1039 m 285 28 q 229 -28 285 -28 l 139 -28 q 83 28 83 -28 l 83 847 q 139 903 83 903 l 229 903 q 260 897 250 903 l 261 896 l 263 894 q 265 894 264 894 l 267 893 l 272 888 l 276 883 l 278 881 l 649 326 l 686 875 q 742 931 690 931 l 832 931 q 888 875 892 931 l 832 56 q 776 0 828 0 l 686 0 q 642 15 657 0 q 638 19 640 17 q 635 24 636 22 l 285 546 l 285 28 z "},"Ò":{"ha":1025,"x_min":39,"x_max":986,"o":"m 488 1039 q 404 1094 447 1039 l 296 1232 q 281 1272 278 1256 q 311 1288 283 1288 l 451 1288 q 528 1242 507 1288 l 594 1094 q 567 1039 618 1039 l 488 1039 m 855 104 q 790 37 855 104 q 511 -31 725 -31 q 168 105 297 -31 q 39 465 39 240 q 169 825 39 689 q 514 961 299 961 q 855 825 726 961 q 986 465 983 689 q 855 104 985 239 m 514 178 q 712 257 642 178 q 785 465 782 336 q 711 673 782 593 q 513 753 640 753 q 311 673 382 753 q 240 465 240 593 q 311 257 240 336 q 514 178 382 178 z "},"Ó":{"ha":1025,"x_min":39,"x_max":986,"o":"m 619 1094 q 536 1039 576 1039 l 457 1039 q 429 1094 406 1039 l 496 1242 q 572 1288 517 1288 l 713 1288 q 743 1272 740 1288 q 728 1232 746 1256 l 619 1094 m 855 104 q 790 37 855 104 q 511 -31 725 -31 q 168 105 297 -31 q 39 465 39 240 q 169 825 39 689 q 514 961 299 961 q 855 825 726 961 q 986 465 983 689 q 855 104 985 239 m 514 178 q 712 257 642 178 q 785 465 782 336 q 711 673 782 593 q 513 753 640 753 q 311 673 382 753 q 240 465 240 593 q 311 257 240 336 q 514 178 382 178 z "},"Ô":{"ha":1025,"x_min":39,"x_max":986,"o":"m 576 1288 q 653 1242 624 1288 l 747 1094 q 755 1056 763 1072 q 719 1039 747 1039 l 654 1039 q 586 1071 613 1039 l 514 1164 l 440 1071 q 372 1039 414 1039 l 306 1039 q 270 1056 278 1039 q 278 1094 263 1072 l 372 1242 q 449 1288 401 1288 l 576 1288 m 855 104 q 790 37 855 104 q 511 -31 725 -31 q 168 105 297 -31 q 39 465 39 240 q 169 825 39 689 q 514 961 299 961 q 855 825 726 961 q 986 465 983 689 q 855 104 985 239 m 514 178 q 712 257 642 178 q 785 465 782 336 q 711 673 782 593 q 513 753 640 753 q 311 673 382 753 q 240 465 240 593 q 311 257 240 336 q 514 178 382 178 z "},"Õ":{"ha":1025,"x_min":39,"x_max":986,"o":"m 593 1039 q 517 1051 567 1039 q 442 1064 468 1064 q 350 1044 403 1064 q 296 1078 296 1024 l 296 1146 q 338 1206 296 1190 q 432 1224 386 1224 q 511 1211 463 1224 q 583 1199 560 1199 q 675 1218 622 1199 q 729 1185 729 1239 l 729 1117 q 688 1057 729 1072 q 593 1039 639 1039 m 855 104 q 790 37 855 104 q 511 -31 725 -31 q 168 105 297 -31 q 39 465 39 240 q 169 825 39 689 q 514 961 299 961 q 855 825 726 961 q 986 465 983 689 q 855 104 985 239 m 514 178 q 712 257 642 178 q 785 465 782 336 q 711 673 782 593 q 513 753 640 753 q 311 673 382 753 q 240 465 240 593 q 311 257 240 336 q 514 178 382 178 z "},"Ö":{"ha":1025,"x_min":39,"x_max":986,"o":"m 734 1084 q 718 1068 734 1084 q 658 1053 703 1053 q 583 1084 614 1053 q 551 1160 551 1115 q 583 1235 551 1203 q 658 1267 614 1267 q 734 1235 703 1267 q 765 1160 765 1203 q 734 1084 765 1115 m 442 1084 q 427 1068 442 1084 q 367 1053 411 1053 q 291 1084 322 1053 q 260 1160 260 1115 q 291 1235 260 1203 q 367 1267 322 1267 q 442 1235 411 1267 q 474 1160 474 1203 q 442 1084 474 1115 m 855 104 q 790 37 855 104 q 511 -31 725 -31 q 168 105 297 -31 q 39 465 39 240 q 169 825 39 689 q 514 961 299 961 q 855 825 726 961 q 986 465 983 689 q 855 104 985 239 m 514 178 q 712 257 642 178 q 785 465 782 336 q 711 673 782 593 q 513 753 640 753 q 311 673 382 753 q 240 465 240 593 q 311 257 240 336 q 514 178 382 178 z "},"×":{"ha":694,"x_min":88,"x_max":606,"o":"m 556 207 q 478 208 517 169 l 346 339 l 217 208 q 136 207 175 167 l 88 258 q 89 336 50 297 l 218 467 l 89 596 q 89 675 51 636 l 139 724 q 217 724 176 761 l 346 594 l 475 724 q 556 724 517 763 l 604 675 q 603 597 642 636 l 474 467 l 606 336 q 606 258 644 297 l 556 207 z "},"Ø":{"ha":1025,"x_min":39,"x_max":986,"o":"m 282 -57 q 206 -78 250 -104 l 128 -29 q 107 47 76 1 l 156 118 q 39 465 39 251 q 169 825 39 689 q 514 961 299 961 q 703 928 619 961 l 743 986 q 819 1007 775 1033 l 897 958 q 918 882 949 926 l 869 810 q 986 465 985 675 q 855 104 985 239 q 511 -31 725 -31 q 322 3 408 -31 l 282 -57 m 233 465 q 275 294 233 365 l 585 753 q 513 760 547 760 q 306 678 379 760 q 233 465 233 596 m 514 171 q 717 252 646 171 q 792 465 789 333 q 750 633 789 563 l 442 178 q 514 171 479 171 z "},"Ù":{"ha":914,"x_min":75,"x_max":831,"o":"m 432 1039 q 349 1094 392 1039 l 240 1232 q 225 1272 222 1256 q 256 1288 228 1288 l 396 1288 q 472 1242 451 1288 l 539 1094 q 511 1039 563 1039 l 432 1039 m 629 83 l 629 128 q 351 -17 538 -17 q 151 63 228 -17 q 75 294 75 143 l 75 875 q 131 931 75 931 l 221 931 q 276 875 276 931 l 276 378 q 312 228 276 274 q 418 183 347 183 q 567 240 504 183 q 629 392 629 297 l 629 847 q 685 903 629 903 l 775 903 q 831 847 831 903 l 831 83 q 775 28 831 28 l 685 28 q 629 83 629 28 z "},"Ú":{"ha":914,"x_min":75,"x_max":831,"o":"m 578 1094 q 494 1039 535 1039 l 415 1039 q 388 1094 364 1039 l 454 1242 q 531 1288 475 1288 l 671 1288 q 701 1272 699 1288 q 686 1232 704 1256 l 578 1094 m 629 83 l 629 128 q 351 -17 538 -17 q 151 63 228 -17 q 75 294 75 143 l 75 875 q 131 931 75 931 l 221 931 q 276 875 276 931 l 276 378 q 312 228 276 274 q 418 183 347 183 q 567 240 504 183 q 629 392 629 297 l 629 847 q 685 903 629 903 l 775 903 q 831 847 831 903 l 831 83 q 775 28 831 28 l 685 28 q 629 83 629 28 z "},"Û":{"ha":914,"x_min":75,"x_max":831,"o":"m 521 1288 q 597 1242 568 1288 l 692 1094 q 699 1056 707 1072 q 664 1039 692 1039 l 599 1039 q 531 1071 557 1039 l 458 1164 l 385 1071 q 317 1039 358 1039 l 250 1039 q 215 1056 222 1039 q 222 1094 207 1072 l 317 1242 q 393 1288 346 1288 l 521 1288 m 629 83 l 629 128 q 351 -17 538 -17 q 151 63 228 -17 q 75 294 75 143 l 75 875 q 131 931 75 931 l 221 931 q 276 875 276 931 l 276 378 q 312 228 276 274 q 418 183 347 183 q 567 240 504 183 q 629 392 629 297 l 629 847 q 685 903 629 903 l 775 903 q 831 847 831 903 l 831 83 q 775 28 831 28 l 685 28 q 629 83 629 28 z "},"Ü":{"ha":914,"x_min":75,"x_max":831,"o":"m 678 1084 q 663 1068 678 1084 q 603 1053 647 1053 q 527 1084 558 1053 q 496 1160 496 1115 q 527 1235 496 1203 q 603 1267 558 1267 q 678 1235 647 1267 q 710 1160 710 1203 q 678 1084 710 1115 m 387 1084 q 371 1068 387 1084 q 311 1053 356 1053 q 235 1084 267 1053 q 204 1160 204 1115 q 235 1235 204 1203 q 311 1267 267 1267 q 387 1235 356 1267 q 418 1160 418 1203 q 387 1084 418 1115 m 629 83 l 629 128 q 351 -17 538 -17 q 151 63 228 -17 q 75 294 75 143 l 75 875 q 131 931 75 931 l 221 931 q 276 875 276 931 l 276 378 q 312 228 276 274 q 418 183 347 183 q 567 240 504 183 q 629 392 629 297 l 629 847 q 685 903 629 903 l 775 903 q 831 847 831 903 l 831 83 q 775 28 831 28 l 685 28 q 629 83 629 28 z "},"Ý":{"ha":789,"x_min":15,"x_max":774,"o":"m 488 1094 q 404 1039 444 1039 l 325 1039 q 297 1094 274 1039 l 364 1242 q 440 1288 385 1288 l 581 1288 q 611 1272 608 1288 q 596 1232 614 1256 l 488 1094 m 513 56 q 457 0 513 0 l 367 0 q 317 25 329 0 q 311 56 311 36 l 311 322 l 25 849 q 15 903 6 886 q 64 929 25 921 l 132 943 q 193 931 175 953 q 219 888 201 918 l 385 594 l 403 563 l 564 915 q 588 956 578 946 q 651 971 606 981 l 726 954 q 774 928 765 946 q 765 874 782 911 l 513 304 l 513 56 z "},"Þ":{"ha":800,"x_min":83,"x_max":769,"o":"m 229 -28 l 139 -28 q 83 28 83 -28 l 83 903 q 139 958 83 958 l 229 958 q 285 903 285 958 l 285 819 l 358 819 q 659 734 549 819 q 769 464 769 649 q 654 211 769 299 q 356 106 539 124 l 285 99 l 285 28 q 229 -28 285 -28 m 364 611 l 285 611 l 285 307 l 361 314 q 509 360 450 322 q 568 464 568 399 q 364 611 568 611 z "},"ß":{"ha":964,"x_min":19,"x_max":939,"o":"m 440 500 q 467 601 440 549 q 519 694 493 653 q 546 757 546 735 q 458 815 546 815 q 374 786 397 815 q 351 683 351 757 l 351 42 q 310 0 351 0 l 199 0 q 157 42 157 0 l 157 469 l 58 464 q 28 474 36 463 q 19 507 19 485 l 19 618 q 33 651 19 638 q 67 665 46 664 l 157 671 l 157 717 q 235 939 157 861 q 458 1017 314 1017 q 680 958 606 1017 q 754 803 754 900 q 724 687 754 746 q 665 582 694 628 q 635 514 635 536 q 666 473 635 492 q 742 437 697 454 q 831 394 786 419 q 908 320 876 369 q 939 201 939 271 q 867 42 939 101 q 667 -17 794 -17 q 435 65 536 -17 q 429 124 410 85 l 461 189 q 513 214 482 232 q 535 201 517 211 q 563 186 554 190 q 590 173 572 182 q 621 160 608 164 q 650 153 633 157 q 682 150 667 150 q 744 188 744 150 q 713 228 744 210 q 637 265 682 247 q 547 307 592 282 q 472 381 503 332 q 440 500 440 431 z "},"à":{"ha":706,"x_min":25,"x_max":654,"o":"m 356 789 q 272 844 315 789 l 164 982 q 149 1022 146 1006 q 179 1038 151 1038 l 319 1038 q 396 992 375 1038 l 463 844 q 435 789 486 789 l 356 789 m 613 -42 l 501 -42 q 460 0 460 -42 l 460 60 q 290 -15 392 -6 q 267 -17 282 -17 q 92 49 160 -17 q 25 213 25 114 q 92 375 25 311 q 294 439 158 439 q 460 403 374 439 q 456 429 458 413 q 315 531 432 531 q 151 478 238 531 q 100 503 122 460 l 81 543 l 60 583 q 50 606 56 592 q 65 642 46 628 q 338 725 171 725 q 569 640 483 725 q 654 407 654 554 l 654 0 q 650 -24 654 -14 q 613 -42 640 -42 m 315 157 q 401 174 361 157 q 454 221 442 192 q 460 246 460 232 l 460 251 q 315 279 388 279 q 219 218 219 279 q 247 174 219 190 q 315 157 275 157 z "},"á":{"ha":706,"x_min":25,"x_max":654,"o":"m 446 844 q 363 789 403 789 l 283 789 q 256 844 232 789 l 322 992 q 399 1038 343 1038 l 539 1038 q 569 1022 567 1038 q 554 982 572 1006 l 446 844 m 613 -42 l 501 -42 q 460 0 460 -42 l 460 60 q 290 -15 392 -6 q 267 -17 282 -17 q 92 49 160 -17 q 25 213 25 114 q 92 375 25 311 q 294 439 158 439 q 460 403 374 439 q 456 429 458 413 q 315 531 432 531 q 151 478 238 531 q 100 503 122 460 l 81 543 l 60 583 q 50 606 56 592 q 65 642 46 628 q 338 725 171 725 q 569 640 483 725 q 654 407 654 554 l 654 0 q 650 -24 654 -14 q 613 -42 640 -42 m 315 157 q 401 174 361 157 q 454 221 442 192 q 460 246 460 232 l 460 251 q 315 279 388 279 q 219 218 219 279 q 247 174 219 190 q 315 157 275 157 z "},"â":{"ha":706,"x_min":25,"x_max":654,"o":"m 417 1038 q 493 992 464 1038 l 588 844 q 595 806 603 822 q 560 789 588 789 l 494 789 q 426 821 453 789 l 354 914 l 281 821 q 213 789 254 789 l 146 789 q 110 806 118 789 q 118 844 103 822 l 213 992 q 289 1038 242 1038 l 417 1038 m 613 -42 l 501 -42 q 460 0 460 -42 l 460 60 q 290 -15 392 -6 q 267 -17 282 -17 q 92 49 160 -17 q 25 213 25 114 q 92 375 25 311 q 294 439 158 439 q 460 403 374 439 q 456 429 458 413 q 315 531 432 531 q 151 478 238 531 q 100 503 122 460 l 81 543 l 60 583 q 50 606 56 592 q 65 642 46 628 q 338 725 171 725 q 569 640 483 725 q 654 407 654 554 l 654 0 q 650 -24 654 -14 q 613 -42 640 -42 m 315 157 q 401 174 361 157 q 454 221 442 192 q 460 246 460 232 l 460 251 q 315 279 388 279 q 219 218 219 279 q 247 174 219 190 q 315 157 275 157 z "},"ã":{"ha":706,"x_min":25,"x_max":654,"o":"m 433 789 q 358 801 407 789 q 282 814 308 814 q 190 794 243 814 q 136 828 136 774 l 136 896 q 178 956 136 940 q 272 974 226 974 q 351 961 303 974 q 424 949 400 949 q 515 968 463 949 q 569 935 569 989 l 569 867 q 528 807 569 822 q 433 789 479 789 m 613 -42 l 501 -42 q 460 0 460 -42 l 460 60 q 290 -15 392 -6 q 267 -17 282 -17 q 92 49 160 -17 q 25 213 25 114 q 92 375 25 311 q 294 439 158 439 q 460 403 374 439 q 456 429 458 413 q 315 531 432 531 q 151 478 238 531 q 100 503 122 460 l 81 543 l 60 583 q 50 606 56 592 q 65 642 46 628 q 338 725 171 725 q 569 640 483 725 q 654 407 654 554 l 654 0 q 650 -24 654 -14 q 613 -42 640 -42 m 315 157 q 401 174 361 157 q 454 221 442 192 q 460 246 460 232 l 460 251 q 315 279 388 279 q 219 218 219 279 q 247 174 219 190 q 315 157 275 157 z "},"ä":{"ha":706,"x_min":25,"x_max":654,"o":"m 574 834 q 559 818 574 834 q 499 803 543 803 q 423 834 454 803 q 392 910 392 865 q 424 985 392 953 q 499 1017 456 1017 q 574 985 542 1017 q 606 910 606 953 q 574 834 606 865 m 283 834 q 267 818 283 834 q 207 803 251 803 q 131 834 163 803 q 100 910 100 865 q 132 985 100 953 q 207 1017 164 1017 q 282 985 250 1017 q 314 910 314 953 q 283 834 314 865 m 613 -42 l 501 -42 q 460 0 460 -42 l 460 60 q 290 -15 392 -6 q 267 -17 282 -17 q 92 49 160 -17 q 25 213 25 114 q 92 375 25 311 q 294 439 158 439 q 460 403 374 439 q 456 429 458 413 q 315 531 432 531 q 151 478 238 531 q 100 503 122 460 l 81 543 l 60 583 q 50 606 56 592 q 65 642 46 628 q 338 725 171 725 q 569 640 483 725 q 654 407 654 554 l 654 0 q 650 -24 654 -14 q 613 -42 640 -42 m 315 157 q 401 174 361 157 q 454 221 442 192 q 460 246 460 232 l 460 251 q 315 279 388 279 q 219 218 219 279 q 247 174 219 190 q 315 157 275 157 z "},"å":{"ha":706,"x_min":25,"x_max":654,"o":"m 492 813 q 465 790 492 813 q 353 767 438 767 q 214 813 268 767 q 160 936 160 858 q 214 1059 160 1013 q 353 1106 268 1106 q 492 1059 438 1106 q 546 936 546 1013 q 492 813 546 858 m 306 896 q 316 889 306 896 q 353 882 325 882 q 399 896 381 882 q 418 936 418 910 q 399 975 418 961 q 351 989 381 989 q 306 974 325 989 q 288 936 288 960 q 306 896 288 910 m 613 -42 l 501 -42 q 460 0 460 -42 l 460 60 q 290 -15 392 -6 q 267 -17 282 -17 q 92 49 160 -17 q 25 213 25 114 q 92 375 25 311 q 294 439 158 439 q 460 403 374 439 q 456 429 458 413 q 315 531 432 531 q 151 478 238 531 q 100 503 122 460 l 81 543 l 60 583 q 50 606 56 592 q 65 642 46 628 q 338 725 171 725 q 569 640 483 725 q 654 407 654 554 l 654 0 q 650 -24 654 -14 q 613 -42 640 -42 m 315 157 q 401 174 361 157 q 454 221 442 192 q 460 246 460 232 l 460 251 q 315 279 388 279 q 219 218 219 279 q 247 174 219 190 q 315 157 275 157 z "},"æ":{"ha":1131,"x_min":25,"x_max":1108,"o":"m 824 -17 q 544 100 646 -17 q 267 -17 444 -17 q 92 49 160 -17 q 25 213 25 114 q 92 375 25 311 q 294 439 158 439 q 460 403 374 439 l 460 415 q 422 501 460 471 q 315 531 383 531 q 151 478 238 531 q 100 503 122 460 l 81 543 l 60 583 q 50 606 56 592 q 65 642 46 628 q 308 724 161 717 q 338 725 318 725 q 578 633 497 725 q 808 711 669 711 q 1026 626 943 711 q 1108 397 1108 542 q 1107 368 1108 376 q 1078 318 1106 329 q 1054 313 1072 315 l 667 268 q 850 164 714 164 q 1010 222 906 164 q 1040 224 1025 232 q 1061 197 1054 217 l 1071 174 l 1089 125 q 1097 103 1094 108 q 1083 67 1101 82 q 963 6 1033 28 q 824 -17 893 -17 m 794 531 q 658 418 682 531 l 908 447 q 869 508 899 485 q 794 531 839 531 m 315 157 q 415 181 369 157 q 460 246 460 206 l 460 251 q 315 279 388 279 q 219 218 219 279 q 247 174 219 190 q 315 157 275 157 z "},"ç":{"ha":672,"x_min":29,"x_max":639,"o":"m 357 -374 q 215 -335 275 -374 q 213 -300 201 -325 l 242 -232 q 272 -217 254 -206 q 358 -242 322 -242 q 429 -207 429 -242 q 409 -180 429 -190 q 358 -169 389 -169 q 324 -172 344 -169 q 294 -175 303 -175 q 268 -151 261 -175 l 304 -11 q 103 103 178 10 q 29 338 29 196 q 124 597 29 499 q 374 694 218 694 q 513 672 443 694 q 633 611 583 650 q 639 553 657 592 l 600 465 q 549 440 579 422 q 375 493 457 493 q 263 453 303 493 q 224 338 224 414 q 375 185 224 185 q 549 238 457 185 q 600 213 579 256 l 639 125 q 633 67 657 86 q 513 6 583 28 q 376 -17 443 -17 l 367 -64 q 403 -61 392 -61 q 522 -102 476 -61 q 568 -211 568 -143 q 357 -374 568 -374 z "},"è":{"ha":700,"x_min":29,"x_max":678,"o":"m 343 789 q 260 844 303 789 l 151 982 q 136 1022 133 1006 q 167 1038 139 1038 l 307 1038 q 383 992 363 1038 l 450 844 q 422 789 474 789 l 343 789 m 393 -17 q 128 84 228 -17 q 29 347 29 185 q 120 608 29 504 q 378 711 211 711 q 595 626 513 711 q 678 397 678 542 q 668 335 678 353 q 624 313 658 317 l 236 268 q 419 164 283 164 q 579 222 475 164 q 609 224 594 232 q 631 197 624 217 l 658 125 q 668 92 668 100 q 653 67 668 85 q 533 6 603 28 q 393 -17 463 -17 m 364 531 q 228 418 251 531 l 478 447 q 438 508 468 485 q 364 531 408 531 z "},"é":{"ha":700,"x_min":29,"x_max":678,"o":"m 475 844 q 392 789 432 789 l 313 789 q 285 844 261 789 l 351 992 q 428 1038 372 1038 l 568 1038 q 599 1022 596 1038 q 583 982 601 1006 l 475 844 m 393 -17 q 128 84 228 -17 q 29 347 29 185 q 120 608 29 504 q 378 711 211 711 q 595 626 513 711 q 678 397 678 542 q 668 335 678 353 q 624 313 658 317 l 236 268 q 419 164 283 164 q 579 222 475 164 q 609 224 594 232 q 631 197 624 217 l 658 125 q 668 92 668 100 q 653 67 668 85 q 533 6 603 28 q 393 -17 463 -17 m 364 531 q 228 418 251 531 l 478 447 q 438 508 468 485 q 364 531 408 531 z "},"ê":{"ha":700,"x_min":29,"x_max":678,"o":"m 446 1038 q 522 992 493 1038 l 617 844 q 624 806 632 822 q 589 789 617 789 l 524 789 q 456 821 482 789 l 383 914 l 310 821 q 242 789 283 789 l 175 789 q 140 806 147 789 q 147 844 132 822 l 242 992 q 318 1038 271 1038 l 446 1038 m 393 -17 q 128 84 228 -17 q 29 347 29 185 q 120 608 29 504 q 378 711 211 711 q 595 626 513 711 q 678 397 678 542 q 668 335 678 353 q 624 313 658 317 l 236 268 q 419 164 283 164 q 579 222 475 164 q 609 224 594 232 q 631 197 624 217 l 658 125 q 668 92 668 100 q 653 67 668 85 q 533 6 603 28 q 393 -17 463 -17 m 364 531 q 228 418 251 531 l 478 447 q 438 508 468 485 q 364 531 408 531 z "},"ë":{"ha":700,"x_min":29,"x_max":678,"o":"m 617 834 q 602 818 617 834 q 542 803 586 803 q 466 834 497 803 q 435 910 435 865 q 466 985 435 953 q 542 1017 497 1017 q 617 985 586 1017 q 649 910 649 953 q 617 834 649 865 m 326 834 q 310 818 326 834 q 250 803 294 803 q 174 834 206 803 q 143 910 143 865 q 174 985 143 953 q 250 1017 206 1017 q 326 985 294 1017 q 357 910 357 953 q 326 834 357 865 m 393 -17 q 128 84 228 -17 q 29 347 29 185 q 120 608 29 504 q 378 711 211 711 q 595 626 513 711 q 678 397 678 542 q 668 335 678 353 q 624 313 658 317 l 236 268 q 419 164 283 164 q 579 222 475 164 q 609 224 594 232 q 631 197 624 217 l 658 125 q 668 92 668 100 q 653 67 668 85 q 533 6 603 28 q 393 -17 463 -17 m 364 531 q 228 418 251 531 l 478 447 q 438 508 468 485 q 364 531 408 531 z "},"ì":{"ha":319,"x_min":-86,"x_max":257,"o":"m 121 789 q 38 844 81 789 l -71 982 q -86 1022 -89 1006 q -56 1038 -83 1038 l 85 1038 q 161 992 140 1038 l 228 844 q 200 789 251 789 l 121 789 m 257 56 q 201 0 257 0 l 118 0 q 63 56 63 0 l 63 611 q 118 667 63 667 l 201 667 q 257 611 257 667 l 257 56 z "},"í":{"ha":319,"x_min":63,"x_max":404,"o":"m 281 844 q 197 789 238 789 l 118 789 q 90 844 67 789 l 157 992 q 233 1038 178 1038 l 374 1038 q 404 1022 401 1038 q 389 982 407 1006 l 281 844 m 257 56 q 201 0 257 0 l 118 0 q 63 56 63 0 l 63 611 q 118 667 63 667 l 201 667 q 257 611 257 667 l 257 56 z "},"î":{"ha":319,"x_min":-83,"x_max":403,"o":"m 224 1038 q 300 992 271 1038 l 394 844 q 402 806 410 822 q 367 789 394 789 l 301 789 q 233 821 260 789 l 161 914 l 88 821 q 19 789 61 789 l -47 789 q -83 806 -75 789 q -75 844 -90 822 l 19 992 q 96 1038 49 1038 l 224 1038 m 257 56 q 201 0 257 0 l 118 0 q 63 56 63 0 l 63 611 q 118 667 63 667 l 201 667 q 257 611 257 667 l 257 56 z "},"ï":{"ha":319,"x_min":-93,"x_max":413,"o":"m 381 834 q 366 818 381 834 q 306 803 350 803 q 230 834 261 803 q 199 910 199 865 q 230 985 199 953 q 306 1017 261 1017 q 381 985 350 1017 q 413 910 413 953 q 381 834 413 865 m 90 834 q 74 818 90 834 q 14 803 58 803 q -62 834 -31 803 q -93 910 -93 865 q -62 985 -93 953 q 14 1017 -31 1017 q 90 985 58 1017 q 121 910 121 953 q 90 834 121 865 m 257 56 q 201 0 257 0 l 118 0 q 63 56 63 0 l 63 611 q 118 667 63 667 l 201 667 q 257 611 257 667 l 257 56 z "},"ð":{"ha":767,"x_min":29,"x_max":733,"o":"m 379 -15 q 128 79 226 -15 q 29 318 29 174 q 117 553 29 463 q 354 644 204 644 q 475 628 413 644 q 417 731 449 682 l 346 682 q 314 674 325 669 q 288 699 303 678 l 236 774 q 258 822 219 797 l 313 858 q 279 890 290 881 q 279 957 238 928 l 338 997 q 376 1015 363 1014 q 415 997 390 1015 q 461 958 446 972 l 536 1010 q 568 1018 557 1022 q 594 993 579 1014 l 646 918 q 624 869 663 894 l 575 836 q 733 379 733 632 q 641 91 733 197 q 379 -15 549 -15 m 372 193 q 532 407 532 193 l 532 414 q 376 450 464 450 q 268 414 306 450 q 231 317 231 378 q 271 226 231 260 q 372 193 311 193 z "},"ñ":{"ha":763,"x_min":63,"x_max":710,"o":"m 490 789 q 415 801 464 789 q 339 814 365 814 q 247 794 300 814 q 193 828 193 774 l 193 896 q 235 956 193 940 q 329 974 283 974 q 408 961 360 974 q 481 949 457 949 q 572 968 519 949 q 626 935 626 989 l 626 867 q 585 807 626 822 q 490 789 536 789 m 257 28 q 201 -28 257 -28 l 118 -28 q 63 28 63 -28 l 63 694 q 118 750 63 750 l 201 750 q 257 694 257 750 l 257 590 q 354 680 294 649 q 475 711 414 711 q 646 639 582 711 q 710 422 710 567 l 710 56 q 654 0 710 0 l 571 0 q 515 56 515 0 l 515 360 q 408 510 515 510 q 297 464 338 510 q 257 325 257 418 l 257 28 z "},"ò":{"ha":756,"x_min":29,"x_max":726,"o":"m 339 789 q 256 844 299 789 l 147 982 q 132 1022 129 1006 q 163 1038 135 1038 l 303 1038 q 379 992 358 1038 l 446 844 q 418 789 469 789 l 339 789 m 632 85 q 585 34 632 85 q 378 -17 538 -17 q 124 85 218 -17 q 29 347 29 188 q 124 609 29 507 q 378 711 218 711 q 632 609 538 711 q 726 347 726 507 q 632 85 726 188 m 266 224 q 287 205 266 224 q 378 185 308 185 q 490 224 447 185 q 532 347 532 264 q 490 470 532 431 q 378 510 447 510 q 266 470 308 510 q 224 347 224 431 q 266 224 224 264 z "},"ó":{"ha":756,"x_min":29,"x_max":726,"o":"m 485 844 q 401 789 442 789 l 322 789 q 294 844 271 789 l 361 992 q 438 1038 382 1038 l 578 1038 q 608 1022 606 1038 q 593 982 611 1006 l 485 844 m 632 85 q 585 34 632 85 q 378 -17 538 -17 q 124 85 218 -17 q 29 347 29 188 q 124 609 29 507 q 378 711 218 711 q 632 609 538 711 q 726 347 726 507 q 632 85 726 188 m 266 224 q 287 205 266 224 q 378 185 308 185 q 490 224 447 185 q 532 347 532 264 q 490 470 532 431 q 378 510 447 510 q 266 470 308 510 q 224 347 224 431 q 266 224 224 264 z "},"ô":{"ha":756,"x_min":29,"x_max":726,"o":"m 442 1038 q 518 992 489 1038 l 613 844 q 620 806 628 822 q 585 789 613 789 l 519 789 q 451 821 478 789 l 379 914 l 306 821 q 238 789 279 789 l 171 789 q 135 806 143 789 q 143 844 128 822 l 238 992 q 314 1038 267 1038 l 442 1038 m 632 85 q 585 34 632 85 q 378 -17 538 -17 q 124 85 218 -17 q 29 347 29 188 q 124 609 29 507 q 378 711 218 711 q 632 609 538 711 q 726 347 726 507 q 632 85 726 188 m 266 224 q 287 205 266 224 q 378 185 308 185 q 490 224 447 185 q 532 347 532 264 q 490 470 532 431 q 378 510 447 510 q 266 470 308 510 q 224 347 224 431 q 266 224 224 264 z "},"õ":{"ha":756,"x_min":29,"x_max":726,"o":"m 458 789 q 383 801 432 789 q 307 814 333 814 q 215 794 268 814 q 161 828 161 774 l 161 896 q 203 956 161 940 q 297 974 251 974 q 376 961 328 974 q 449 949 425 949 q 540 968 488 949 q 594 935 594 989 l 594 867 q 553 807 594 822 q 458 789 504 789 m 632 85 q 585 34 632 85 q 378 -17 538 -17 q 124 85 218 -17 q 29 347 29 188 q 124 609 29 507 q 378 711 218 711 q 632 609 538 711 q 726 347 726 507 q 632 85 726 188 m 266 224 q 287 205 266 224 q 378 185 308 185 q 490 224 447 185 q 532 347 532 264 q 490 470 532 431 q 378 510 447 510 q 266 470 308 510 q 224 347 224 431 q 266 224 224 264 z "},"ö":{"ha":756,"x_min":29,"x_max":726,"o":"m 599 834 q 584 818 599 834 q 524 803 568 803 q 448 834 479 803 q 417 910 417 865 q 449 985 417 953 q 524 1017 481 1017 q 599 985 567 1017 q 631 910 631 953 q 599 834 631 865 m 308 834 q 292 818 308 834 q 232 803 276 803 q 156 834 188 803 q 125 910 125 865 q 157 985 125 953 q 232 1017 189 1017 q 307 985 275 1017 q 339 910 339 953 q 308 834 339 865 m 632 85 q 585 34 632 85 q 378 -17 538 -17 q 124 85 218 -17 q 29 347 29 188 q 124 609 29 507 q 378 711 218 711 q 632 609 538 711 q 726 347 726 507 q 632 85 726 188 m 266 224 q 287 205 266 224 q 378 185 308 185 q 490 224 447 185 q 532 347 532 264 q 490 470 532 431 q 378 510 447 510 q 266 470 308 510 q 224 347 224 431 q 266 224 224 264 z "},"÷":{"ha":694,"x_min":74,"x_max":621,"o":"m 436 649 q 417 629 436 649 q 344 610 397 610 q 253 649 292 610 q 214 742 214 688 q 253 833 214 794 q 344 872 292 872 q 436 833 397 872 q 475 742 475 794 q 436 649 475 688 m 565 558 q 621 503 621 558 l 621 433 q 565 378 621 378 l 129 378 q 74 433 74 378 l 74 503 q 129 558 74 558 l 565 558 m 436 93 q 417 74 436 93 q 344 54 397 54 q 253 93 292 54 q 214 186 214 132 q 253 278 214 239 q 344 317 292 317 q 436 278 397 317 q 475 186 475 239 q 436 93 475 132 z "},"ø":{"ha":756,"x_min":29,"x_max":726,"o":"m 219 -57 q 143 -78 188 -106 l 101 -53 q 81 24 51 -22 l 121 89 q 29 347 29 188 q 124 609 29 507 q 378 711 218 711 q 499 693 440 711 l 536 751 q 613 772 567 799 l 654 749 q 675 672 706 719 l 633 607 q 726 347 726 506 q 632 85 726 188 q 378 -17 538 -17 q 256 1 317 -17 l 219 -57 m 210 347 q 226 257 210 292 l 393 524 l 378 524 q 256 481 303 524 q 210 347 210 438 m 378 171 q 499 214 453 171 q 546 347 546 257 q 529 438 546 403 l 363 171 l 378 171 z "},"ù":{"ha":763,"x_min":53,"x_max":700,"o":"m 328 789 q 244 844 288 789 l 136 982 q 121 1022 118 1006 q 151 1038 124 1038 l 292 1038 q 368 992 347 1038 l 435 844 q 407 789 458 789 l 328 789 m 506 56 l 506 104 q 408 15 468 46 q 288 -17 349 -17 q 117 56 181 -17 q 53 272 53 128 l 53 639 q 108 694 53 694 l 192 694 q 247 639 247 694 l 247 335 q 354 185 247 185 q 465 231 425 185 q 506 369 506 276 l 506 694 q 561 750 506 750 l 644 750 q 700 694 700 750 l 700 56 q 644 0 700 0 l 561 0 q 506 56 506 0 z "},"ú":{"ha":763,"x_min":53,"x_max":700,"o":"m 474 844 q 390 789 431 789 l 311 789 q 283 844 260 789 l 350 992 q 426 1038 371 1038 l 567 1038 q 597 1022 594 1038 q 582 982 600 1006 l 474 844 m 506 56 l 506 104 q 408 15 468 46 q 288 -17 349 -17 q 117 56 181 -17 q 53 272 53 128 l 53 639 q 108 694 53 694 l 192 694 q 247 639 247 694 l 247 335 q 354 185 247 185 q 465 231 425 185 q 506 369 506 276 l 506 694 q 561 750 506 750 l 644 750 q 700 694 700 750 l 700 56 q 644 0 700 0 l 561 0 q 506 56 506 0 z "},"û":{"ha":763,"x_min":53,"x_max":700,"o":"m 444 1038 q 521 992 492 1038 l 615 844 q 623 806 631 822 q 588 789 615 789 l 522 789 q 454 821 481 789 l 382 914 l 308 821 q 240 789 282 789 l 174 789 q 138 806 146 789 q 146 844 131 822 l 240 992 q 317 1038 269 1038 l 444 1038 m 506 56 l 506 104 q 408 15 468 46 q 288 -17 349 -17 q 117 56 181 -17 q 53 272 53 128 l 53 639 q 108 694 53 694 l 192 694 q 247 639 247 694 l 247 335 q 354 185 247 185 q 465 231 425 185 q 506 369 506 276 l 506 694 q 561 750 506 750 l 644 750 q 700 694 700 750 l 700 56 q 644 0 700 0 l 561 0 q 506 56 506 0 z "},"ü":{"ha":763,"x_min":53,"x_max":700,"o":"m 602 834 q 586 818 602 834 q 526 803 571 803 q 451 834 482 803 q 419 910 419 865 q 451 985 419 953 q 526 1017 483 1017 q 601 985 569 1017 q 633 910 633 953 q 602 834 633 865 m 310 834 q 295 818 310 834 q 235 803 279 803 q 159 834 190 803 q 128 910 128 865 q 160 985 128 953 q 235 1017 192 1017 q 310 985 278 1017 q 342 910 342 953 q 310 834 342 865 m 506 56 l 506 104 q 408 15 468 46 q 288 -17 349 -17 q 117 56 181 -17 q 53 272 53 128 l 53 639 q 108 694 53 694 l 192 694 q 247 639 247 694 l 247 335 q 354 185 247 185 q 465 231 425 185 q 506 369 506 276 l 506 694 q 561 750 506 750 l 644 750 q 700 694 700 750 l 700 56 q 644 0 700 0 l 561 0 q 506 56 506 0 z "},"ý":{"ha":763,"x_min":53,"x_max":700,"o":"m 515 844 q 432 789 472 789 l 353 789 q 325 844 301 789 l 392 992 q 468 1038 413 1038 l 608 1038 q 639 1022 636 1038 q 624 982 642 1006 l 515 844 m 375 -292 q 97 -212 196 -292 q 82 -185 82 -194 q 92 -154 82 -176 l 125 -71 q 147 -31 138 -39 q 176 -32 157 -22 q 372 -90 282 -90 q 506 32 506 -90 l 506 132 q 408 42 468 74 q 288 11 349 11 q 117 83 181 11 q 53 300 53 156 l 53 667 q 108 722 53 722 l 192 722 q 247 667 247 722 l 247 363 q 354 213 247 213 q 465 258 425 213 q 506 397 506 304 l 506 639 q 561 694 506 694 l 644 694 q 700 639 700 694 l 700 13 q 610 -217 700 -143 q 375 -292 521 -292 z "},"þ":{"ha":774,"x_min":63,"x_max":744,"o":"m 257 -236 q 201 -292 257 -292 l 118 -292 q 63 -236 63 -292 l 63 944 q 118 1000 63 1000 l 201 1000 q 257 944 257 1000 l 257 615 q 451 694 332 694 q 660 596 575 694 q 744 339 744 497 q 645 81 744 179 q 396 -17 546 -17 q 257 0 325 -17 l 257 -236 m 396 183 q 508 224 465 183 q 550 339 550 264 q 512 450 550 407 q 411 493 474 493 q 297 445 338 493 q 257 308 257 397 l 257 204 q 396 183 319 183 z "},"ÿ":{"ha":763,"x_min":53,"x_max":700,"o":"m 630 834 q 614 818 630 834 q 554 803 599 803 q 478 834 510 803 q 447 910 447 865 q 479 985 447 953 q 554 1017 511 1017 q 629 985 597 1017 q 661 910 661 953 q 630 834 661 865 m 338 834 q 323 818 338 834 q 263 803 307 803 q 187 834 218 803 q 156 910 156 865 q 188 985 156 953 q 263 1017 219 1017 q 338 985 306 1017 q 369 910 369 953 q 338 834 369 865 m 375 -292 q 97 -212 196 -292 q 82 -185 82 -194 q 92 -154 82 -176 l 125 -71 q 147 -31 138 -39 q 176 -32 157 -22 q 372 -90 282 -90 q 506 32 506 -90 l 506 132 q 408 42 468 74 q 288 11 349 11 q 117 83 181 11 q 53 300 53 156 l 53 667 q 108 722 53 722 l 192 722 q 247 667 247 722 l 247 363 q 354 213 247 213 q 465 258 425 213 q 506 397 506 304 l 506 639 q 561 694 506 694 l 644 694 q 700 639 700 694 l 700 13 q 610 -217 700 -143 q 375 -292 521 -292 z "},"Ā":{"ha":939,"x_min":18,"x_max":922,"o":"m 569 1199 q 625 1143 625 1199 l 625 1094 q 569 1039 625 1039 l 250 1039 q 194 1094 194 1039 l 194 1143 q 250 1199 194 1199 l 569 1199 m 233 15 q 202 -37 221 -26 q 146 -40 183 -47 l 64 -24 q 19 2 26 -15 q 25 57 11 19 l 293 875 q 319 920 306 910 q 360 931 332 931 l 479 931 q 496 930 490 931 q 506 924 501 929 q 513 916 511 919 q 521 899 515 913 q 532 875 526 885 l 913 82 q 922 26 931 44 q 874 1 913 8 l 799 -12 q 742 -10 758 -19 q 704 43 725 -1 l 643 176 l 283 176 l 233 15 m 564 350 l 428 647 l 336 350 l 564 350 z "},"ā":{"ha":706,"x_min":25,"x_max":654,"o":"m 506 949 q 561 893 561 949 l 561 844 q 506 789 561 789 l 186 789 q 131 844 131 789 l 131 893 q 186 949 131 949 l 506 949 m 613 -42 l 501 -42 q 460 0 460 -42 l 460 60 q 290 -15 392 -6 q 267 -17 282 -17 q 92 49 160 -17 q 25 213 25 114 q 92 375 25 311 q 294 439 158 439 q 460 403 374 439 q 456 429 458 413 q 315 531 432 531 q 151 478 238 531 q 100 503 122 460 l 81 543 l 60 583 q 50 606 56 592 q 65 642 46 628 q 338 725 171 725 q 569 640 483 725 q 654 407 654 554 l 654 0 q 650 -24 654 -14 q 613 -42 640 -42 m 315 157 q 401 174 361 157 q 454 221 442 192 q 460 246 460 232 l 460 251 q 315 279 388 279 q 219 218 219 279 q 247 174 219 190 q 315 157 275 157 z "},"Ă":{"ha":939,"x_min":18,"x_max":922,"o":"m 331 1240 q 414 1171 340 1171 q 497 1240 488 1171 q 558 1288 504 1288 l 575 1288 q 643 1218 643 1288 q 583 1088 643 1136 q 414 1039 522 1039 q 245 1088 306 1039 q 185 1218 185 1136 q 253 1288 185 1288 l 269 1288 q 331 1240 324 1288 m 233 15 q 202 -37 221 -26 q 146 -40 183 -47 l 64 -24 q 19 2 26 -15 q 25 57 11 19 l 293 875 q 319 920 306 910 q 360 931 332 931 l 479 931 q 496 930 490 931 q 506 924 501 929 q 513 916 511 919 q 521 899 515 913 q 532 875 526 885 l 913 82 q 922 26 931 44 q 874 1 913 8 l 799 -12 q 742 -10 758 -19 q 704 43 725 -1 l 643 176 l 283 176 l 233 15 m 564 350 l 428 647 l 336 350 l 564 350 z "},"ă":{"ha":706,"x_min":25,"x_max":654,"o":"m 269 990 q 353 921 279 921 q 436 990 426 921 q 497 1038 443 1038 l 514 1038 q 582 968 582 1038 q 522 838 582 886 q 353 789 461 789 q 184 838 244 789 q 124 968 124 886 q 192 1038 124 1038 l 208 1038 q 269 990 263 1038 m 613 -42 l 501 -42 q 460 0 460 -42 l 460 60 q 290 -15 392 -6 q 267 -17 282 -17 q 92 49 160 -17 q 25 213 25 114 q 92 375 25 311 q 294 439 158 439 q 460 403 374 439 q 456 429 458 413 q 315 531 432 531 q 151 478 238 531 q 100 503 122 460 l 81 543 l 60 583 q 50 606 56 592 q 65 642 46 628 q 338 725 171 725 q 569 640 483 725 q 654 407 654 554 l 654 0 q 650 -24 654 -14 q 613 -42 640 -42 m 315 157 q 401 174 361 157 q 454 221 442 192 q 460 246 460 232 l 460 251 q 315 279 388 279 q 219 218 219 279 q 247 174 219 190 q 315 157 275 157 z "},"Ą":{"ha":939,"x_min":18,"x_max":950,"o":"m 799 -292 q 677 -254 728 -292 q 626 -147 626 -217 q 732 14 626 -47 l 653 176 l 283 176 l 233 15 q 202 -37 221 -26 q 146 -40 183 -47 l 64 -24 q 19 2 26 -15 q 25 57 11 19 l 293 875 q 319 920 306 910 q 360 931 332 931 l 465 931 q 503 922 492 931 q 532 875 514 913 l 913 82 q 921 27 929 44 q 874 1 913 10 l 849 -4 q 790 -35 811 -12 q 769 -87 769 -58 q 790 -126 769 -114 q 832 -137 810 -137 q 900 -118 865 -137 q 918 -117 908 -112 q 931 -133 928 -122 l 950 -218 q 935 -260 957 -250 q 799 -292 868 -292 m 567 350 l 428 649 l 333 350 l 567 350 z "},"ą":{"ha":706,"x_min":25,"x_max":674,"o":"m 671 -315 q 514 -357 613 -357 q 400 -321 450 -357 q 350 -210 350 -285 q 381 -112 350 -156 q 464 -44 413 -69 q 460 -24 460 -36 l 460 60 q 267 -17 381 -17 q 92 49 160 -17 q 25 213 25 114 q 92 375 25 311 q 294 439 158 439 q 460 403 374 439 l 460 407 q 419 497 460 463 q 315 531 378 531 q 151 478 238 531 q 100 503 122 460 l 60 583 q 65 642 39 622 q 338 725 171 725 q 569 640 483 725 q 654 407 654 554 l 654 -24 q 613 -65 654 -65 q 524 -90 556 -65 q 493 -153 493 -115 q 511 -190 493 -176 q 551 -203 529 -203 q 622 -183 586 -203 q 640 -183 631 -179 q 653 -199 650 -187 l 674 -281 q 671 -315 682 -307 m 315 157 q 415 181 369 157 q 460 246 460 206 l 460 251 q 315 279 388 279 q 219 218 219 279 q 247 174 219 190 q 315 157 275 157 z "},"Ć":{"ha":840,"x_min":39,"x_max":804,"o":"m 597 1094 q 514 1039 554 1039 l 435 1039 q 407 1094 383 1039 l 474 1242 q 550 1288 494 1288 l 690 1288 q 721 1272 718 1288 q 706 1232 724 1256 l 597 1094 m 500 192 q 703 242 593 192 q 763 221 747 261 l 804 118 q 796 67 819 82 q 497 -17 657 -17 q 164 115 289 -17 q 39 465 39 246 q 165 815 39 683 q 500 947 290 947 q 796 864 660 947 q 804 813 819 849 l 763 710 q 703 689 747 669 q 500 739 593 739 q 308 663 376 739 q 240 465 240 586 q 308 267 240 343 q 500 192 375 192 z "},"ć":{"ha":672,"x_min":29,"x_max":639,"o":"m 485 844 q 401 789 442 789 l 322 789 q 294 844 271 789 l 361 992 q 438 1038 382 1038 l 578 1038 q 608 1022 606 1038 q 593 982 611 1006 l 485 844 m 224 338 q 375 185 224 185 q 549 238 457 185 q 600 213 579 256 l 639 125 q 633 67 657 86 q 513 6 583 28 q 374 -17 443 -17 q 123 80 217 -17 q 29 338 29 176 q 124 597 29 499 q 374 694 218 694 q 513 672 443 694 q 633 611 583 650 q 639 553 657 592 l 600 465 q 549 440 579 422 q 375 493 457 493 q 263 453 303 493 q 224 338 224 414 z "},"Ĉ":{"ha":840,"x_min":39,"x_max":804,"o":"m 554 1288 q 631 1242 601 1288 l 725 1094 q 733 1056 740 1072 q 697 1039 725 1039 l 632 1039 q 564 1071 590 1039 l 492 1164 l 418 1071 q 350 1039 392 1039 l 283 1039 q 248 1056 256 1039 q 256 1094 240 1072 l 350 1242 q 426 1288 379 1288 l 554 1288 m 500 192 q 703 242 593 192 q 763 221 747 261 l 804 118 q 796 67 819 82 q 497 -17 657 -17 q 164 115 289 -17 q 39 465 39 246 q 165 815 39 683 q 500 947 290 947 q 796 864 660 947 q 804 813 819 849 l 763 710 q 703 689 747 669 q 500 739 593 739 q 308 663 376 739 q 240 465 240 586 q 308 267 240 343 q 500 192 375 192 z "},"ĉ":{"ha":672,"x_min":29,"x_max":639,"o":"m 442 1038 q 518 992 489 1038 l 613 844 q 620 806 628 822 q 585 789 613 789 l 519 789 q 451 821 478 789 l 379 914 l 306 821 q 238 789 279 789 l 171 789 q 135 806 143 789 q 143 844 128 822 l 238 992 q 314 1038 267 1038 l 442 1038 m 224 338 q 375 185 224 185 q 549 238 457 185 q 600 213 579 256 l 639 125 q 633 67 657 86 q 513 6 583 28 q 374 -17 443 -17 q 123 80 217 -17 q 29 338 29 176 q 124 597 29 499 q 374 694 218 694 q 513 672 443 694 q 633 611 583 650 q 639 553 657 592 l 600 465 q 549 440 579 422 q 375 493 457 493 q 263 453 303 493 q 224 338 224 414 z "},"Ċ":{"ha":840,"x_min":39,"x_max":804,"o":"m 582 1071 q 563 1051 582 1071 q 490 1032 543 1032 q 399 1071 438 1032 q 360 1164 360 1110 q 399 1256 360 1217 q 490 1294 438 1294 q 582 1256 543 1294 q 621 1164 621 1217 q 582 1071 621 1110 m 500 192 q 703 242 593 192 q 763 221 747 261 l 804 118 q 796 67 819 82 q 497 -17 657 -17 q 164 115 289 -17 q 39 465 39 246 q 165 815 39 683 q 500 947 290 947 q 796 864 660 947 q 804 813 819 849 l 763 710 q 703 689 747 669 q 500 739 593 739 q 308 663 376 739 q 240 465 240 586 q 308 267 240 343 q 500 192 375 192 z "},"ċ":{"ha":672,"x_min":29,"x_max":639,"o":"m 469 821 q 450 801 469 821 q 378 782 431 782 q 286 821 325 782 q 247 914 247 860 q 286 1006 247 967 q 378 1044 325 1044 q 469 1006 431 1044 q 508 914 508 967 q 469 821 508 860 m 224 338 q 375 185 224 185 q 549 238 457 185 q 600 213 579 256 l 639 125 q 633 67 657 86 q 513 6 583 28 q 374 -17 443 -17 q 123 80 217 -17 q 29 338 29 176 q 124 597 29 499 q 374 694 218 694 q 513 672 443 694 q 633 611 583 650 q 639 553 657 592 l 600 465 q 549 440 579 422 q 375 493 457 493 q 263 453 303 493 q 224 338 224 414 z "},"Č":{"ha":840,"x_min":39,"x_max":804,"o":"m 426 1039 q 350 1085 379 1039 l 256 1232 q 248 1272 240 1256 q 283 1288 256 1288 l 349 1288 q 417 1256 390 1288 l 489 1163 l 563 1256 q 631 1288 589 1288 l 697 1288 q 733 1272 725 1288 q 725 1232 740 1256 l 631 1085 q 554 1039 601 1039 l 426 1039 m 500 192 q 703 242 593 192 q 763 221 747 261 l 804 118 q 796 67 819 82 q 497 -17 657 -17 q 164 115 289 -17 q 39 465 39 246 q 165 815 39 683 q 500 947 290 947 q 796 864 660 947 q 804 813 819 849 l 763 710 q 703 689 747 669 q 500 739 593 739 q 308 663 376 739 q 240 465 240 586 q 308 267 240 343 q 500 192 375 192 z "},"č":{"ha":672,"x_min":29,"x_max":639,"o":"m 300 789 q 224 835 253 789 l 129 982 q 122 1022 114 1006 q 157 1038 129 1038 l 222 1038 q 290 1006 264 1038 l 363 913 l 436 1006 q 504 1038 463 1038 l 571 1038 q 606 1022 599 1038 q 599 982 614 1006 l 504 835 q 428 789 475 789 l 300 789 m 224 338 q 375 185 224 185 q 549 238 457 185 q 600 213 579 256 l 639 125 q 633 67 657 86 q 513 6 583 28 q 374 -17 443 -17 q 123 80 217 -17 q 29 338 29 176 q 124 597 29 499 q 374 694 218 694 q 513 672 443 694 q 633 611 583 650 q 639 553 657 592 l 600 465 q 549 440 579 422 q 375 493 457 493 q 263 453 303 493 q 224 338 224 414 z "},"Ď":{"ha":903,"x_min":83,"x_max":867,"o":"m 360 1039 q 283 1085 313 1039 l 189 1232 q 181 1272 174 1256 q 217 1288 189 1288 l 282 1288 q 350 1256 324 1288 l 422 1163 l 496 1256 q 564 1288 522 1288 l 631 1288 q 666 1272 658 1288 q 658 1232 674 1256 l 564 1085 q 488 1039 535 1039 l 360 1039 m 139 0 q 97 12 111 -3 q 83 56 83 26 l 83 875 q 139 931 83 931 l 358 931 q 730 824 593 931 q 867 486 867 717 q 826 289 867 375 q 714 149 786 203 q 552 63 642 94 q 356 22 463 32 l 233 10 l 229 10 l 139 0 m 364 722 l 285 722 l 285 224 l 361 231 q 578 309 492 244 q 665 486 665 374 q 581 667 665 613 q 364 722 497 722 z "},"ď":{"ha":774,"x_min":29,"x_max":988,"o":"m 656 -28 l 572 -28 q 517 28 517 -28 l 517 79 q 322 0 442 0 q 114 99 199 0 q 29 356 29 197 q 128 613 29 515 q 378 711 228 711 q 517 694 447 711 l 517 944 q 572 1000 517 1000 l 656 1000 q 711 944 711 1000 l 711 28 q 656 -28 711 -28 m 950 807 q 926 763 942 774 q 881 751 911 751 l 822 751 q 789 763 797 751 q 781 807 781 775 l 781 954 q 790 991 781 982 q 829 1000 800 1000 l 956 1000 q 988 989 982 1000 q 985 944 993 978 l 950 807 m 363 201 q 476 249 436 201 q 517 386 517 297 l 517 490 q 378 511 454 511 q 266 471 308 511 q 224 356 224 431 q 262 244 224 288 q 363 201 300 201 z "},"Đ":{"ha":975,"x_min":21,"x_max":939,"o":"m 211 0 q 169 12 183 -3 q 156 56 156 26 l 156 376 l 75 376 q 21 431 21 376 l 21 515 q 76 571 21 571 l 156 571 l 156 875 q 211 931 156 931 l 431 931 q 802 824 665 931 q 939 486 939 717 q 899 289 939 375 q 786 149 858 203 q 624 63 714 94 q 428 22 535 32 l 306 10 l 301 10 l 211 0 m 501 376 l 357 376 l 357 224 l 433 231 q 651 309 564 244 q 738 486 738 374 q 653 667 738 613 q 436 722 569 722 l 357 722 l 357 571 l 500 571 q 556 515 556 571 l 556 431 q 501 376 556 376 z "},"đ":{"ha":774,"x_min":29,"x_max":794,"o":"m 656 -56 l 572 -56 q 517 0 517 -56 l 517 79 q 322 0 442 0 q 114 99 199 0 q 29 356 29 197 q 128 613 29 515 q 378 711 228 711 q 517 694 447 711 l 517 771 l 364 771 q 308 826 308 771 l 308 875 q 364 931 308 931 l 517 931 l 517 982 q 572 1038 517 1038 l 656 1038 q 711 982 711 1038 l 711 931 l 739 931 q 794 875 794 931 l 794 826 q 739 771 794 771 l 711 771 l 711 0 q 656 -56 711 -56 m 363 201 q 476 249 436 201 q 517 386 517 297 l 517 490 q 378 511 454 511 q 266 471 308 511 q 224 356 224 431 q 262 244 224 288 q 363 201 300 201 z "},"Ē":{"ha":731,"x_min":69,"x_max":688,"o":"m 546 1199 q 601 1143 601 1199 l 601 1094 q 546 1039 601 1039 l 226 1039 q 171 1094 171 1039 l 171 1143 q 226 1199 171 1199 l 546 1199 m 125 0 q 69 56 68 0 l 97 875 q 153 931 99 931 l 632 931 q 688 875 688 931 l 688 790 q 633 736 688 736 l 288 736 l 281 558 l 576 578 q 632 522 632 582 l 632 438 q 578 383 632 388 l 275 363 l 268 194 l 632 194 q 688 139 688 194 l 688 54 q 633 0 688 0 l 125 0 z "},"ē":{"ha":700,"x_min":29,"x_max":678,"o":"m 528 949 q 583 893 583 949 l 583 844 q 528 789 583 789 l 208 789 q 153 844 153 789 l 153 893 q 208 949 153 949 l 528 949 m 393 -17 q 128 84 228 -17 q 29 347 29 185 q 120 608 29 504 q 378 711 211 711 q 595 626 513 711 q 678 397 678 542 q 668 335 678 353 q 624 313 658 317 l 236 268 q 419 164 283 164 q 579 222 475 164 q 609 224 594 232 q 631 197 624 217 l 658 125 q 668 92 668 100 q 653 67 668 85 q 533 6 603 28 q 393 -17 463 -17 m 364 531 q 228 418 251 531 l 478 447 q 438 508 468 485 q 364 531 408 531 z "},"Ĕ":{"ha":731,"x_min":69,"x_max":688,"o":"m 310 1240 q 393 1171 319 1171 q 476 1240 467 1171 q 538 1288 483 1288 l 554 1288 q 622 1218 622 1288 q 562 1088 622 1136 q 393 1039 501 1039 q 224 1088 285 1039 q 164 1218 164 1136 q 232 1288 164 1288 l 249 1288 q 310 1240 303 1288 m 125 0 q 69 56 68 0 l 97 875 q 153 931 99 931 l 632 931 q 688 875 688 931 l 688 790 q 633 736 688 736 l 288 736 l 281 558 l 576 578 q 632 522 632 582 l 632 438 q 578 383 632 388 l 275 363 l 268 194 l 632 194 q 688 139 688 194 l 688 54 q 633 0 688 0 l 125 0 z "},"ĕ":{"ha":700,"x_min":29,"x_max":678,"o":"m 285 990 q 368 921 294 921 q 451 990 442 921 q 513 1038 458 1038 l 529 1038 q 597 968 597 1038 q 537 838 597 886 q 368 789 476 789 q 199 838 260 789 q 139 968 139 886 q 207 1038 139 1038 l 224 1038 q 285 990 278 1038 m 393 -17 q 128 84 228 -17 q 29 347 29 185 q 120 608 29 504 q 378 711 211 711 q 595 626 513 711 q 678 397 678 542 q 668 335 678 353 q 624 313 658 317 l 236 268 q 419 164 283 164 q 579 222 475 164 q 609 224 594 232 q 631 197 624 217 l 658 125 q 668 92 668 100 q 653 67 668 85 q 533 6 603 28 q 393 -17 463 -17 m 364 531 q 228 418 251 531 l 478 447 q 438 508 468 485 q 364 531 408 531 z "},"Ė":{"ha":731,"x_min":69,"x_max":688,"o":"m 485 1071 q 465 1051 485 1071 q 393 1032 446 1032 q 301 1071 340 1032 q 263 1164 263 1110 q 301 1256 263 1217 q 393 1294 340 1294 q 485 1256 446 1294 q 524 1164 524 1217 q 485 1071 524 1110 m 125 0 q 69 56 68 0 l 97 875 q 153 931 99 931 l 632 931 q 688 875 688 931 l 688 790 q 633 736 688 736 l 288 736 l 281 558 l 576 578 q 632 522 632 582 l 632 438 q 578 383 632 388 l 275 363 l 268 194 l 632 194 q 688 139 688 194 l 688 54 q 633 0 688 0 l 125 0 z "},"ė":{"ha":700,"x_min":29,"x_max":678,"o":"m 446 821 q 426 801 446 821 q 354 782 407 782 q 263 821 301 782 q 224 914 224 860 q 263 1006 224 967 q 354 1044 301 1044 q 446 1006 407 1044 q 485 914 485 967 q 446 821 485 860 m 393 -17 q 128 84 228 -17 q 29 347 29 185 q 120 608 29 504 q 378 711 211 711 q 595 626 513 711 q 678 397 678 542 q 668 335 678 353 q 624 313 658 317 l 236 268 q 419 164 283 164 q 579 222 475 164 q 609 224 594 232 q 631 197 624 217 l 658 125 q 668 92 668 100 q 653 67 668 85 q 533 6 603 28 q 393 -17 463 -17 m 364 531 q 228 418 251 531 l 478 447 q 438 508 468 485 q 364 531 408 531 z "},"Ę":{"ha":731,"x_min":69,"x_max":694,"o":"m 692 -250 q 535 -292 633 -292 q 421 -256 471 -292 q 371 -144 371 -219 q 457 0 371 -54 l 125 0 q 72 31 82 0 q 69 56 69 38 l 97 875 q 153 931 99 931 l 632 931 q 657 928 643 931 q 688 875 688 918 l 688 790 q 633 736 688 736 l 288 736 l 281 558 l 576 578 q 632 522 632 582 l 632 438 q 578 383 632 388 l 275 363 l 268 194 l 632 194 q 657 192 643 194 q 688 139 688 182 l 688 54 q 657 3 688 13 q 633 0 643 0 q 545 -25 576 0 q 514 -87 514 -50 q 532 -124 514 -111 q 572 -137 550 -137 q 643 -118 607 -137 q 661 -118 651 -114 q 674 -133 671 -122 l 694 -215 q 692 -250 703 -242 z "},"ę":{"ha":700,"x_min":29,"x_max":678,"o":"m 438 -292 q 319 -253 368 -292 q 269 -144 269 -215 q 335 -12 269 -67 q 112 103 194 6 q 29 347 29 200 q 120 608 29 504 q 378 711 211 711 q 595 626 513 711 q 678 397 678 542 q 668 335 678 353 q 624 313 658 317 l 236 268 q 419 164 283 164 q 579 222 475 164 q 609 224 594 232 q 631 197 624 217 l 658 125 q 668 92 668 100 q 653 67 668 85 q 483 -7 586 11 q 414 -85 414 -29 q 432 -124 414 -111 q 474 -137 450 -137 q 542 -118 507 -137 q 561 -117 551 -112 q 574 -133 571 -122 l 594 -215 q 588 -253 601 -243 q 438 -292 526 -292 m 364 531 q 228 418 251 531 l 478 447 q 438 508 468 485 q 364 531 408 531 z "},"Ě":{"ha":731,"x_min":69,"x_max":688,"o":"m 329 1039 q 253 1085 282 1039 l 158 1232 q 151 1272 143 1256 q 186 1288 158 1288 l 251 1288 q 319 1256 293 1288 l 392 1163 l 465 1256 q 533 1288 492 1288 l 600 1288 q 635 1272 628 1288 q 628 1232 643 1256 l 533 1085 q 457 1039 504 1039 l 329 1039 m 125 0 q 69 56 68 0 l 97 875 q 153 931 99 931 l 632 931 q 688 875 688 931 l 688 790 q 633 736 688 736 l 288 736 l 281 558 l 576 578 q 632 522 632 582 l 632 438 q 578 383 632 388 l 275 363 l 268 194 l 632 194 q 688 139 688 194 l 688 54 q 633 0 688 0 l 125 0 z "},"ě":{"ha":700,"x_min":29,"x_max":678,"o":"m 304 789 q 228 835 257 789 l 133 982 q 126 1022 118 1006 q 161 1038 133 1038 l 226 1038 q 294 1006 268 1038 l 367 913 l 440 1006 q 508 1038 467 1038 l 575 1038 q 610 1022 603 1038 q 603 982 618 1006 l 508 835 q 432 789 479 789 l 304 789 m 393 -17 q 128 84 228 -17 q 29 347 29 185 q 120 608 29 504 q 378 711 211 711 q 595 626 513 711 q 678 397 678 542 q 668 335 678 353 q 624 313 658 317 l 236 268 q 419 164 283 164 q 579 222 475 164 q 609 224 594 232 q 631 197 624 217 l 658 125 q 668 92 668 100 q 653 67 668 85 q 533 6 603 28 q 393 -17 463 -17 m 364 531 q 228 418 251 531 l 478 447 q 438 508 468 485 q 364 531 408 531 z "},"Ĝ":{"ha":924,"x_min":39,"x_max":849,"o":"m 568 1288 q 644 1242 615 1288 l 739 1094 q 747 1056 754 1072 q 711 1039 739 1039 l 646 1039 q 578 1071 604 1039 l 506 1164 l 432 1071 q 364 1039 406 1039 l 297 1039 q 262 1056 269 1039 q 269 1094 254 1072 l 364 1242 q 440 1288 393 1288 l 568 1288 m 849 -28 q 792 -81 849 -81 l 701 -81 q 647 -24 647 -81 l 647 36 q 488 0 575 0 q 160 130 282 0 q 39 479 39 260 q 167 819 39 690 q 507 947 294 947 q 810 864 675 947 q 818 813 833 849 l 776 710 q 717 689 761 669 q 507 739 603 739 q 310 667 379 739 q 240 479 240 594 q 313 272 240 350 q 524 194 385 194 q 647 214 593 194 l 647 335 l 501 328 q 478 331 485 328 q 447 382 447 340 l 447 474 q 503 529 447 528 l 793 543 q 818 540 811 543 q 849 488 849 531 l 849 -28 z "},"ĝ":{"ha":772,"x_min":28,"x_max":710,"o":"m 422 1038 q 499 992 469 1038 l 593 844 q 601 806 608 822 q 565 789 593 789 l 500 789 q 432 821 458 789 l 360 914 l 286 821 q 218 789 260 789 l 151 789 q 116 806 124 789 q 124 844 108 822 l 218 992 q 294 1038 247 1038 l 422 1038 m 385 -292 q 107 -212 206 -292 q 92 -185 92 -194 q 101 -154 92 -176 l 135 -71 q 186 -46 154 -26 q 382 -90 268 -90 q 515 32 515 -90 l 515 107 q 321 28 440 28 q 113 119 197 28 q 28 356 28 210 q 127 613 28 515 q 376 711 226 711 q 515 694 447 711 l 515 708 q 571 764 515 764 l 654 764 q 710 708 710 764 l 710 13 q 620 -217 710 -143 q 385 -292 531 -292 m 361 229 q 475 277 435 229 q 515 414 515 325 l 515 490 q 376 511 453 511 q 265 471 307 511 q 222 356 222 431 q 260 265 222 300 q 361 229 299 229 z "},"Ğ":{"ha":924,"x_min":39,"x_max":849,"o":"m 407 1240 q 490 1171 417 1171 q 574 1240 564 1171 q 635 1288 581 1288 l 651 1288 q 719 1218 719 1288 q 659 1088 719 1136 q 490 1039 599 1039 q 322 1088 382 1039 q 261 1218 261 1136 q 329 1288 261 1288 l 346 1288 q 407 1240 400 1288 m 849 -28 q 792 -81 849 -81 l 701 -81 q 647 -24 647 -81 l 647 36 q 488 0 575 0 q 160 130 282 0 q 39 479 39 260 q 167 819 39 690 q 507 947 294 947 q 810 864 675 947 q 818 813 833 849 l 776 710 q 717 689 761 669 q 507 739 603 739 q 310 667 379 739 q 240 479 240 594 q 313 272 240 350 q 524 194 385 194 q 647 214 593 194 l 647 335 l 501 328 q 478 331 485 328 q 447 382 447 340 l 447 474 q 503 529 447 528 l 793 543 q 818 540 811 543 q 849 488 849 531 l 849 -28 z "},"ğ":{"ha":772,"x_min":28,"x_max":710,"o":"m 297 990 q 381 921 307 921 q 464 990 454 921 q 525 1038 471 1038 l 542 1038 q 610 968 610 1038 q 549 838 610 886 q 381 789 489 789 q 212 838 272 789 q 151 968 151 886 q 219 1038 151 1038 l 236 1038 q 297 990 290 1038 m 385 -292 q 107 -212 206 -292 q 92 -185 92 -194 q 101 -154 92 -176 l 135 -71 q 186 -46 154 -26 q 382 -90 268 -90 q 515 32 515 -90 l 515 107 q 321 28 440 28 q 113 119 197 28 q 28 356 28 210 q 127 613 28 515 q 376 711 226 711 q 515 694 447 711 l 515 708 q 571 764 515 764 l 654 764 q 710 708 710 764 l 710 13 q 620 -217 710 -143 q 385 -292 531 -292 m 361 229 q 475 277 435 229 q 515 414 515 325 l 515 490 q 376 511 453 511 q 265 471 307 511 q 222 356 222 431 q 260 265 222 300 q 361 229 299 229 z "},"Ġ":{"ha":924,"x_min":39,"x_max":849,"o":"m 610 1071 q 590 1051 610 1071 q 518 1032 571 1032 q 426 1071 465 1032 q 388 1164 388 1110 q 426 1256 388 1217 q 518 1294 465 1294 q 610 1256 571 1294 q 649 1164 649 1217 q 610 1071 649 1110 m 849 -28 q 792 -81 849 -81 l 701 -81 q 647 -24 647 -81 l 647 36 q 488 0 575 0 q 160 130 282 0 q 39 479 39 260 q 167 819 39 690 q 507 947 294 947 q 810 864 675 947 q 818 813 833 849 l 776 710 q 717 689 761 669 q 507 739 603 739 q 310 667 379 739 q 240 479 240 594 q 313 272 240 350 q 524 194 385 194 q 647 214 593 194 l 647 335 l 501 328 q 478 331 485 328 q 447 382 447 340 l 447 474 q 503 529 447 528 l 793 543 q 818 540 811 543 q 849 488 849 531 l 849 -28 z "},"ġ":{"ha":772,"x_min":28,"x_max":710,"o":"m 450 821 q 431 801 450 821 q 358 782 411 782 q 267 821 306 782 q 228 914 228 860 q 267 1006 228 967 q 358 1044 306 1044 q 450 1006 411 1044 q 489 914 489 967 q 450 821 489 860 m 385 -292 q 107 -212 206 -292 q 92 -185 92 -194 q 101 -154 92 -176 l 135 -71 q 186 -46 154 -26 q 382 -90 268 -90 q 515 32 515 -90 l 515 107 q 321 28 440 28 q 113 119 197 28 q 28 356 28 210 q 127 613 28 515 q 376 711 226 711 q 515 694 447 711 l 515 708 q 571 764 515 764 l 654 764 q 710 708 710 764 l 710 13 q 620 -217 710 -143 q 385 -292 531 -292 m 361 229 q 475 277 435 229 q 515 414 515 325 l 515 490 q 376 511 453 511 q 265 471 307 511 q 222 356 222 431 q 260 265 222 300 q 361 229 299 229 z "},"Ģ":{"ha":924,"x_min":39,"x_max":849,"o":"m 849 -28 q 792 -81 849 -81 l 701 -81 q 647 -24 647 -81 l 647 36 q 488 0 575 0 q 160 130 282 0 q 39 479 39 260 q 167 819 39 690 q 507 947 294 947 q 810 864 675 947 q 818 813 833 849 l 776 710 q 717 689 761 669 q 507 739 603 739 q 310 667 379 739 q 240 479 240 594 q 313 272 240 350 q 524 194 385 194 q 647 214 593 194 l 647 335 l 501 328 q 478 331 485 328 q 447 382 447 340 l 447 474 q 503 529 447 528 l 793 543 q 818 540 811 543 q 849 488 849 531 l 849 -28 m 454 -303 q 421 -347 436 -335 q 378 -358 406 -358 l 306 -358 q 265 -346 275 -358 q 264 -303 256 -333 l 304 -156 q 328 -119 313 -128 q 381 -110 343 -110 l 500 -110 q 529 -165 560 -110 l 454 -303 z "},"ģ":{"ha":772,"x_min":28,"x_max":710,"o":"m 325 982 q 360 1026 343 1014 q 408 1038 378 1038 l 488 1038 q 529 1025 519 1038 q 529 982 539 1013 l 482 835 q 458 798 472 807 q 413 789 444 789 l 279 789 q 250 844 219 789 l 325 982 m 385 -292 q 107 -212 206 -292 q 92 -185 92 -194 q 101 -154 92 -176 l 135 -71 q 186 -46 154 -26 q 382 -90 268 -90 q 515 32 515 -90 l 515 107 q 321 28 440 28 q 113 119 197 28 q 28 356 28 210 q 127 613 28 515 q 376 711 226 711 q 515 694 447 711 l 515 708 q 571 764 515 764 l 654 764 q 710 708 710 764 l 710 13 q 620 -217 710 -143 q 385 -292 531 -292 m 361 229 q 475 277 435 229 q 515 414 515 325 l 515 490 q 376 511 453 511 q 265 471 307 511 q 222 356 222 431 q 260 265 222 300 q 361 229 299 229 z "},"Ĥ":{"ha":922,"x_min":83,"x_max":839,"o":"m 525 1288 q 601 1242 572 1288 l 696 1094 q 703 1056 711 1072 q 668 1039 696 1039 l 603 1039 q 535 1071 561 1039 l 463 1164 l 389 1071 q 321 1039 363 1039 l 254 1039 q 219 1056 226 1039 q 226 1094 211 1072 l 321 1242 q 397 1288 350 1288 l 525 1288 m 783 -28 l 693 -28 q 638 28 638 -28 l 638 379 l 285 354 l 285 56 q 229 0 285 0 l 139 0 q 83 56 83 0 l 83 903 q 139 958 83 958 l 229 958 q 285 903 285 958 l 285 556 l 638 581 l 638 875 q 693 931 638 931 l 783 931 q 839 875 839 931 l 839 28 q 783 -28 839 -28 z "},"ĥ":{"ha":763,"x_min":-83,"x_max":710,"o":"m 224 1286 q 300 1240 271 1286 l 394 1093 q 402 1053 410 1069 q 367 1038 394 1038 l 301 1038 q 233 1069 260 1038 l 161 1163 l 88 1069 q 19 1038 61 1038 l -47 1038 q -83 1053 -75 1038 q -75 1093 -90 1069 l 19 1240 q 96 1286 49 1286 l 224 1286 m 257 56 q 201 0 257 0 l 118 0 q 63 56 63 0 l 63 917 q 118 972 63 972 l 201 972 q 257 917 257 972 l 257 590 q 354 680 294 649 q 475 711 414 711 q 646 639 582 711 q 710 422 710 567 l 710 28 q 654 -28 710 -28 l 571 -28 q 515 28 515 -28 l 515 360 q 408 510 515 510 q 297 464 338 510 q 257 325 257 418 l 257 56 z "},"Ħ":{"ha":922,"x_min":0,"x_max":922,"o":"m 783 -28 l 693 -28 q 638 28 638 -28 l 638 379 l 285 354 l 285 56 q 229 0 285 0 l 139 0 q 83 56 83 0 l 83 631 l 56 629 q 0 685 0 625 l 0 733 q 56 789 0 785 l 83 790 l 83 903 q 139 958 83 958 l 229 958 q 285 903 285 958 l 285 804 l 638 829 l 638 875 q 693 931 638 931 l 783 931 q 839 875 839 931 l 839 843 l 867 844 q 922 789 922 849 l 922 740 q 867 685 922 689 l 839 683 l 839 28 q 783 -28 839 -28 m 285 556 l 638 581 l 638 669 l 285 644 l 285 556 z "},"ħ":{"ha":763,"x_min":-21,"x_max":710,"o":"m 257 56 q 201 0 257 0 l 118 0 q 63 56 63 0 l 63 771 l 35 771 q -21 826 -21 771 l -21 875 q 35 931 -21 931 l 63 931 l 63 982 q 118 1038 63 1038 l 201 1038 q 257 982 257 1038 l 257 931 l 410 931 q 465 875 465 931 l 465 826 q 410 771 465 771 l 257 771 l 257 590 q 354 680 294 649 q 475 711 414 711 q 646 639 582 711 q 710 422 710 567 l 710 28 q 654 -28 710 -28 l 571 -28 q 515 28 515 -28 l 515 360 q 408 510 515 510 q 297 464 338 510 q 257 325 257 418 l 257 56 z "},"Ĩ":{"ha":368,"x_min":-33,"x_max":400,"o":"m 264 1039 q 188 1051 238 1039 q 113 1064 139 1064 q 21 1044 74 1064 q -33 1078 -33 1024 l -33 1146 q 8 1206 -33 1190 q 103 1224 57 1224 q 182 1211 133 1224 q 254 1199 231 1199 q 346 1218 293 1199 q 400 1185 400 1239 l 400 1117 q 358 1057 400 1072 q 264 1039 310 1039 m 285 28 q 229 -28 285 -28 l 139 -28 q 83 28 83 -28 l 83 903 q 139 958 83 958 l 229 958 q 285 903 285 958 l 285 28 z "},"ĩ":{"ha":319,"x_min":-57,"x_max":376,"o":"m 240 789 q 165 801 214 789 q 89 814 115 814 q -3 794 50 814 q -57 828 -57 774 l -57 896 q -15 956 -57 940 q 79 974 33 974 q 158 961 110 974 q 231 949 207 949 q 322 968 269 949 q 376 935 376 989 l 376 867 q 335 807 376 822 q 240 789 286 789 m 257 56 q 201 0 257 0 l 118 0 q 63 56 63 0 l 63 611 q 118 667 63 667 l 201 667 q 257 611 257 667 l 257 56 z "},"Ī":{"ha":368,"x_min":-33,"x_max":397,"o":"m 342 1199 q 397 1143 397 1199 l 397 1094 q 342 1039 397 1039 l 22 1039 q -33 1094 -33 1039 l -33 1143 q 22 1199 -33 1199 l 342 1199 m 285 28 q 229 -28 285 -28 l 139 -28 q 83 28 83 -28 l 83 903 q 139 958 83 958 l 229 958 q 285 903 285 958 l 285 28 z "},"ī":{"ha":319,"x_min":-56,"x_max":375,"o":"m 319 949 q 375 893 375 949 l 375 844 q 319 789 375 789 l 0 789 q -56 844 -56 789 l -56 893 q 0 949 -56 949 l 319 949 m 257 56 q 201 0 257 0 l 118 0 q 63 56 63 0 l 63 611 q 118 667 63 667 l 201 667 q 257 611 257 667 l 257 56 z "},"Ĭ":{"ha":368,"x_min":-46,"x_max":413,"o":"m 100 1240 q 183 1171 110 1171 q 267 1240 257 1171 q 328 1288 274 1288 l 344 1288 q 413 1218 413 1288 q 352 1088 413 1136 q 183 1039 292 1039 q 15 1088 75 1039 q -46 1218 -46 1136 q 22 1288 -46 1288 l 39 1288 q 100 1240 93 1288 m 285 28 q 229 -28 285 -28 l 139 -28 q 83 28 83 -28 l 83 903 q 139 958 83 958 l 229 958 q 285 903 285 958 l 285 28 z "},"ĭ":{"ha":319,"x_min":-69,"x_max":389,"o":"m 76 990 q 160 921 86 921 q 243 990 233 921 q 304 1038 250 1038 l 321 1038 q 389 968 389 1038 q 328 838 389 886 q 160 789 268 789 q -9 838 51 789 q -69 968 -69 886 q -1 1038 -69 1038 l 15 1038 q 76 990 69 1038 m 257 56 q 201 0 257 0 l 118 0 q 63 56 63 0 l 63 611 q 118 667 63 667 l 201 667 q 257 611 257 667 l 257 56 z "},"Į":{"ha":368,"x_min":-26,"x_max":297,"o":"m 294 -278 q 138 -319 236 -319 q 24 -283 74 -319 q -26 -172 -26 -247 q 6 -73 -26 -117 q 90 -4 38 -29 q 83 28 83 10 l 83 903 q 86 928 83 914 q 139 958 96 958 l 229 958 q 282 928 272 958 q 285 903 285 914 l 285 28 q 282 3 285 17 q 229 -28 272 -28 q 146 -53 175 -28 q 117 -115 117 -78 q 135 -152 117 -139 q 175 -165 153 -165 q 246 -146 210 -165 q 264 -146 254 -142 q 276 -161 274 -150 l 297 -243 q 294 -278 306 -269 z "},"į":{"ha":319,"x_min":-61,"x_max":278,"o":"m 243 798 q 226 780 243 798 q 160 763 208 763 q 76 798 111 763 q 42 882 42 833 q 76 965 42 931 q 160 1000 111 1000 q 243 965 208 1000 q 278 882 278 931 q 243 798 278 833 m 260 -250 q 103 -292 199 -292 q -11 -256 39 -292 q -61 -144 -61 -219 q -26 -41 -61 -86 q 67 28 10 4 q 63 56 63 39 l 63 611 q 118 667 63 667 l 201 667 q 257 611 257 667 l 257 56 q 201 0 257 0 q 113 -25 144 0 q 82 -87 82 -50 q 100 -124 82 -111 q 140 -137 118 -137 q 211 -118 175 -137 q 229 -118 219 -114 q 242 -133 239 -122 l 247 -154 l 263 -215 q 260 -250 271 -242 z "},"İ":{"ha":368,"x_min":53,"x_max":314,"o":"m 275 1071 q 256 1051 275 1071 q 183 1032 236 1032 q 92 1071 131 1032 q 53 1164 53 1110 q 92 1256 53 1217 q 183 1294 131 1294 q 275 1256 236 1294 q 314 1164 314 1217 q 275 1071 314 1110 m 285 28 q 229 -28 285 -28 l 139 -28 q 83 28 83 -28 l 83 903 q 139 958 83 958 l 229 958 q 285 903 285 958 l 285 28 z "},"ı":{"ha":317,"x_min":61,"x_max":256,"o":"m 256 56 q 200 0 256 0 l 117 0 q 61 56 61 0 l 61 611 q 117 667 61 667 l 200 667 q 256 611 256 667 l 256 56 z "},"Ĳ":{"ha":1164,"x_min":83,"x_max":1147,"o":"m 657 -17 q 400 60 533 -17 q 392 111 376 74 l 433 214 q 493 235 450 256 q 654 192 581 192 q 749 237 717 192 q 782 392 782 282 l 782 749 l 515 736 q 475 749 489 735 q 461 790 461 763 l 461 875 q 517 931 461 929 l 1092 958 q 1133 945 1119 960 q 1147 903 1147 931 l 1147 818 q 1093 764 1147 767 l 983 758 l 983 281 q 894 58 983 132 q 657 -17 804 -17 m 285 28 q 229 -28 285 -28 l 139 -28 q 83 28 83 -28 l 83 903 q 139 958 83 958 l 229 958 q 285 903 285 958 l 285 28 z "},"ĳ":{"ha":633,"x_min":42,"x_max":592,"o":"m 243 798 q 226 780 243 798 q 160 763 208 763 q 76 798 111 763 q 42 882 42 833 q 76 965 42 931 q 160 1000 111 1000 q 243 965 208 1000 q 278 882 278 931 q 243 798 278 833 m 557 770 q 540 752 557 770 q 474 735 522 735 q 390 770 425 735 q 356 854 356 806 q 390 938 356 903 q 474 972 425 972 q 557 938 522 972 q 592 854 592 903 q 557 770 592 806 m 257 56 q 201 0 257 0 l 118 0 q 63 56 63 0 l 63 611 q 118 667 63 667 l 201 667 q 257 611 257 667 l 257 56 m 292 -308 q 188 -293 243 -308 q 149 -272 158 -286 q 150 -233 140 -258 l 189 -131 q 233 -99 201 -93 q 293 -107 278 -107 q 356 -78 336 -107 q 376 29 376 -49 l 376 597 q 418 639 376 639 l 529 639 q 571 597 571 639 l 571 -4 q 502 -228 571 -149 q 292 -308 433 -308 z "},"Ĵ":{"ha":796,"x_min":24,"x_max":779,"o":"m 578 1288 q 654 1242 625 1288 l 749 1094 q 756 1056 764 1072 q 721 1039 749 1039 l 656 1039 q 588 1071 614 1039 l 515 1164 l 442 1071 q 374 1039 415 1039 l 307 1039 q 272 1056 279 1039 q 279 1094 264 1072 l 374 1242 q 450 1288 403 1288 l 578 1288 m 289 -17 q 32 60 165 -17 q 24 111 8 74 l 65 214 q 125 235 82 256 q 286 192 213 192 q 381 237 349 192 q 414 392 414 282 l 414 749 l 147 736 q 107 749 121 735 q 93 790 93 763 l 93 875 q 149 931 93 929 l 724 958 q 765 945 751 960 q 779 903 779 931 l 779 818 q 725 764 779 767 l 615 758 l 615 281 q 526 58 615 132 q 289 -17 436 -17 z "},"ĵ":{"ha":317,"x_min":-168,"x_max":399,"o":"m 219 1038 q 296 992 267 1038 l 390 844 q 398 806 406 822 q 363 789 390 789 l 297 789 q 229 821 256 789 l 157 914 l 83 821 q 15 789 57 789 l -51 789 q -87 806 -79 789 q -79 844 -94 822 l 15 992 q 92 1038 44 1038 l 219 1038 m -25 -308 q -129 -293 -74 -308 q -167 -272 -158 -286 q -167 -233 -176 -258 l -128 -131 q -83 -99 -115 -93 q -24 -107 -39 -107 q 40 -78 19 -107 q 60 29 60 -49 l 60 653 q 101 694 60 694 l 213 694 q 254 653 254 694 l 254 -4 q 185 -228 254 -149 q -25 -308 117 -308 z "},"Ķ":{"ha":857,"x_min":83,"x_max":821,"o":"m 714 -12 q 701 -15 707 -14 q 690 -16 694 -15 q 680 -15 685 -17 q 672 -12 675 -12 q 665 -8 669 -12 q 659 -2 661 -4 q 652 6 657 0 q 645 16 647 13 q 636 29 643 19 q 626 43 629 39 l 393 392 l 285 285 l 285 56 q 229 0 285 0 l 139 0 q 83 56 83 0 l 83 847 q 139 903 83 903 l 229 903 q 285 847 285 903 l 285 558 l 654 924 q 733 929 694 964 l 794 874 q 803 796 840 832 l 532 528 q 551 497 540 514 l 821 82 q 782 1 863 19 l 714 -12 m 475 -303 q 442 -347 457 -335 q 399 -358 426 -358 l 326 -358 q 286 -346 296 -358 q 285 -303 276 -333 l 325 -156 q 349 -119 333 -128 q 401 -110 364 -110 l 521 -110 q 550 -165 581 -110 l 475 -303 z "},"ķ":{"ha":700,"x_min":63,"x_max":672,"o":"m 574 -14 q 528 -12 540 -21 q 490 39 515 -3 l 335 297 l 257 226 l 257 56 q 201 0 257 0 l 118 0 q 63 56 63 0 l 63 917 q 118 972 63 972 l 201 972 q 257 917 257 972 l 257 493 l 503 719 q 578 724 544 757 l 642 661 q 650 588 685 618 l 472 424 l 672 76 q 635 -1 710 14 l 574 -14 m 411 -303 q 378 -347 393 -335 q 335 -358 363 -358 l 263 -358 q 222 -346 232 -358 q 221 -303 213 -333 l 261 -156 q 285 -119 269 -128 q 338 -110 300 -110 l 457 -110 q 486 -165 517 -110 l 411 -303 z "},"Ĺ":{"ha":679,"x_min":83,"x_max":660,"o":"m 307 1094 q 224 1039 264 1039 l 144 1039 q 117 1094 93 1039 l 183 1242 q 260 1288 204 1288 l 400 1288 q 431 1272 428 1288 q 415 1232 433 1256 l 307 1094 m 606 1 l 139 28 q 83 82 83 28 l 83 875 q 139 931 83 931 l 229 931 q 285 875 285 931 l 285 214 l 604 196 q 660 140 660 192 l 660 56 q 646 14 660 28 q 606 1 632 0 z "},"ĺ":{"ha":326,"x_min":63,"x_max":407,"o":"m 283 1121 q 200 1065 240 1065 l 121 1065 q 93 1121 69 1065 l 160 1268 q 236 1314 181 1314 l 376 1314 q 407 1297 404 1314 q 392 1258 410 1281 l 283 1121 m 264 56 q 208 0 264 0 l 118 0 q 63 56 63 0 l 63 944 q 118 1000 63 1000 l 208 1000 q 264 944 264 1000 l 264 56 z "},"Ļ":{"ha":679,"x_min":83,"x_max":660,"o":"m 606 1 l 139 28 q 83 82 83 28 l 83 875 q 139 931 83 931 l 229 931 q 285 875 285 931 l 285 214 l 604 196 q 660 140 660 192 l 660 56 q 646 14 660 28 q 606 1 632 0 m 400 -303 q 367 -347 382 -335 q 324 -358 351 -358 l 251 -358 q 211 -346 221 -358 q 210 -303 201 -333 l 250 -156 q 274 -119 258 -128 q 326 -110 289 -110 l 446 -110 q 475 -165 506 -110 l 400 -303 z "},"ļ":{"ha":326,"x_min":-8,"x_max":264,"o":"m 264 56 q 208 0 264 0 l 118 0 q 63 56 63 0 l 63 944 q 118 1000 63 1000 l 208 1000 q 264 944 264 1000 l 264 56 m 182 -303 q 149 -347 164 -335 q 106 -358 133 -358 l 33 -358 q -7 -346 3 -358 q -8 -303 -17 -333 l 32 -156 q 56 -119 40 -128 q 108 -110 71 -110 l 228 -110 q 257 -165 288 -110 l 182 -303 z "},"Ľ":{"ha":679,"x_min":83,"x_max":660,"o":"m 606 1 l 139 28 q 83 82 83 28 l 83 875 q 139 931 83 931 l 229 931 q 285 875 285 931 l 285 214 l 604 196 q 660 140 660 192 l 660 56 q 646 14 660 28 q 606 1 632 0 m 508 738 q 485 693 500 704 q 439 682 469 682 l 381 682 q 347 694 356 682 q 339 738 339 706 l 339 885 q 349 922 339 913 q 388 931 358 931 l 514 931 q 546 919 540 931 q 543 875 551 908 l 508 738 z "},"ľ":{"ha":326,"x_min":63,"x_max":526,"o":"m 264 56 q 208 0 264 0 l 118 0 q 63 56 63 0 l 63 944 q 118 1000 63 1000 l 208 1000 q 264 944 264 1000 l 264 56 m 489 807 q 465 763 481 774 q 419 751 450 751 l 361 751 q 328 763 336 751 q 319 807 319 775 l 319 954 q 329 991 319 982 q 368 1000 339 1000 l 494 1000 q 526 989 521 1000 q 524 944 532 978 l 489 807 z "},"Ŀ":{"ha":679,"x_min":83,"x_max":660,"o":"m 606 1 l 139 28 q 83 82 83 28 l 83 875 q 139 931 83 931 l 229 931 q 285 875 285 931 l 285 214 l 604 196 q 660 140 660 192 l 660 56 q 646 14 660 28 q 606 1 632 0 m 614 399 q 594 379 614 399 q 522 360 575 360 q 431 399 469 360 q 392 492 392 438 q 431 583 392 544 q 522 622 469 622 q 614 583 575 622 q 653 492 653 544 q 614 399 653 438 z "},"ŀ":{"ha":574,"x_min":63,"x_max":581,"o":"m 264 56 q 208 0 264 0 l 118 0 q 63 56 63 0 l 63 944 q 118 1000 63 1000 l 208 1000 q 264 944 264 1000 l 264 56 m 542 399 q 522 379 542 399 q 450 360 503 360 q 358 399 397 360 q 319 492 319 438 q 358 583 319 544 q 450 622 397 622 q 542 583 503 622 q 581 492 581 544 q 542 399 581 438 z "},"Ł":{"ha":765,"x_min":21,"x_max":746,"o":"m 692 1 l 225 28 q 172 58 182 28 q 169 82 169 64 q 171 107 169 99 l 181 385 l 75 369 q 35 381 49 365 q 21 424 21 396 l 21 508 q 34 547 21 535 q 76 564 47 560 l 188 581 l 197 875 q 201 900 197 889 q 253 931 211 931 l 343 931 q 396 900 386 931 q 399 875 399 893 l 389 611 l 542 633 q 583 622 569 638 q 597 578 597 607 l 597 493 q 584 455 597 467 q 543 439 571 443 l 382 415 l 375 210 l 690 196 q 715 192 706 196 q 746 140 746 182 l 746 56 q 743 32 746 46 q 692 1 732 0 z "},"ł":{"ha":535,"x_min":19,"x_max":515,"o":"m 313 0 l 222 0 q 167 56 167 0 l 167 386 l 74 369 q 33 380 47 364 q 19 424 19 396 l 19 508 q 32 547 19 535 q 75 564 44 558 l 167 581 l 167 944 q 222 1000 167 1000 l 313 1000 q 368 944 368 1000 l 368 617 l 460 633 q 501 623 488 639 q 515 578 515 607 l 515 493 q 503 456 515 467 q 461 439 490 444 l 368 422 l 368 56 q 313 0 368 0 z "},"Ń":{"ha":943,"x_min":83,"x_max":888,"o":"m 579 1094 q 496 1039 536 1039 l 417 1039 q 389 1094 365 1039 l 456 1242 q 532 1288 476 1288 l 672 1288 q 703 1272 700 1288 q 688 1232 706 1256 l 579 1094 m 285 28 q 229 -28 285 -28 l 139 -28 q 83 28 83 -28 l 83 847 q 139 903 83 903 l 229 903 q 260 897 250 903 l 261 896 l 263 894 q 265 894 264 894 l 267 893 l 272 888 l 276 883 l 278 881 l 649 326 l 686 875 q 742 931 690 931 l 832 931 q 888 875 892 931 l 832 56 q 776 0 828 0 l 686 0 q 642 15 657 0 q 638 19 640 17 q 635 24 636 22 l 285 546 l 285 28 z "},"ń":{"ha":763,"x_min":63,"x_max":710,"o":"m 544 844 q 461 789 501 789 l 382 789 q 354 844 331 789 l 421 992 q 497 1038 442 1038 l 638 1038 q 668 1022 665 1038 q 653 982 671 1006 l 544 844 m 257 28 q 201 -28 257 -28 l 118 -28 q 63 28 63 -28 l 63 694 q 118 750 63 750 l 201 750 q 257 694 257 750 l 257 590 q 354 680 294 649 q 475 711 414 711 q 646 639 582 711 q 710 422 710 567 l 710 56 q 654 0 710 0 l 571 0 q 515 56 515 0 l 515 360 q 408 510 515 510 q 297 464 338 510 q 257 325 257 418 l 257 28 z "},"Ņ":{"ha":943,"x_min":83,"x_max":888,"o":"m 285 28 q 229 -28 285 -28 l 139 -28 q 83 28 83 -28 l 83 847 q 139 903 83 903 l 229 903 q 260 897 250 903 l 261 896 l 263 894 q 265 894 264 894 l 267 893 l 272 888 l 276 883 l 278 881 l 649 326 l 686 875 q 742 931 690 931 l 832 931 q 888 875 892 931 l 832 56 q 776 0 828 0 l 686 0 q 642 15 657 0 q 638 19 640 17 q 635 24 636 22 l 285 546 l 285 28 m 506 -303 q 472 -347 488 -335 q 429 -358 457 -358 l 357 -358 q 317 -346 326 -358 q 315 -303 307 -333 l 356 -156 q 379 -119 364 -128 q 432 -110 394 -110 l 551 -110 q 581 -165 611 -110 l 506 -303 z "},"ņ":{"ha":763,"x_min":63,"x_max":710,"o":"m 257 28 q 201 -28 257 -28 l 118 -28 q 63 28 63 -28 l 63 694 q 118 750 63 750 l 201 750 q 257 694 257 750 l 257 590 q 354 680 294 649 q 475 711 414 711 q 646 639 582 711 q 710 422 710 567 l 710 56 q 654 0 710 0 l 571 0 q 515 56 515 0 l 515 360 q 408 510 515 510 q 297 464 338 510 q 257 325 257 418 l 257 28 m 429 -303 q 396 -347 411 -335 q 353 -358 381 -358 l 281 -358 q 240 -346 250 -358 q 239 -303 231 -333 l 279 -156 q 303 -119 288 -128 q 356 -110 318 -110 l 475 -110 q 504 -165 535 -110 l 429 -303 z "},"Ň":{"ha":943,"x_min":83,"x_max":888,"o":"m 408 1039 q 332 1085 361 1039 l 238 1232 q 230 1272 222 1256 q 265 1288 238 1288 l 331 1288 q 399 1256 372 1288 l 471 1163 l 544 1256 q 613 1288 571 1288 l 679 1288 q 715 1272 707 1288 q 707 1232 722 1256 l 613 1085 q 536 1039 583 1039 l 408 1039 m 285 28 q 229 -28 285 -28 l 139 -28 q 83 28 83 -28 l 83 847 q 139 903 83 903 l 229 903 q 260 897 250 903 l 261 896 l 263 894 q 265 894 264 894 l 267 893 l 272 888 l 276 883 l 278 881 l 649 326 l 686 875 q 742 931 690 931 l 832 931 q 888 875 892 931 l 832 56 q 776 0 828 0 l 686 0 q 642 15 657 0 q 638 19 640 17 q 635 24 636 22 l 285 546 l 285 28 z "},"ň":{"ha":763,"x_min":63,"x_max":710,"o":"m 388 789 q 311 835 340 789 l 217 982 q 209 1022 201 1006 q 244 1038 217 1038 l 310 1038 q 378 1006 351 1038 l 450 913 l 524 1006 q 592 1038 550 1038 l 658 1038 q 694 1022 686 1038 q 686 982 701 1006 l 592 835 q 515 789 563 789 l 388 789 m 257 28 q 201 -28 257 -28 l 118 -28 q 63 28 63 -28 l 63 694 q 118 750 63 750 l 201 750 q 257 694 257 750 l 257 590 q 354 680 294 649 q 475 711 414 711 q 646 639 582 711 q 710 422 710 567 l 710 56 q 654 0 710 0 l 571 0 q 515 56 515 0 l 515 360 q 408 510 515 510 q 297 464 338 510 q 257 325 257 418 l 257 28 z "},"Ō":{"ha":1025,"x_min":39,"x_max":986,"o":"m 665 1199 q 721 1143 721 1199 l 721 1094 q 665 1039 721 1039 l 346 1039 q 290 1094 290 1039 l 290 1143 q 346 1199 290 1199 l 665 1199 m 855 104 q 790 37 855 104 q 511 -31 725 -31 q 168 105 297 -31 q 39 465 39 240 q 169 825 39 689 q 514 961 299 961 q 855 825 726 961 q 986 465 983 689 q 855 104 985 239 m 514 178 q 712 257 642 178 q 785 465 782 336 q 711 673 782 593 q 513 753 640 753 q 311 673 382 753 q 240 465 240 593 q 311 257 240 336 q 514 178 382 178 z "},"ō":{"ha":756,"x_min":29,"x_max":726,"o":"m 538 949 q 593 893 593 949 l 593 844 q 538 789 593 789 l 218 789 q 163 844 163 789 l 163 893 q 218 949 163 949 l 538 949 m 632 85 q 585 34 632 85 q 378 -17 538 -17 q 124 85 218 -17 q 29 347 29 188 q 124 609 29 507 q 378 711 218 711 q 632 609 538 711 q 726 347 726 507 q 632 85 726 188 m 266 224 q 287 205 266 224 q 378 185 308 185 q 490 224 447 185 q 532 347 532 264 q 490 470 532 431 q 378 510 447 510 q 266 470 308 510 q 224 347 224 431 q 266 224 224 264 z "},"Ŏ":{"ha":1025,"x_min":39,"x_max":986,"o":"m 429 1240 q 513 1171 439 1171 q 596 1240 586 1171 q 657 1288 603 1288 l 674 1288 q 742 1218 742 1288 q 681 1088 742 1136 q 513 1039 621 1039 q 344 1088 404 1039 q 283 1218 283 1136 q 351 1288 283 1288 l 368 1288 q 429 1240 422 1288 m 855 104 q 790 37 855 104 q 511 -31 725 -31 q 168 105 297 -31 q 39 465 39 240 q 169 825 39 689 q 514 961 299 961 q 855 825 726 961 q 986 465 983 689 q 855 104 985 239 m 514 178 q 712 257 642 178 q 785 465 782 336 q 711 673 782 593 q 513 753 640 753 q 311 673 382 753 q 240 465 240 593 q 311 257 240 336 q 514 178 382 178 z "},"ŏ":{"ha":756,"x_min":29,"x_max":726,"o":"m 294 990 q 378 921 304 921 q 461 990 451 921 q 522 1038 468 1038 l 539 1038 q 607 968 607 1038 q 547 838 607 886 q 378 789 486 789 q 209 838 269 789 q 149 968 149 886 q 217 1038 149 1038 l 233 1038 q 294 990 288 1038 m 632 85 q 585 34 632 85 q 378 -17 538 -17 q 124 85 218 -17 q 29 347 29 188 q 124 609 29 507 q 378 711 218 711 q 632 609 538 711 q 726 347 726 507 q 632 85 726 188 m 266 224 q 287 205 266 224 q 378 185 308 185 q 490 224 447 185 q 532 347 532 264 q 490 470 532 431 q 378 510 447 510 q 266 470 308 510 q 224 347 224 431 q 266 224 224 264 z "},"Ő":{"ha":1025,"x_min":39,"x_max":986,"o":"m 493 1094 q 410 1039 467 1039 l 358 1039 q 318 1051 328 1039 q 317 1094 308 1064 l 356 1242 q 377 1278 363 1269 q 425 1288 392 1288 l 531 1288 q 568 1276 561 1288 q 560 1232 575 1264 l 493 1094 m 754 1094 q 671 1039 728 1039 l 619 1039 q 579 1051 589 1039 q 578 1094 569 1064 l 617 1242 q 638 1278 624 1269 q 685 1288 653 1288 l 792 1288 q 829 1276 822 1288 q 821 1232 836 1264 l 754 1094 m 855 104 q 790 37 855 104 q 511 -31 725 -31 q 168 105 297 -31 q 39 465 39 240 q 169 825 39 689 q 514 961 299 961 q 855 825 726 961 q 986 465 983 689 q 855 104 985 239 m 514 178 q 712 257 642 178 q 785 465 782 336 q 711 673 782 593 q 513 753 640 753 q 311 673 382 753 q 240 465 240 593 q 311 257 240 336 q 514 178 382 178 z "},"ő":{"ha":756,"x_min":29,"x_max":726,"o":"m 344 844 q 261 789 318 789 l 210 789 q 169 801 179 789 q 168 844 160 814 l 207 992 q 228 1028 214 1019 q 276 1038 243 1038 l 382 1038 q 419 1026 413 1038 q 411 982 426 1014 l 344 844 m 606 844 q 522 789 579 789 l 471 789 q 431 801 440 789 q 429 844 421 814 l 468 992 q 490 1028 475 1019 q 536 1038 504 1038 l 643 1038 q 681 1026 674 1038 q 672 982 688 1014 l 606 844 m 632 85 q 585 34 632 85 q 378 -17 538 -17 q 124 85 218 -17 q 29 347 29 188 q 124 609 29 507 q 378 711 218 711 q 632 609 538 711 q 726 347 726 507 q 632 85 726 188 m 266 224 q 287 205 266 224 q 378 185 308 185 q 490 224 447 185 q 532 347 532 264 q 490 470 532 431 q 378 510 447 510 q 266 470 308 510 q 224 347 224 431 q 266 224 224 264 z "},"Œ":{"ha":1274,"x_min":39,"x_max":1231,"o":"m 1175 0 l 511 0 q 168 126 297 0 q 39 465 39 253 q 169 803 39 676 q 514 931 299 931 l 1174 931 q 1229 875 1229 931 l 1229 790 q 1175 736 1229 736 l 815 732 l 808 557 l 1117 578 q 1172 522 1172 582 l 1172 438 q 1118 383 1172 388 l 801 363 l 796 199 l 1176 194 q 1231 140 1231 194 l 1231 56 q 1175 0 1231 0 m 514 201 l 603 200 l 619 731 l 513 729 q 301 655 375 728 q 226 465 226 582 q 301 275 226 347 q 514 201 375 203 z "},"œ":{"ha":1203,"x_min":29,"x_max":1181,"o":"m 896 -17 q 631 86 729 -17 q 378 -17 535 -17 q 124 85 218 -17 q 29 347 29 188 q 124 609 29 507 q 378 711 218 711 q 628 611 532 711 q 881 711 721 711 q 1098 626 1015 711 q 1181 397 1181 542 q 1171 335 1181 353 q 1126 313 1161 317 l 739 268 q 922 164 786 164 q 1082 222 978 164 q 1112 224 1097 232 q 1133 197 1126 217 l 1161 125 q 1171 92 1171 100 q 1156 67 1171 85 q 1035 6 1106 28 q 896 -17 965 -17 m 867 531 q 731 418 754 531 l 981 447 q 941 508 971 485 q 867 531 911 531 m 266 224 q 287 205 266 224 q 378 185 308 185 q 490 224 447 185 q 532 347 532 264 q 490 470 532 431 q 378 510 447 510 q 266 470 308 510 q 224 347 224 431 q 266 224 224 264 z "},"Ŕ":{"ha":825,"x_min":83,"x_max":785,"o":"m 519 1094 q 436 1039 476 1039 l 357 1039 q 329 1094 306 1039 l 396 1242 q 472 1288 417 1288 l 613 1288 q 643 1272 640 1288 q 628 1232 646 1256 l 519 1094 m 685 -40 q 637 -40 650 -49 q 597 15 624 -31 l 451 267 q 358 261 413 261 l 285 261 l 285 56 q 229 0 285 0 l 139 0 q 83 56 83 0 l 83 875 q 139 931 83 931 l 358 931 q 664 847 558 931 q 769 596 769 764 q 636 325 769 410 l 785 54 q 746 -26 819 -11 l 685 -40 m 364 722 l 285 722 l 285 469 l 364 469 q 568 596 568 469 q 364 722 568 722 z "},"ŕ":{"ha":546,"x_min":63,"x_max":532,"o":"m 282 886 q 199 831 239 831 l 119 831 q 92 886 68 831 l 158 1033 q 235 1079 179 1079 l 375 1079 q 406 1063 403 1079 q 390 1024 408 1047 l 282 886 m 257 56 q 201 0 257 0 l 118 0 q 63 56 63 0 l 63 708 q 118 764 63 764 l 201 764 q 257 708 257 764 l 257 593 q 340 680 290 649 q 439 711 389 711 q 519 693 490 711 q 532 667 535 683 l 518 507 q 481 485 517 476 q 392 496 429 496 q 294 451 332 496 q 257 325 257 407 l 257 56 z "},"Ŗ":{"ha":825,"x_min":83,"x_max":785,"o":"m 685 -40 q 637 -40 650 -49 q 597 15 624 -31 l 451 267 q 358 261 413 261 l 285 261 l 285 56 q 229 0 285 0 l 139 0 q 83 56 83 0 l 83 875 q 139 931 83 931 l 358 931 q 664 847 558 931 q 769 596 769 764 q 636 325 769 410 l 785 54 q 746 -26 819 -11 l 685 -40 m 364 722 l 285 722 l 285 469 l 364 469 q 568 596 568 469 q 364 722 568 722 m 474 -303 q 440 -347 456 -335 q 397 -358 425 -358 l 325 -358 q 285 -346 294 -358 q 283 -303 275 -333 l 324 -156 q 347 -119 332 -128 q 400 -110 363 -110 l 519 -110 q 549 -165 579 -110 l 474 -303 z "},"ŗ":{"ha":546,"x_min":4,"x_max":532,"o":"m 257 56 q 201 0 257 0 l 118 0 q 63 56 63 0 l 63 708 q 118 764 63 764 l 201 764 q 257 708 257 764 l 257 593 q 340 680 290 649 q 439 711 389 711 q 519 693 490 711 q 532 667 535 683 l 518 507 q 481 485 517 476 q 392 496 429 496 q 294 451 332 496 q 257 325 257 407 l 257 56 m 194 -303 q 161 -347 176 -335 q 118 -358 146 -358 l 46 -358 q 6 -346 15 -358 q 4 -303 -4 -333 l 44 -156 q 68 -119 53 -128 q 121 -110 83 -110 l 240 -110 q 269 -165 300 -110 l 194 -303 z "},"Ř":{"ha":825,"x_min":83,"x_max":785,"o":"m 349 1039 q 272 1085 301 1039 l 178 1232 q 170 1272 163 1256 q 206 1288 178 1288 l 271 1288 q 339 1256 313 1288 l 411 1163 l 485 1256 q 553 1288 511 1288 l 619 1288 q 655 1272 647 1288 q 647 1232 663 1256 l 553 1085 q 476 1039 524 1039 l 349 1039 m 685 -40 q 637 -40 650 -49 q 597 15 624 -31 l 451 267 q 358 261 413 261 l 285 261 l 285 56 q 229 0 285 0 l 139 0 q 83 56 83 0 l 83 875 q 139 931 83 931 l 358 931 q 664 847 558 931 q 769 596 769 764 q 636 325 769 410 l 785 54 q 746 -26 819 -11 l 685 -40 m 364 722 l 285 722 l 285 469 l 364 469 q 568 596 568 469 q 364 722 568 722 z "},"ř":{"ha":546,"x_min":63,"x_max":585,"o":"m 278 789 q 201 835 231 789 l 107 982 q 99 1022 92 1006 q 135 1038 107 1038 l 200 1038 q 268 1006 242 1038 l 340 913 l 414 1006 q 482 1038 440 1038 l 549 1038 q 584 1022 576 1038 q 576 982 592 1006 l 482 835 q 406 789 453 789 l 278 789 m 257 56 q 201 0 257 0 l 118 0 q 63 56 63 0 l 63 708 q 118 764 63 764 l 201 764 q 257 708 257 764 l 257 593 q 340 680 290 649 q 439 711 389 711 q 519 693 490 711 q 532 667 535 683 l 518 507 q 481 485 517 476 q 392 496 429 496 q 294 451 332 496 q 257 325 257 407 l 257 56 z "},"Ś":{"ha":703,"x_min":26,"x_max":675,"o":"m 458 1094 q 375 1039 415 1039 l 296 1039 q 268 1094 244 1039 l 335 1242 q 411 1288 356 1288 l 551 1288 q 582 1272 579 1288 q 567 1232 585 1256 l 458 1094 m 474 243 q 443 305 474 275 q 367 358 413 335 q 267 412 321 381 q 168 476 214 443 q 92 563 122 510 q 61 681 61 617 q 140 874 61 801 q 356 947 218 947 q 483 928 415 947 q 596 881 550 910 q 624 851 619 865 q 618 813 628 836 l 579 728 q 518 708 561 690 q 356 753 418 753 q 263 694 263 753 q 293 635 263 664 q 369 583 324 607 q 469 528 415 560 q 568 464 522 497 q 644 378 614 431 q 675 264 675 325 q 592 58 675 132 q 364 -17 510 -17 q 200 8 285 -17 q 56 76 115 33 q 27 106 32 94 q 33 144 22 118 l 74 228 q 97 255 85 250 q 135 247 110 260 q 372 178 261 178 q 474 243 474 178 z "},"ś":{"ha":594,"x_min":32,"x_max":569,"o":"m 418 844 q 335 789 375 789 l 256 789 q 228 844 204 789 l 294 992 q 371 1038 315 1038 l 511 1038 q 542 1022 539 1038 q 526 982 544 1006 l 418 844 m 43 488 q 113 649 43 586 q 304 711 183 711 q 533 647 447 711 q 539 589 557 629 l 510 517 q 458 492 493 478 q 285 535 350 535 q 231 497 231 535 q 256 460 231 475 q 318 439 281 446 q 400 419 356 432 q 482 388 444 406 q 544 328 519 369 q 569 228 569 288 q 489 43 569 103 q 297 -17 408 -17 q 46 58 139 -17 q 33 78 36 67 q 33 95 31 89 q 40 117 35 101 l 68 194 q 90 220 75 213 q 119 219 104 228 q 308 167 217 167 q 382 204 382 167 q 357 242 382 226 q 294 264 332 257 q 213 286 257 271 q 131 321 168 301 q 68 383 93 340 q 43 488 43 426 z "},"Ŝ":{"ha":703,"x_min":26,"x_max":675,"o":"m 415 1288 q 492 1242 463 1288 l 586 1094 q 594 1056 601 1072 q 558 1039 586 1039 l 493 1039 q 425 1071 451 1039 l 353 1164 l 279 1071 q 211 1039 253 1039 l 144 1039 q 109 1056 117 1039 q 117 1094 101 1072 l 211 1242 q 288 1288 240 1288 l 415 1288 m 474 243 q 443 305 474 275 q 367 358 413 335 q 267 412 321 381 q 168 476 214 443 q 92 563 122 510 q 61 681 61 617 q 140 874 61 801 q 356 947 218 947 q 483 928 415 947 q 596 881 550 910 q 624 851 619 865 q 618 813 628 836 l 579 728 q 518 708 561 690 q 356 753 418 753 q 263 694 263 753 q 293 635 263 664 q 369 583 324 607 q 469 528 415 560 q 568 464 522 497 q 644 378 614 431 q 675 264 675 325 q 592 58 675 132 q 364 -17 510 -17 q 200 8 285 -17 q 56 76 115 33 q 27 106 32 94 q 33 144 22 118 l 74 228 q 97 255 85 250 q 135 247 110 260 q 372 178 261 178 q 474 243 474 178 z "},"ŝ":{"ha":594,"x_min":32,"x_max":569,"o":"m 361 1038 q 438 992 408 1038 l 532 844 q 540 806 547 822 q 504 789 532 789 l 439 789 q 371 821 397 789 l 299 914 l 225 821 q 157 789 199 789 l 90 789 q 55 806 63 789 q 63 844 47 822 l 157 992 q 233 1038 186 1038 l 361 1038 m 43 488 q 113 649 43 586 q 304 711 183 711 q 533 647 447 711 q 539 589 557 629 l 510 517 q 458 492 493 478 q 285 535 350 535 q 231 497 231 535 q 256 460 231 475 q 318 439 281 446 q 400 419 356 432 q 482 388 444 406 q 544 328 519 369 q 569 228 569 288 q 489 43 569 103 q 297 -17 408 -17 q 46 58 139 -17 q 33 78 36 67 q 33 95 31 89 q 40 117 35 101 l 68 194 q 90 220 75 213 q 119 219 104 228 q 308 167 217 167 q 382 204 382 167 q 357 242 382 226 q 294 264 332 257 q 213 286 257 271 q 131 321 168 301 q 68 383 93 340 q 43 488 43 426 z "},"Ş":{"ha":703,"x_min":26,"x_max":675,"o":"m 544 -217 q 487 -342 544 -301 q 331 -382 429 -382 q 189 -343 249 -382 q 186 -308 175 -333 q 201 -276 190 -301 q 215 -246 213 -251 q 246 -231 228 -219 q 332 -256 296 -256 q 403 -221 403 -256 q 383 -194 403 -204 q 332 -183 363 -183 q 297 -186 318 -183 q 268 -189 276 -189 q 242 -165 235 -189 l 281 -10 q 56 76 144 11 q 27 106 32 94 q 33 144 22 118 l 74 228 q 97 255 85 250 q 135 247 110 260 q 372 178 261 178 q 474 243 474 178 q 443 305 474 275 q 367 358 413 335 q 267 412 321 381 q 168 476 214 443 q 92 563 122 510 q 61 681 61 617 q 140 874 61 801 q 356 947 218 947 q 483 928 415 947 q 596 881 550 910 q 624 851 619 865 q 618 813 628 836 l 579 728 q 518 708 561 690 q 356 753 418 753 q 263 694 263 753 q 293 635 263 664 q 369 583 324 607 q 469 528 415 560 q 568 464 522 497 q 644 378 614 431 q 675 264 675 325 q 592 58 675 132 q 364 -17 510 -17 l 353 -17 q 349 -37 353 -21 q 344 -57 344 -53 q 379 -54 367 -54 q 499 -98 453 -54 q 544 -217 544 -142 z "},"ş":{"ha":594,"x_min":32,"x_max":569,"o":"m 281 -374 q 139 -335 199 -374 q 136 -300 125 -325 l 165 -232 q 196 -217 178 -206 q 282 -242 246 -242 q 353 -207 353 -242 q 333 -180 353 -190 q 282 -169 313 -169 q 247 -172 268 -169 q 218 -175 226 -175 q 192 -151 185 -175 l 228 -12 q 46 58 114 4 q 33 78 36 67 q 33 95 31 89 q 40 117 35 101 l 68 194 q 90 220 75 213 q 119 219 104 228 q 308 167 217 167 q 382 204 382 167 q 357 242 382 226 q 294 264 332 257 q 213 286 257 271 q 131 321 168 301 q 68 383 93 340 q 43 488 43 426 q 113 649 43 586 q 304 711 183 711 q 533 647 447 711 q 539 589 557 629 l 510 517 q 458 492 493 478 q 285 535 350 535 q 231 497 231 535 q 256 460 231 475 q 318 439 281 446 q 400 419 356 432 q 482 388 444 406 q 544 328 519 369 q 569 228 569 288 q 546 114 569 163 q 482 38 522 65 q 396 -3 442 10 q 300 -17 350 -17 l 290 -64 q 326 -61 315 -61 q 446 -102 400 -61 q 492 -211 492 -143 q 281 -374 492 -374 z "},"Š":{"ha":703,"x_min":26,"x_max":675,"o":"m 288 1039 q 211 1085 240 1039 l 117 1232 q 109 1272 101 1256 q 144 1288 117 1288 l 210 1288 q 278 1256 251 1288 l 350 1163 l 424 1256 q 492 1288 450 1288 l 558 1288 q 594 1272 586 1288 q 586 1232 601 1256 l 492 1085 q 415 1039 463 1039 l 288 1039 m 474 243 q 443 305 474 275 q 367 358 413 335 q 267 412 321 381 q 168 476 214 443 q 92 563 122 510 q 61 681 61 617 q 140 874 61 801 q 356 947 218 947 q 483 928 415 947 q 596 881 550 910 q 624 851 619 865 q 618 813 628 836 l 579 728 q 518 708 561 690 q 356 753 418 753 q 263 694 263 753 q 293 635 263 664 q 369 583 324 607 q 469 528 415 560 q 568 464 522 497 q 644 378 614 431 q 675 264 675 325 q 592 58 675 132 q 364 -17 510 -17 q 200 8 285 -17 q 56 76 115 33 q 27 106 32 94 q 33 144 22 118 l 74 228 q 97 255 85 250 q 135 247 110 260 q 372 178 261 178 q 474 243 474 178 z "},"š":{"ha":594,"x_min":32,"x_max":569,"o":"m 233 789 q 157 835 186 789 l 63 982 q 55 1022 47 1006 q 90 1038 63 1038 l 156 1038 q 224 1006 197 1038 l 296 913 l 369 1006 q 438 1038 396 1038 l 504 1038 q 540 1022 532 1038 q 532 982 547 1006 l 438 835 q 361 789 408 789 l 233 789 m 43 488 q 113 649 43 586 q 304 711 183 711 q 533 647 447 711 q 539 589 557 629 l 510 517 q 458 492 493 478 q 285 535 350 535 q 231 497 231 535 q 256 460 231 475 q 318 439 281 446 q 400 419 356 432 q 482 388 444 406 q 544 328 519 369 q 569 228 569 288 q 489 43 569 103 q 297 -17 408 -17 q 46 58 139 -17 q 33 78 36 67 q 33 95 31 89 q 40 117 35 101 l 68 194 q 90 220 75 213 q 119 219 104 228 q 308 167 217 167 q 382 204 382 167 q 357 242 382 226 q 294 264 332 257 q 213 286 257 271 q 131 321 168 301 q 68 383 93 340 q 43 488 43 426 z "},"Ţ":{"ha":839,"x_min":19,"x_max":819,"o":"m 521 56 q 465 0 521 0 l 375 0 q 319 56 319 0 l 319 722 l 74 722 q 19 776 19 722 l 19 875 q 75 931 19 931 l 764 931 q 819 875 819 931 l 819 776 q 765 722 819 722 l 521 722 l 521 56 m 453 -303 q 419 -347 435 -335 q 376 -358 404 -358 l 304 -358 q 264 -346 274 -358 q 263 -303 254 -333 l 303 -156 q 326 -119 311 -128 q 379 -110 342 -110 l 499 -110 q 528 -165 558 -110 l 453 -303 z "},"ţ":{"ha":642,"x_min":15,"x_max":618,"o":"m 613 44 q 374 -31 514 -31 q 197 41 258 -31 q 135 251 135 113 l 135 432 l 54 436 q 15 479 15 438 l 15 590 q 28 625 15 611 q 63 638 42 639 l 135 633 l 135 792 q 176 833 135 833 l 288 833 q 329 792 329 833 l 329 622 l 529 610 q 568 567 568 608 l 568 456 q 555 421 568 435 q 521 408 542 407 l 329 419 l 329 286 q 424 168 329 168 q 531 208 467 168 q 582 183 563 228 l 618 103 q 613 44 638 63 m 394 -303 q 361 -347 376 -335 q 318 -358 346 -358 l 246 -358 q 206 -346 215 -358 q 204 -303 196 -333 l 244 -156 q 268 -119 253 -128 q 321 -110 283 -110 l 440 -110 q 469 -165 500 -110 l 394 -303 z "},"Ť":{"ha":839,"x_min":19,"x_max":819,"o":"m 356 1039 q 279 1085 308 1039 l 185 1232 q 177 1272 169 1256 q 213 1288 185 1288 l 278 1288 q 346 1256 319 1288 l 418 1163 l 492 1256 q 560 1288 518 1288 l 626 1288 q 662 1272 654 1288 q 654 1232 669 1256 l 560 1085 q 483 1039 531 1039 l 356 1039 m 521 56 q 465 0 521 0 l 375 0 q 319 56 319 0 l 319 722 l 74 722 q 19 776 19 722 l 19 875 q 75 931 19 931 l 764 931 q 819 875 819 931 l 819 776 q 765 722 819 722 l 521 722 l 521 56 z "},"ť":{"ha":653,"x_min":15,"x_max":636,"o":"m 599 724 q 575 679 590 690 q 529 668 560 668 l 471 668 q 438 680 446 668 q 429 724 429 692 l 429 871 q 439 908 429 899 q 478 917 449 917 l 604 917 q 636 906 631 917 q 633 861 642 894 l 599 724 m 613 44 q 374 -31 514 -31 q 197 41 258 -31 q 135 251 135 113 l 135 432 l 54 436 q 15 479 15 438 l 15 590 q 28 625 15 611 q 63 638 42 639 l 135 633 l 135 792 q 176 833 135 833 l 288 833 q 329 792 329 833 l 329 622 l 529 610 q 568 567 568 608 l 568 456 q 555 421 568 435 q 521 408 542 407 l 329 419 l 329 286 q 424 168 329 168 q 531 208 467 168 q 582 183 563 228 l 618 103 q 613 44 638 63 z "},"Ŧ":{"ha":839,"x_min":19,"x_max":819,"o":"m 521 56 q 465 0 521 0 l 375 0 q 319 56 319 0 l 319 379 l 204 379 q 149 435 149 379 l 149 483 q 204 539 149 539 l 319 539 l 319 722 l 74 722 q 19 776 19 722 l 19 875 q 75 931 19 931 l 764 931 q 819 875 819 931 l 819 776 q 765 722 819 722 l 521 722 l 521 539 l 635 539 q 690 483 690 539 l 690 435 q 635 379 690 379 l 521 379 l 521 56 z "},"ŧ":{"ha":665,"x_min":21,"x_max":649,"o":"m 636 50 q 449 -22 558 -8 q 397 -25 413 -25 q 231 35 292 -25 q 160 213 169 94 q 158 257 158 226 l 158 272 l 76 276 q 21 332 21 281 l 21 381 q 76 436 21 440 l 93 435 l 158 432 l 158 504 l 60 510 q 40 514 49 510 q 21 553 21 521 l 21 664 q 53 710 21 699 q 68 711 57 711 l 158 706 l 158 792 q 161 810 158 799 q 200 833 169 833 l 311 833 q 350 810 342 833 q 353 792 353 799 l 353 694 l 539 683 q 558 679 550 683 q 578 640 578 672 l 578 529 q 560 490 578 504 q 531 482 547 482 l 353 493 l 353 419 l 435 415 q 451 414 440 414 q 507 358 507 410 l 507 310 q 451 254 507 250 l 354 260 q 358 238 356 251 q 447 174 375 174 q 554 214 490 174 q 569 219 561 217 q 606 189 593 219 l 642 108 q 649 92 647 97 q 636 50 658 65 z "},"Ũ":{"ha":914,"x_min":75,"x_max":831,"o":"m 538 1039 q 462 1051 511 1039 q 386 1064 413 1064 q 294 1044 347 1064 q 240 1078 240 1024 l 240 1146 q 282 1206 240 1190 q 376 1224 331 1224 q 456 1211 407 1224 q 528 1199 504 1199 q 619 1218 567 1199 q 674 1185 674 1239 l 674 1117 q 632 1057 674 1072 q 538 1039 583 1039 m 629 83 l 629 128 q 351 -17 538 -17 q 151 63 228 -17 q 75 294 75 143 l 75 875 q 131 931 75 931 l 221 931 q 276 875 276 931 l 276 378 q 312 228 276 274 q 418 183 347 183 q 567 240 504 183 q 629 392 629 297 l 629 847 q 685 903 629 903 l 775 903 q 831 847 831 903 l 831 83 q 775 28 831 28 l 685 28 q 629 83 629 28 z "},"ũ":{"ha":763,"x_min":53,"x_max":700,"o":"m 461 789 q 385 801 435 789 q 310 814 336 814 q 218 794 271 814 q 164 828 164 774 l 164 896 q 206 956 164 940 q 300 974 254 974 q 379 961 331 974 q 451 949 428 949 q 543 968 490 949 q 597 935 597 989 l 597 867 q 556 807 597 822 q 461 789 507 789 m 506 56 l 506 104 q 408 15 468 46 q 288 -17 349 -17 q 117 56 181 -17 q 53 272 53 128 l 53 639 q 108 694 53 694 l 192 694 q 247 639 247 694 l 247 335 q 354 185 247 185 q 465 231 425 185 q 506 369 506 276 l 506 694 q 561 750 506 750 l 644 750 q 700 694 700 750 l 700 56 q 644 0 700 0 l 561 0 q 506 56 506 0 z "},"Ū":{"ha":914,"x_min":75,"x_max":831,"o":"m 610 1199 q 665 1143 665 1199 l 665 1094 q 610 1039 665 1039 l 290 1039 q 235 1094 235 1039 l 235 1143 q 290 1199 235 1199 l 610 1199 m 629 83 l 629 128 q 351 -17 538 -17 q 151 63 228 -17 q 75 294 75 143 l 75 875 q 131 931 75 931 l 221 931 q 276 875 276 931 l 276 378 q 312 228 276 274 q 418 183 347 183 q 567 240 504 183 q 629 392 629 297 l 629 847 q 685 903 629 903 l 775 903 q 831 847 831 903 l 831 83 q 775 28 831 28 l 685 28 q 629 83 629 28 z "},"ū":{"ha":763,"x_min":53,"x_max":700,"o":"m 533 949 q 589 893 589 949 l 589 844 q 533 789 589 789 l 214 789 q 158 844 158 789 l 158 893 q 214 949 158 949 l 533 949 m 506 56 l 506 104 q 408 15 468 46 q 288 -17 349 -17 q 117 56 181 -17 q 53 272 53 128 l 53 639 q 108 694 53 694 l 192 694 q 247 639 247 694 l 247 335 q 354 185 247 185 q 465 231 425 185 q 506 369 506 276 l 506 694 q 561 750 506 750 l 644 750 q 700 694 700 750 l 700 56 q 644 0 700 0 l 561 0 q 506 56 506 0 z "},"Ŭ":{"ha":914,"x_min":75,"x_max":831,"o":"m 374 1240 q 457 1171 383 1171 q 540 1240 531 1171 q 601 1288 547 1288 l 618 1288 q 686 1218 686 1288 q 626 1088 686 1136 q 457 1039 565 1039 q 288 1088 349 1039 q 228 1218 228 1136 q 296 1288 228 1288 l 313 1288 q 374 1240 367 1288 m 629 83 l 629 128 q 351 -17 538 -17 q 151 63 228 -17 q 75 294 75 143 l 75 875 q 131 931 75 931 l 221 931 q 276 875 276 931 l 276 378 q 312 228 276 274 q 418 183 347 183 q 567 240 504 183 q 629 392 629 297 l 629 847 q 685 903 629 903 l 775 903 q 831 847 831 903 l 831 83 q 775 28 831 28 l 685 28 q 629 83 629 28 z "},"ŭ":{"ha":763,"x_min":53,"x_max":700,"o":"m 297 990 q 381 921 307 921 q 464 990 454 921 q 525 1038 471 1038 l 542 1038 q 610 968 610 1038 q 549 838 610 886 q 381 789 489 789 q 212 838 272 789 q 151 968 151 886 q 219 1038 151 1038 l 236 1038 q 297 990 290 1038 m 506 56 l 506 104 q 408 15 468 46 q 288 -17 349 -17 q 117 56 181 -17 q 53 272 53 128 l 53 639 q 108 694 53 694 l 192 694 q 247 639 247 694 l 247 335 q 354 185 247 185 q 465 231 425 185 q 506 369 506 276 l 506 694 q 561 750 506 750 l 644 750 q 700 694 700 750 l 700 56 q 644 0 700 0 l 561 0 q 506 56 506 0 z "},"Ů":{"ha":914,"x_min":75,"x_max":831,"o":"m 596 1063 q 569 1040 596 1063 q 457 1017 542 1017 q 318 1063 372 1017 q 264 1186 264 1108 q 318 1309 264 1263 q 457 1356 372 1356 q 596 1309 542 1356 q 650 1186 650 1263 q 596 1063 650 1108 m 410 1146 q 419 1139 410 1146 q 457 1132 428 1132 q 504 1146 486 1132 q 522 1186 522 1160 q 503 1225 522 1211 q 456 1239 485 1239 q 410 1224 429 1239 q 392 1186 392 1210 q 410 1146 392 1160 m 629 83 l 629 128 q 351 -17 538 -17 q 151 63 228 -17 q 75 294 75 143 l 75 875 q 131 931 75 931 l 221 931 q 276 875 276 931 l 276 378 q 312 228 276 274 q 418 183 347 183 q 567 240 504 183 q 629 392 629 297 l 629 847 q 685 903 629 903 l 775 903 q 831 847 831 903 l 831 83 q 775 28 831 28 l 685 28 q 629 83 629 28 z "},"ů":{"ha":763,"x_min":53,"x_max":700,"o":"m 492 813 q 465 790 492 813 q 353 767 438 767 q 214 813 268 767 q 160 936 160 858 q 214 1059 160 1013 q 353 1106 268 1106 q 492 1059 438 1106 q 546 936 546 1013 q 492 813 546 858 m 306 896 q 316 889 306 896 q 353 882 325 882 q 399 896 381 882 q 418 936 418 910 q 399 975 418 961 q 351 989 381 989 q 306 974 325 989 q 288 936 288 960 q 306 896 288 910 m 506 56 l 506 104 q 408 15 468 46 q 288 -17 349 -17 q 117 56 181 -17 q 53 272 53 128 l 53 639 q 108 694 53 694 l 192 694 q 247 639 247 694 l 247 335 q 354 185 247 185 q 465 231 425 185 q 506 369 506 276 l 506 694 q 561 750 506 750 l 644 750 q 700 694 700 750 l 700 56 q 644 0 700 0 l 561 0 q 506 56 506 0 z "},"Ű":{"ha":914,"x_min":75,"x_max":831,"o":"m 438 1094 q 354 1039 411 1039 l 303 1039 q 263 1051 272 1039 q 261 1094 253 1064 l 300 1242 q 322 1278 307 1269 q 369 1288 336 1288 l 475 1288 q 513 1276 506 1288 q 504 1232 519 1264 l 438 1094 m 699 1094 q 615 1039 672 1039 l 564 1039 q 524 1051 533 1039 q 522 1094 514 1064 l 561 1242 q 583 1278 568 1269 q 629 1288 597 1288 l 736 1288 q 774 1276 767 1288 q 765 1232 781 1264 l 699 1094 m 629 83 l 629 128 q 351 -17 538 -17 q 151 63 228 -17 q 75 294 75 143 l 75 875 q 131 931 75 931 l 221 931 q 276 875 276 931 l 276 378 q 312 228 276 274 q 418 183 347 183 q 567 240 504 183 q 629 392 629 297 l 629 847 q 685 903 629 903 l 775 903 q 831 847 831 903 l 831 83 q 775 28 831 28 l 685 28 q 629 83 629 28 z "},"ű":{"ha":763,"x_min":53,"x_max":700,"o":"m 306 844 q 222 789 279 789 l 171 789 q 131 801 140 789 q 129 844 121 814 l 168 992 q 190 1028 175 1019 q 238 1038 204 1038 l 343 1038 q 381 1026 374 1038 q 372 982 388 1014 l 306 844 m 567 844 q 483 789 540 789 l 432 789 q 392 801 401 789 q 390 844 382 814 l 429 992 q 451 1028 436 1019 q 497 1038 465 1038 l 604 1038 q 642 1026 635 1038 q 633 982 649 1014 l 567 844 m 506 56 l 506 104 q 408 15 468 46 q 288 -17 349 -17 q 117 56 181 -17 q 53 272 53 128 l 53 639 q 108 694 53 694 l 192 694 q 247 639 247 694 l 247 335 q 354 185 247 185 q 465 231 425 185 q 506 369 506 276 l 506 694 q 561 750 506 750 l 644 750 q 700 694 700 750 l 700 56 q 644 0 700 0 l 561 0 q 506 56 506 0 z "},"Ų":{"ha":914,"x_min":75,"x_max":836,"o":"m 833 -299 q 676 -340 775 -340 q 563 -304 613 -340 q 513 -193 513 -268 q 544 -89 513 -133 q 633 -21 576 -44 q 629 7 629 -11 l 629 128 q 383 -15 547 -1 q 351 -17 372 -17 q 151 63 228 -17 q 75 294 75 143 l 75 875 q 131 931 75 931 l 221 931 q 276 875 276 931 l 276 378 q 312 228 276 274 q 418 183 347 183 q 567 240 504 183 q 629 392 629 297 l 629 847 q 685 903 629 903 l 775 903 q 831 847 831 903 l 831 7 q 775 -49 831 -49 q 687 -74 718 -49 q 656 -136 656 -99 q 674 -173 656 -160 q 714 -186 692 -186 q 785 -167 749 -186 q 803 -167 793 -162 q 815 -182 813 -171 l 822 -210 l 836 -264 q 833 -299 844 -290 z "},"ų":{"ha":763,"x_min":53,"x_max":706,"o":"m 703 -315 q 572 -356 656 -349 q 546 -357 564 -357 q 432 -321 482 -357 q 382 -210 382 -285 q 383 -183 382 -192 q 510 -37 399 -86 q 506 -10 506 -26 l 506 104 q 311 -15 438 -3 q 288 -17 303 -17 q 125 46 188 -17 q 54 236 63 108 q 53 272 53 247 l 53 639 q 56 664 53 650 q 108 694 65 694 l 192 694 q 244 664 235 694 q 247 639 247 650 l 247 335 q 354 185 247 185 q 465 231 425 185 q 506 369 506 276 l 506 694 q 508 719 506 706 q 561 750 518 750 l 644 750 q 700 694 700 750 l 700 -10 q 697 -35 700 -21 q 644 -65 688 -65 q 556 -90 588 -65 q 525 -153 525 -115 q 543 -190 525 -176 q 583 -203 561 -203 q 654 -183 618 -203 q 672 -183 663 -179 q 685 -199 682 -187 l 706 -281 q 703 -315 714 -307 z "},"Ŵ":{"ha":1313,"x_min":18,"x_max":1293,"o":"m 707 1288 q 783 1242 754 1288 l 878 1094 q 885 1056 893 1072 q 850 1039 878 1039 l 785 1039 q 717 1071 743 1039 l 644 1164 l 571 1071 q 503 1039 544 1039 l 436 1039 q 401 1056 408 1039 q 408 1094 393 1072 l 503 1242 q 579 1288 532 1288 l 707 1288 m 554 56 q 531 10 546 21 q 488 0 517 0 l 403 0 q 363 10 375 0 q 336 56 350 19 l 25 849 q 18 904 10 886 q 64 929 26 922 l 139 943 q 194 940 176 950 q 226 888 211 929 l 426 335 l 536 783 q 559 828 544 818 q 603 839 574 839 l 688 839 q 730 828 717 839 q 754 783 743 818 l 907 317 l 1086 915 q 1117 969 1099 958 q 1174 971 1136 979 l 1249 954 q 1293 928 1286 946 q 1288 874 1300 911 l 1033 56 q 1009 10 1022 21 q 967 0 996 0 l 868 0 q 826 10 839 0 q 801 56 813 21 l 664 489 l 554 56 z "},"ŵ":{"ha":1043,"x_min":7,"x_max":1026,"o":"m 589 1038 q 665 992 636 1038 l 760 844 q 767 806 775 822 q 732 789 760 789 l 667 789 q 599 821 625 789 l 526 914 l 453 821 q 385 789 426 789 l 318 789 q 283 806 290 789 q 290 844 275 822 l 385 992 q 461 1038 414 1038 l 589 1038 m 476 53 q 454 10 468 21 q 413 0 440 0 l 307 0 q 269 10 281 0 q 243 53 257 19 l 15 582 q 8 631 1 619 q 53 658 14 642 l 118 686 q 168 688 153 699 q 201 632 183 676 l 351 256 l 418 569 q 441 615 426 604 q 485 625 456 625 l 549 625 q 590 615 576 625 q 615 569 603 604 l 719 260 l 824 681 q 852 734 833 722 q 906 735 871 746 l 985 711 q 1026 685 1019 701 q 1022 635 1033 669 l 860 53 q 838 10 851 19 q 796 0 824 0 l 690 0 q 651 10 664 0 q 626 53 639 19 l 538 307 l 476 53 z "},"Ŷ":{"ha":789,"x_min":15,"x_max":774,"o":"m 444 1288 q 521 1242 492 1288 l 615 1094 q 623 1056 631 1072 q 588 1039 615 1039 l 522 1039 q 454 1071 481 1039 l 382 1164 l 308 1071 q 240 1039 282 1039 l 174 1039 q 138 1056 146 1039 q 146 1094 131 1072 l 240 1242 q 317 1288 269 1288 l 444 1288 m 513 56 q 457 0 513 0 l 367 0 q 317 25 329 0 q 311 56 311 36 l 311 322 l 25 849 q 15 903 6 886 q 64 929 25 921 l 132 943 q 193 931 175 953 q 219 888 201 918 l 385 594 l 403 563 l 564 915 q 588 956 578 946 q 651 971 606 981 l 726 954 q 774 928 765 946 q 765 874 782 911 l 513 304 l 513 56 z "},"ŷ":{"ha":763,"x_min":53,"x_max":700,"o":"m 458 1038 q 535 992 506 1038 l 629 844 q 637 806 644 822 q 601 789 629 789 l 536 789 q 468 821 494 789 l 396 914 l 322 821 q 254 789 296 789 l 188 789 q 152 806 160 789 q 160 844 144 822 l 254 992 q 331 1038 283 1038 l 458 1038 m 375 -292 q 97 -212 196 -292 q 82 -185 82 -194 q 92 -154 82 -176 l 125 -71 q 147 -31 138 -39 q 176 -32 157 -22 q 372 -90 282 -90 q 506 32 506 -90 l 506 132 q 408 42 468 74 q 288 11 349 11 q 117 83 181 11 q 53 300 53 156 l 53 667 q 108 722 53 722 l 192 722 q 247 667 247 722 l 247 363 q 354 213 247 213 q 465 258 425 213 q 506 397 506 304 l 506 639 q 561 694 506 694 l 644 694 q 700 639 700 694 l 700 13 q 610 -217 700 -143 q 375 -292 521 -292 z "},"Ÿ":{"ha":789,"x_min":15,"x_max":774,"o":"m 602 1084 q 586 1068 602 1084 q 526 1053 571 1053 q 451 1084 482 1053 q 419 1160 419 1115 q 451 1235 419 1203 q 526 1267 483 1267 q 601 1235 569 1267 q 633 1160 633 1203 q 602 1084 633 1115 m 310 1084 q 295 1068 310 1084 q 235 1053 279 1053 q 159 1084 190 1053 q 128 1160 128 1115 q 160 1235 128 1203 q 235 1267 192 1267 q 310 1235 278 1267 q 342 1160 342 1203 q 310 1084 342 1115 m 513 56 q 457 0 513 0 l 367 0 q 317 25 329 0 q 311 56 311 36 l 311 322 l 25 849 q 15 903 6 886 q 64 929 25 921 l 132 943 q 193 931 175 953 q 219 888 201 918 l 385 594 l 403 563 l 564 915 q 588 956 578 946 q 651 971 606 981 l 726 954 q 774 928 765 946 q 765 874 782 911 l 513 304 l 513 56 z "},"Ź":{"ha":750,"x_min":38,"x_max":713,"o":"m 439 1094 q 356 1039 396 1039 l 276 1039 q 249 1094 225 1039 l 315 1242 q 392 1288 336 1288 l 532 1288 q 563 1272 560 1288 q 547 1232 565 1256 l 439 1094 m 657 0 l 93 0 q 38 56 38 0 l 38 153 q 49 192 38 178 l 53 197 l 424 722 l 107 722 q 51 778 51 722 l 51 875 q 107 931 51 931 l 629 931 q 685 875 685 931 l 685 778 q 678 747 685 761 q 668 729 676 739 l 297 208 l 657 208 q 713 153 713 208 l 713 56 q 657 0 713 0 z "},"ź":{"ha":649,"x_min":35,"x_max":618,"o":"m 417 844 q 333 789 374 789 l 254 789 q 226 844 203 789 l 293 992 q 369 1038 314 1038 l 510 1038 q 540 1022 538 1038 q 525 982 543 1006 l 417 844 m 563 0 l 90 0 q 39 31 49 0 q 35 56 35 42 l 35 147 q 50 197 28 175 l 336 500 l 97 500 q 74 503 88 500 q 42 556 42 514 l 42 639 q 46 664 42 653 q 97 694 56 694 l 549 694 q 600 664 590 694 q 604 639 604 653 l 604 556 q 603 539 604 543 q 602 535 603 538 q 600 531 601 532 l 600 529 q 599 528 600 528 q 593 517 597 522 q 589 512 592 515 q 585 507 586 508 l 285 194 l 563 194 q 586 192 572 194 q 618 139 618 181 l 618 56 q 614 31 618 42 q 563 0 604 0 z "},"Ż":{"ha":750,"x_min":38,"x_max":713,"o":"m 465 1071 q 446 1051 465 1071 q 374 1032 426 1032 q 282 1071 321 1032 q 243 1164 243 1110 q 282 1256 243 1217 q 374 1294 321 1294 q 465 1256 426 1294 q 504 1164 504 1217 q 465 1071 504 1110 m 657 0 l 93 0 q 38 56 38 0 l 38 153 q 49 192 38 178 l 53 197 l 424 722 l 107 722 q 51 778 51 722 l 51 875 q 107 931 51 931 l 629 931 q 685 875 685 931 l 685 778 q 678 747 685 761 q 668 729 676 739 l 297 208 l 657 208 q 713 153 713 208 l 713 56 q 657 0 713 0 z "},"ż":{"ha":649,"x_min":35,"x_max":618,"o":"m 417 821 q 397 801 417 821 q 325 782 378 782 q 233 821 272 782 q 194 914 194 860 q 233 1006 194 967 q 325 1044 272 1044 q 417 1006 378 1044 q 456 914 456 967 q 417 821 456 860 m 563 0 l 90 0 q 39 31 49 0 q 35 56 35 42 l 35 147 q 50 197 28 175 l 336 500 l 97 500 q 74 503 88 500 q 42 556 42 514 l 42 639 q 46 664 42 653 q 97 694 56 694 l 549 694 q 600 664 590 694 q 604 639 604 653 l 604 556 q 603 539 604 543 q 602 535 603 538 q 600 531 601 532 l 600 529 q 599 528 600 528 q 593 517 597 522 q 589 512 592 515 q 585 507 586 508 l 285 194 l 563 194 q 586 192 572 194 q 618 139 618 181 l 618 56 q 614 31 618 42 q 563 0 604 0 z "},"Ž":{"ha":750,"x_min":38,"x_max":713,"o":"m 310 1039 q 233 1085 263 1039 l 139 1232 q 131 1272 124 1256 q 167 1288 139 1288 l 232 1288 q 300 1256 274 1288 l 372 1163 l 446 1256 q 514 1288 472 1288 l 581 1288 q 616 1272 608 1288 q 608 1232 624 1256 l 514 1085 q 438 1039 485 1039 l 310 1039 m 657 0 l 93 0 q 38 56 38 0 l 38 153 q 49 192 38 178 l 53 197 l 424 722 l 107 722 q 51 778 51 722 l 51 875 q 107 931 51 931 l 629 931 q 685 875 685 931 l 685 778 q 678 747 685 761 q 668 729 676 739 l 297 208 l 657 208 q 713 153 713 208 l 713 56 q 657 0 713 0 z "},"ž":{"ha":649,"x_min":35,"x_max":618,"o":"m 261 789 q 185 835 214 789 l 90 982 q 83 1022 75 1006 q 118 1038 90 1038 l 183 1038 q 251 1006 225 1038 l 324 913 l 397 1006 q 465 1038 424 1038 l 532 1038 q 567 1022 560 1038 q 560 982 575 1006 l 465 835 q 389 789 436 789 l 261 789 m 563 0 l 90 0 q 39 31 49 0 q 35 56 35 42 l 35 147 q 50 197 28 175 l 336 500 l 97 500 q 74 503 88 500 q 42 556 42 514 l 42 639 q 46 664 42 653 q 97 694 56 694 l 549 694 q 600 664 590 694 q 604 639 604 653 l 604 556 q 603 539 604 543 q 602 535 603 538 q 600 531 601 532 l 600 529 q 599 528 600 528 q 593 517 597 522 q 589 512 592 515 q 585 507 586 508 l 285 194 l 563 194 q 586 192 572 194 q 618 139 618 181 l 618 56 q 614 31 618 42 q 563 0 604 0 z "},"ƒ":{"ha":638,"x_min":-3,"x_max":611,"o":"m 388 -8 q 300 -235 381 -154 q 86 -307 219 -317 l 46 -304 q 3 -288 15 -301 q -3 -242 -8 -275 l 15 -149 q 60 -117 21 -115 l 100 -119 q 173 -90 157 -124 q 193 25 189 -57 l 208 363 l 76 363 q 34 373 47 363 q 21 411 21 383 l 21 508 q 34 547 21 536 q 76 557 47 557 l 217 557 l 221 647 q 308 874 228 793 q 522 946 389 956 l 563 943 q 605 927 593 940 q 611 881 617 914 l 593 788 q 549 756 588 754 l 508 758 q 435 729 451 763 q 415 614 419 696 l 413 557 l 524 557 q 566 547 553 557 q 579 508 579 536 l 579 411 q 566 373 579 383 q 524 363 553 363 l 404 363 l 388 -8 z "},"Ș":{"ha":703,"x_min":26,"x_max":675,"o":"m 474 243 q 443 305 474 275 q 367 358 413 335 q 267 412 321 381 q 168 476 214 443 q 92 563 122 510 q 61 681 61 617 q 140 874 61 801 q 356 947 218 947 q 483 928 415 947 q 596 881 550 910 q 624 851 619 865 q 618 813 628 836 l 579 728 q 518 708 561 690 q 356 753 418 753 q 263 694 263 753 q 293 635 263 664 q 369 583 324 607 q 469 528 415 560 q 568 464 522 497 q 644 378 614 431 q 675 264 675 325 q 592 58 675 132 q 364 -17 510 -17 q 200 8 285 -17 q 56 76 115 33 q 27 106 32 94 q 33 144 22 118 l 74 228 q 97 255 85 250 q 135 247 110 260 q 372 178 261 178 q 474 243 474 178 m 413 -303 q 379 -347 394 -335 q 336 -358 364 -358 l 264 -358 q 224 -346 233 -358 q 222 -303 214 -333 l 263 -156 q 286 -119 271 -128 q 339 -110 301 -110 l 458 -110 q 488 -165 518 -110 l 413 -303 z "},"ș":{"ha":594,"x_min":32,"x_max":569,"o":"m 43 488 q 113 649 43 586 q 304 711 183 711 q 533 647 447 711 q 539 589 557 629 l 510 517 q 458 492 493 478 q 285 535 350 535 q 231 497 231 535 q 256 460 231 475 q 318 439 281 446 q 400 419 356 432 q 482 388 444 406 q 544 328 519 369 q 569 228 569 288 q 489 43 569 103 q 297 -17 408 -17 q 46 58 139 -17 q 33 78 36 67 q 33 95 31 89 q 40 117 35 101 l 68 194 q 90 220 75 213 q 119 219 104 228 q 308 167 217 167 q 382 204 382 167 q 357 242 382 226 q 294 264 332 257 q 213 286 257 271 q 131 321 168 301 q 68 383 93 340 q 43 488 43 426 m 331 -303 q 297 -347 313 -335 q 254 -358 282 -358 l 182 -358 q 142 -346 151 -358 q 140 -303 132 -333 l 181 -156 q 204 -119 189 -128 q 257 -110 219 -110 l 376 -110 q 406 -165 436 -110 l 331 -303 z "},"Ț":{"ha":839,"x_min":19,"x_max":819,"o":"m 521 56 q 465 0 521 0 l 375 0 q 319 56 319 0 l 319 722 l 74 722 q 19 776 19 722 l 19 875 q 75 931 19 931 l 764 931 q 819 875 819 931 l 819 776 q 765 722 819 722 l 521 722 l 521 56 m 453 -303 q 419 -347 435 -335 q 376 -358 404 -358 l 304 -358 q 264 -346 274 -358 q 263 -303 254 -333 l 303 -156 q 326 -119 311 -128 q 379 -110 342 -110 l 499 -110 q 528 -165 558 -110 l 453 -303 z "},"ț":{"ha":642,"x_min":15,"x_max":618,"o":"m 613 44 q 374 -31 514 -31 q 197 41 258 -31 q 135 251 135 113 l 135 432 l 54 436 q 15 479 15 438 l 15 590 q 28 625 15 611 q 63 638 42 639 l 135 633 l 135 792 q 176 833 135 833 l 288 833 q 329 792 329 833 l 329 622 l 529 610 q 568 567 568 608 l 568 456 q 555 421 568 435 q 521 408 542 407 l 329 419 l 329 286 q 424 168 329 168 q 531 208 467 168 q 582 183 563 228 l 618 103 q 613 44 638 63 m 394 -303 q 361 -347 376 -335 q 318 -358 346 -358 l 246 -358 q 206 -346 215 -358 q 204 -303 196 -333 l 244 -156 q 268 -119 253 -128 q 321 -110 283 -110 l 440 -110 q 469 -165 500 -110 l 394 -303 z "},"ȷ":{"ha":313,"x_min":-168,"x_max":254,"o":"m -25 -308 q -129 -293 -74 -308 q -167 -272 -158 -286 q -167 -233 -176 -258 l -128 -131 q -83 -99 -115 -93 q -24 -107 -39 -107 q 40 -78 19 -107 q 60 29 60 -49 l 60 653 q 101 694 60 694 l 213 694 q 254 653 254 694 l 254 -4 q 185 -228 254 -149 q -25 -308 117 -308 z "},"ˆ":{"ha":694,"x_min":104,"x_max":590,"o":"m 411 1038 q 488 992 458 1038 l 582 844 q 590 806 597 822 q 554 789 582 789 l 489 789 q 421 821 447 789 l 349 914 l 275 821 q 207 789 249 789 l 140 789 q 105 806 113 789 q 113 844 97 822 l 207 992 q 283 1038 236 1038 l 411 1038 z "},"ˇ":{"ha":694,"x_min":104,"x_max":590,"o":"m 283 789 q 207 835 236 789 l 113 982 q 105 1022 97 1006 q 140 1038 113 1038 l 206 1038 q 274 1006 247 1038 l 346 913 l 419 1006 q 488 1038 446 1038 l 554 1038 q 590 1022 582 1038 q 582 982 597 1006 l 488 835 q 411 789 458 789 l 283 789 z "},"˘":{"ha":694,"x_min":118,"x_max":576,"o":"m 264 990 q 347 921 274 921 q 431 990 421 921 q 492 1038 438 1038 l 508 1038 q 576 968 576 1038 q 516 838 576 886 q 347 789 456 789 q 178 838 239 789 q 118 968 118 886 q 186 1038 118 1038 l 203 1038 q 264 990 257 1038 z "},"˙":{"ha":694,"x_min":217,"x_max":478,"o":"m 439 821 q 419 801 439 821 q 347 782 400 782 q 256 821 294 782 q 217 914 217 860 q 256 1006 217 967 q 347 1044 294 1044 q 439 1006 400 1044 q 478 914 478 967 q 439 821 478 860 z "},"˚":{"ha":694,"x_min":154,"x_max":540,"o":"m 486 813 q 459 790 486 813 q 347 767 432 767 q 208 813 263 767 q 154 936 154 858 q 208 1059 154 1013 q 347 1106 263 1106 q 486 1059 432 1106 q 540 936 540 1013 q 486 813 540 858 m 301 896 q 310 889 301 896 q 347 882 319 882 q 394 896 375 882 q 413 936 413 910 q 394 975 413 961 q 346 989 375 989 q 301 974 319 989 q 282 936 282 960 q 301 896 282 910 z "},"˛":{"ha":694,"x_min":228,"x_max":551,"o":"m 371 -87 q 389 -124 371 -111 q 429 -137 407 -137 q 500 -118 464 -137 q 518 -118 508 -114 q 531 -133 528 -122 l 551 -215 q 549 -250 560 -242 q 392 -292 490 -292 q 278 -256 328 -292 q 228 -144 228 -219 q 301 -4 228 -58 q 469 50 374 50 l 490 0 q 402 -25 433 0 q 371 -87 371 -50 z "},"˜":{"ha":694,"x_min":131,"x_max":564,"o":"m 428 789 q 352 801 401 789 q 276 814 303 814 q 185 794 238 814 q 131 828 131 774 l 131 896 q 172 956 131 940 q 267 974 221 974 q 346 961 297 974 q 418 949 394 949 q 510 968 457 949 q 564 935 564 989 l 564 867 q 522 807 564 822 q 428 789 474 789 z "},"˝":{"ha":694,"x_min":96,"x_max":608,"o":"m 272 844 q 189 789 246 789 l 138 789 q 97 801 107 789 q 96 844 88 814 l 135 992 q 156 1028 142 1019 q 204 1038 171 1038 l 310 1038 q 347 1026 340 1038 q 339 982 354 1014 l 272 844 m 533 844 q 450 789 507 789 l 399 789 q 358 801 368 789 q 357 844 349 814 l 396 992 q 417 1028 403 1019 q 464 1038 432 1038 l 571 1038 q 608 1026 601 1038 q 600 982 615 1014 l 533 844 z "},"̦":{"ha":694,"x_min":218,"x_max":483,"o":"m 408 -303 q 375 -347 390 -335 q 332 -358 360 -358 l 260 -358 q 219 -346 229 -358 q 218 -303 210 -333 l 258 -156 q 282 -119 267 -128 q 335 -110 297 -110 l 454 -110 q 483 -165 514 -110 l 408 -303 z "},"Δ":{"ha":933,"x_min":19,"x_max":907,"o":"m 868 0 l 65 0 q 19 22 28 0 q 26 81 11 43 l 288 875 q 312 920 299 910 q 354 931 325 931 l 460 931 q 497 922 486 931 q 526 875 508 913 l 907 81 q 868 0 944 0 m 647 174 l 424 629 l 268 174 l 647 174 z "},"Ω":{"ha":1000,"x_min":39,"x_max":961,"o":"m 167 838 q 231 899 167 838 q 500 961 294 961 q 833 838 706 961 q 961 525 961 714 q 919 343 961 425 q 807 218 878 261 q 797 202 794 210 q 813 194 799 194 l 919 194 q 961 153 961 194 l 961 42 q 919 0 961 0 l 642 0 q 564 75 564 0 l 564 168 q 603 222 564 196 q 717 346 674 269 q 760 497 760 422 q 688 682 760 611 q 500 753 617 753 q 312 682 383 753 q 240 497 240 611 q 283 346 240 422 q 397 222 326 269 q 436 168 436 196 l 436 75 q 358 0 436 0 l 81 0 q 39 42 39 0 l 39 153 q 81 194 39 194 l 188 194 q 203 202 201 194 q 193 218 206 210 q 81 343 122 261 q 39 525 39 425 q 167 838 39 714 z "},"μ":{"ha":763,"x_min":53,"x_max":700,"o":"m 247 -236 q 192 -292 247 -292 l 108 -292 q 53 -236 53 -292 l 53 639 q 108 694 53 694 l 192 694 q 247 639 247 694 l 247 335 q 354 185 247 185 q 465 231 425 185 q 506 369 506 276 l 506 694 q 561 750 506 750 l 644 750 q 700 694 700 750 l 700 56 q 644 0 700 0 l 561 0 q 506 56 506 0 l 506 104 q 408 15 468 46 q 288 -17 349 -17 q 247 -14 272 -17 l 247 -236 z "},"π":{"ha":981,"x_min":35,"x_max":942,"o":"m 358 28 q 303 -28 358 -28 l 219 -28 q 164 28 164 -28 l 164 493 l 89 493 q 35 547 35 493 l 35 639 q 90 694 35 694 l 843 694 q 899 639 899 694 l 899 547 q 844 493 899 493 l 769 493 l 769 265 q 779 202 769 219 q 811 185 789 185 q 857 189 832 185 q 901 157 889 194 l 940 54 q 941 15 950 29 q 903 -6 932 1 q 813 -17 861 -17 q 634 48 693 -17 q 575 232 575 113 l 575 493 l 358 493 l 358 28 z "},"Ẁ":{"ha":1313,"x_min":18,"x_max":1293,"o":"m 618 1039 q 535 1094 578 1039 l 426 1232 q 411 1272 408 1256 q 442 1288 414 1288 l 582 1288 q 658 1242 638 1288 l 725 1094 q 697 1039 749 1039 l 618 1039 m 554 56 q 531 10 546 21 q 488 0 517 0 l 403 0 q 363 10 375 0 q 336 56 350 19 l 25 849 q 18 904 10 886 q 64 929 26 922 l 139 943 q 194 940 176 950 q 226 888 211 929 l 426 335 l 536 783 q 559 828 544 818 q 603 839 574 839 l 688 839 q 730 828 717 839 q 754 783 743 818 l 907 317 l 1086 915 q 1117 969 1099 958 q 1174 971 1136 979 l 1249 954 q 1293 928 1286 946 q 1288 874 1300 911 l 1033 56 q 1009 10 1022 21 q 967 0 996 0 l 868 0 q 826 10 839 0 q 801 56 813 21 l 664 489 l 554 56 z "},"ẁ":{"ha":1043,"x_min":7,"x_max":1026,"o":"m 486 789 q 403 844 446 789 l 294 982 q 279 1022 276 1006 q 310 1038 282 1038 l 450 1038 q 526 992 506 1038 l 593 844 q 565 789 617 789 l 486 789 m 476 53 q 454 10 468 21 q 413 0 440 0 l 307 0 q 269 10 281 0 q 243 53 257 19 l 15 582 q 8 631 1 619 q 53 658 14 642 l 118 686 q 168 688 153 699 q 201 632 183 676 l 351 256 l 418 569 q 441 615 426 604 q 485 625 456 625 l 549 625 q 590 615 576 625 q 615 569 603 604 l 719 260 l 824 681 q 852 734 833 722 q 906 735 871 746 l 985 711 q 1026 685 1019 701 q 1022 635 1033 669 l 860 53 q 838 10 851 19 q 796 0 824 0 l 690 0 q 651 10 664 0 q 626 53 639 19 l 538 307 l 476 53 z "},"Ẃ":{"ha":1313,"x_min":18,"x_max":1293,"o":"m 750 1094 q 667 1039 707 1039 l 588 1039 q 560 1094 536 1039 l 626 1242 q 703 1288 647 1288 l 843 1288 q 874 1272 871 1288 q 858 1232 876 1256 l 750 1094 m 554 56 q 531 10 546 21 q 488 0 517 0 l 403 0 q 363 10 375 0 q 336 56 350 19 l 25 849 q 18 904 10 886 q 64 929 26 922 l 139 943 q 194 940 176 950 q 226 888 211 929 l 426 335 l 536 783 q 559 828 544 818 q 603 839 574 839 l 688 839 q 730 828 717 839 q 754 783 743 818 l 907 317 l 1086 915 q 1117 969 1099 958 q 1174 971 1136 979 l 1249 954 q 1293 928 1286 946 q 1288 874 1300 911 l 1033 56 q 1009 10 1022 21 q 967 0 996 0 l 868 0 q 826 10 839 0 q 801 56 813 21 l 664 489 l 554 56 z "},"ẃ":{"ha":1043,"x_min":7,"x_max":1026,"o":"m 632 844 q 549 789 589 789 l 469 789 q 442 844 418 789 l 508 992 q 585 1038 529 1038 l 725 1038 q 756 1022 753 1038 q 740 982 758 1006 l 632 844 m 476 53 q 454 10 468 21 q 413 0 440 0 l 307 0 q 269 10 281 0 q 243 53 257 19 l 15 582 q 8 631 1 619 q 53 658 14 642 l 118 686 q 168 688 153 699 q 201 632 183 676 l 351 256 l 418 569 q 441 615 426 604 q 485 625 456 625 l 549 625 q 590 615 576 625 q 615 569 603 604 l 719 260 l 824 681 q 852 734 833 722 q 906 735 871 746 l 985 711 q 1026 685 1019 701 q 1022 635 1033 669 l 860 53 q 838 10 851 19 q 796 0 824 0 l 690 0 q 651 10 664 0 q 626 53 639 19 l 538 307 l 476 53 z "},"Ẅ":{"ha":1313,"x_min":18,"x_max":1293,"o":"m 865 1084 q 849 1068 865 1084 q 789 1053 833 1053 q 713 1084 744 1053 q 682 1160 682 1115 q 713 1235 682 1203 q 789 1267 744 1267 q 865 1235 833 1267 q 896 1160 896 1203 q 865 1084 896 1115 m 573 1084 q 557 1068 573 1084 q 497 1053 542 1053 q 422 1084 453 1053 q 390 1160 390 1115 q 422 1235 390 1203 q 497 1267 453 1267 q 573 1235 542 1267 q 604 1160 604 1203 q 573 1084 604 1115 m 554 56 q 531 10 546 21 q 488 0 517 0 l 403 0 q 363 10 375 0 q 336 56 350 19 l 25 849 q 18 904 10 886 q 64 929 26 922 l 139 943 q 194 940 176 950 q 226 888 211 929 l 426 335 l 536 783 q 559 828 544 818 q 603 839 574 839 l 688 839 q 730 828 717 839 q 754 783 743 818 l 907 317 l 1086 915 q 1117 969 1099 958 q 1174 971 1136 979 l 1249 954 q 1293 928 1286 946 q 1288 874 1300 911 l 1033 56 q 1009 10 1022 21 q 967 0 996 0 l 868 0 q 826 10 839 0 q 801 56 813 21 l 664 489 l 554 56 z "},"ẅ":{"ha":1043,"x_min":7,"x_max":1026,"o":"m 747 834 q 731 818 747 834 q 671 803 715 803 q 595 834 626 803 q 564 910 564 865 q 596 985 564 953 q 671 1017 628 1017 q 746 985 714 1017 q 778 910 778 953 q 747 834 778 865 m 455 834 q 439 818 455 834 q 379 803 424 803 q 303 834 335 803 q 272 910 272 865 q 304 985 272 953 q 379 1017 336 1017 q 454 985 422 1017 q 486 910 486 953 q 455 834 486 865 m 476 53 q 454 10 468 21 q 413 0 440 0 l 307 0 q 269 10 281 0 q 243 53 257 19 l 15 582 q 8 631 1 619 q 53 658 14 642 l 118 686 q 168 688 153 699 q 201 632 183 676 l 351 256 l 418 569 q 441 615 426 604 q 485 625 456 625 l 549 625 q 590 615 576 625 q 615 569 603 604 l 719 260 l 824 681 q 852 734 833 722 q 906 735 871 746 l 985 711 q 1026 685 1019 701 q 1022 635 1033 669 l 860 53 q 838 10 851 19 q 796 0 824 0 l 690 0 q 651 10 664 0 q 626 53 639 19 l 538 307 l 476 53 z "},"Ỳ":{"ha":789,"x_min":15,"x_max":774,"o":"m 356 1039 q 272 1094 315 1039 l 164 1232 q 149 1272 146 1256 q 179 1288 151 1288 l 319 1288 q 396 1242 375 1288 l 463 1094 q 435 1039 486 1039 l 356 1039 m 513 56 q 457 0 513 0 l 367 0 q 317 25 329 0 q 311 56 311 36 l 311 322 l 25 849 q 15 903 6 886 q 64 929 25 921 l 132 943 q 193 931 175 953 q 219 888 201 918 l 385 594 l 403 563 l 564 915 q 588 956 578 946 q 651 971 606 981 l 726 954 q 774 928 765 946 q 765 874 782 911 l 513 304 l 513 56 z "},"ỳ":{"ha":763,"x_min":53,"x_max":700,"o":"m 356 789 q 272 844 315 789 l 164 982 q 149 1022 146 1006 q 179 1038 151 1038 l 319 1038 q 396 992 375 1038 l 463 844 q 435 789 486 789 l 356 789 m 375 -292 q 97 -212 196 -292 q 82 -185 82 -194 q 92 -154 82 -176 l 125 -71 q 147 -31 138 -39 q 176 -32 157 -22 q 372 -90 282 -90 q 506 32 506 -90 l 506 132 q 408 42 468 74 q 288 11 349 11 q 117 83 181 11 q 53 300 53 156 l 53 667 q 108 722 53 722 l 192 722 q 247 667 247 722 l 247 363 q 354 213 247 213 q 465 258 425 213 q 506 397 506 304 l 506 639 q 561 694 506 694 l 644 694 q 700 639 700 694 l 700 13 q 610 -217 700 -143 q 375 -292 521 -292 z "},"–":{"ha":736,"x_min":21,"x_max":715,"o":"m 660 467 q 715 411 715 467 l 715 342 q 660 286 715 286 l 76 286 q 21 342 21 286 l 21 411 q 76 467 21 467 l 660 467 z "},"—":{"ha":1431,"x_min":21,"x_max":1410,"o":"m 1354 467 q 1410 411 1410 467 l 1410 342 q 1354 286 1410 286 l 76 286 q 21 342 21 286 l 21 411 q 76 467 21 467 l 1354 467 z "},"‘":{"ha":294,"x_min":28,"x_max":275,"o":"m 28 700 q 84 883 28 818 q 240 947 140 947 q 275 914 275 947 l 275 882 q 240 842 275 846 q 178 821 196 836 q 156 776 160 806 l 154 768 q 237 736 207 768 q 267 656 267 704 q 233 574 267 608 q 151 540 199 540 q 63 581 97 540 q 28 700 28 622 z "},"’":{"ha":294,"x_min":19,"x_max":267,"o":"m 267 788 q 210 605 267 669 q 54 540 154 540 q 19 574 19 540 l 19 606 q 54 646 19 642 q 117 667 99 651 q 139 711 135 682 l 140 719 q 58 751 88 719 q 28 832 28 783 q 62 913 28 879 q 143 947 96 947 q 232 906 197 947 q 267 788 267 865 z "},"‚":{"ha":294,"x_min":19,"x_max":267,"o":"m 54 -196 q 19 -162 19 -196 l 19 -131 q 54 -90 19 -94 q 117 -69 99 -85 q 139 -25 135 -54 l 140 -17 q 58 15 88 -17 q 28 96 28 47 q 62 177 28 143 q 143 211 96 211 q 232 170 197 211 q 267 51 267 129 q 210 -131 267 -67 q 54 -196 154 -196 z "},"“":{"ha":586,"x_min":28,"x_max":567,"o":"m 319 700 q 376 883 319 818 q 532 947 432 947 q 567 914 567 947 l 567 882 q 532 842 567 846 q 469 821 488 836 q 447 776 451 806 l 446 768 q 528 736 499 768 q 558 656 558 704 q 524 574 558 608 q 443 540 490 540 q 354 581 389 540 q 319 700 319 622 m 28 686 q 84 869 28 804 q 240 933 140 933 q 275 900 275 933 l 275 868 q 240 828 275 832 q 178 807 196 822 q 156 763 160 792 l 154 754 q 237 722 207 754 q 267 642 267 690 q 233 560 267 594 q 151 526 199 526 q 63 567 97 526 q 28 686 28 608 z "},"”":{"ha":586,"x_min":19,"x_max":558,"o":"m 558 801 q 502 619 558 683 q 346 554 446 554 q 311 588 311 554 l 311 619 q 346 660 311 656 q 408 681 390 665 q 431 725 426 696 l 432 733 q 349 765 379 733 q 319 846 319 797 q 353 927 319 893 q 435 961 388 961 q 524 920 489 961 q 558 801 558 879 m 267 788 q 210 605 267 669 q 54 540 154 540 q 19 574 19 540 l 19 606 q 54 646 19 642 q 117 667 99 651 q 139 711 135 682 l 140 719 q 58 751 88 719 q 28 832 28 783 q 62 913 28 879 q 143 947 96 947 q 232 906 197 947 q 267 788 267 865 z "},"„":{"ha":592,"x_min":19,"x_max":564,"o":"m 564 65 q 508 -117 564 -53 q 351 -182 451 -182 q 317 -149 317 -182 l 317 -117 q 351 -76 317 -81 q 414 -56 396 -71 q 436 -11 432 -40 l 438 -3 q 355 29 385 -3 q 325 110 325 61 q 359 191 325 157 q 440 225 393 225 q 529 184 494 225 q 564 65 564 143 m 267 51 q 210 -131 267 -67 q 54 -196 154 -196 q 19 -162 19 -196 l 19 -131 q 54 -90 19 -94 q 117 -69 99 -85 q 139 -25 135 -54 l 140 -17 q 58 15 88 -17 q 28 96 28 47 q 62 177 28 143 q 143 211 96 211 q 232 170 197 211 q 267 51 267 129 z "},"†":{"ha":772,"x_min":35,"x_max":738,"o":"m 428 -139 l 344 -139 q 289 -83 289 -139 l 289 496 l 90 486 q 48 496 61 485 q 35 535 35 507 l 35 646 q 48 683 35 672 q 90 694 61 693 l 289 704 l 289 982 q 344 1038 289 1038 l 428 1038 q 483 982 483 1038 l 483 713 l 682 722 q 724 713 711 724 q 738 674 738 701 l 738 563 q 724 526 738 536 q 682 514 711 515 l 483 504 l 483 -83 q 428 -139 483 -139 z "},"‡":{"ha":772,"x_min":35,"x_max":738,"o":"m 428 -139 l 344 -139 q 289 -83 289 -139 l 289 149 l 90 149 q 48 159 61 149 q 35 197 35 169 l 35 308 q 48 347 35 336 q 90 357 61 357 l 289 357 l 289 524 l 90 514 q 48 524 61 513 q 35 563 35 535 l 35 674 q 48 710 35 700 q 90 722 61 721 l 289 732 l 289 982 q 344 1038 289 1038 l 428 1038 q 483 982 483 1038 l 483 740 l 682 750 q 724 740 711 751 q 738 701 738 729 l 738 590 q 724 553 738 564 q 682 542 711 543 l 483 532 l 483 357 l 682 357 q 724 347 711 357 q 738 308 738 336 l 738 197 q 724 159 738 169 q 682 149 711 149 l 483 149 l 483 -83 q 428 -139 483 -139 z "},"•":{"ha":550,"x_min":125,"x_max":425,"o":"m 275 401 q 169 446 213 401 q 125 551 125 490 q 169 658 125 614 q 275 701 213 701 q 381 658 336 701 q 425 551 425 614 q 381 446 425 490 q 275 401 336 401 z "},"…":{"ha":983,"x_min":26,"x_max":958,"o":"m 576 35 q 558 18 576 35 q 492 0 540 0 q 408 35 443 0 q 374 119 374 71 q 409 202 374 167 q 492 238 444 238 q 576 203 540 238 q 611 119 611 168 q 576 35 611 71 m 228 19 q 211 1 228 19 q 144 -17 193 -17 q 61 19 96 -17 q 26 103 26 54 q 62 185 26 150 q 144 221 97 221 q 228 186 193 221 q 264 103 264 151 q 228 19 264 54 m 923 5 q 905 -13 923 5 q 839 -31 888 -31 q 756 5 790 -31 q 721 89 721 40 q 756 172 721 136 q 839 207 792 207 q 923 172 888 207 q 958 89 958 138 q 923 5 958 40 z "},"‰":{"ha":1782,"x_min":56,"x_max":1726,"o":"m 475 -87 q 399 -108 447 -133 l 338 -76 q 317 0 288 -50 l 883 965 q 960 986 911 1011 l 1021 954 q 1042 878 1071 928 l 475 -87 m 526 480 q 490 441 526 480 q 328 403 453 403 q 129 480 203 403 q 56 676 56 557 q 129 872 56 796 q 328 949 203 949 q 526 872 453 949 q 600 676 600 796 q 526 480 600 557 m 328 561 q 410 589 379 561 q 442 676 442 617 q 410 763 442 735 q 328 790 378 790 q 247 763 278 790 q 215 676 215 735 q 247 590 215 618 q 328 561 278 561 m 1454 -17 q 1257 58 1332 -17 q 1061 -17 1185 -17 q 863 60 936 -17 q 789 257 789 138 q 863 453 789 376 q 1061 529 936 529 q 1258 454 1183 529 q 1454 529 1331 529 q 1653 453 1579 529 q 1726 257 1726 376 q 1653 60 1726 138 q 1454 -17 1579 -17 m 1061 142 q 1144 169 1113 142 q 1175 257 1175 197 q 1143 343 1175 315 q 1061 371 1111 371 q 980 343 1011 371 q 949 257 949 315 q 980 170 949 199 q 1061 142 1011 142 m 1454 142 q 1537 169 1506 142 q 1568 257 1568 197 q 1536 343 1568 315 q 1454 371 1504 371 q 1373 343 1404 371 q 1342 257 1342 315 q 1373 170 1342 199 q 1454 142 1404 142 z "},"‹":{"ha":479,"x_min":29,"x_max":460,"o":"m 53 440 l 342 679 q 407 675 378 710 l 460 614 q 451 556 485 583 l 204 349 l 401 183 q 410 125 433 154 l 357 64 q 326 44 340 44 q 292 60 313 43 l 53 256 q 33 278 38 269 q 29 308 29 288 l 29 388 q 33 418 29 408 q 53 440 38 428 z "},"›":{"ha":479,"x_min":19,"x_max":450,"o":"m 426 440 q 446 418 442 428 q 450 388 450 408 l 450 308 q 446 278 450 288 q 426 256 442 269 l 188 60 q 153 44 167 43 q 122 64 139 44 l 69 125 q 78 183 46 154 l 275 349 l 28 556 q 19 614 -6 583 l 72 675 q 138 679 101 710 l 426 440 z "},"⁄":{"ha":290,"x_min":-160,"x_max":449,"o":"m -42 13 q -118 -8 -72 -39 l -139 6 q -160 82 -186 38 l 331 908 q 407 929 360 958 l 428 917 q 449 840 478 888 l -42 13 z "},"⁰":{"ha":586,"x_min":57,"x_max":529,"o":"m 465 491 q 432 455 465 491 q 293 418 400 418 q 122 490 186 418 q 57 682 57 563 q 122 875 57 803 q 294 947 188 947 q 465 874 400 947 q 529 682 529 801 q 465 491 529 564 m 213 591 q 227 574 213 591 q 294 557 242 557 q 375 591 347 557 q 403 682 403 625 q 374 774 403 739 q 293 808 346 808 q 213 774 242 808 q 185 682 185 740 q 213 591 185 625 z "},"⁴":{"ha":510,"x_min":31,"x_max":468,"o":"m 390 463 q 360 432 390 432 l 300 432 q 269 463 269 432 l 269 517 l 60 517 q 31 546 31 517 l 31 586 q 46 629 31 606 l 242 918 q 268 931 249 931 l 360 931 q 390 900 390 931 l 390 649 l 438 649 q 468 618 468 649 l 468 546 q 439 517 468 517 l 390 517 l 390 463 m 186 649 l 269 649 l 269 776 l 186 649 z "},"€":{"ha":917,"x_min":31,"x_max":881,"o":"m 872 60 q 594 -17 743 -17 q 333 64 442 -17 q 182 288 224 144 l 86 288 q 44 298 57 288 q 31 336 31 308 l 31 378 q 44 416 31 406 q 86 426 57 426 l 158 426 q 157 465 157 439 l 157 496 l 86 496 q 44 506 57 496 q 31 544 31 517 l 31 586 q 44 624 31 614 q 86 635 57 635 l 179 635 q 331 864 221 781 q 597 947 440 947 q 872 871 744 947 q 881 819 896 856 l 839 717 q 779 696 824 676 q 597 739 690 739 q 401 635 465 739 l 565 635 q 608 624 594 635 q 621 586 621 614 l 621 544 q 608 506 621 517 q 565 496 594 496 l 360 496 q 358 465 358 486 q 360 426 358 439 l 565 426 q 608 416 594 426 q 621 378 621 406 l 621 336 q 608 298 621 308 q 565 288 594 288 l 406 288 q 597 192 468 192 q 779 235 690 192 q 839 214 824 254 l 881 111 q 872 60 896 75 z "},"₹":{"ha":742,"x_min":92,"x_max":738,"o":"m 515 -12 q 465 -11 482 -21 q 428 43 454 -3 l 282 294 q 189 289 243 289 l 126 289 q 92 324 92 289 l 92 449 q 126 483 92 483 l 194 483 q 379 544 336 483 l 147 544 q 126 546 133 544 q 92 593 92 551 l 92 635 q 94 654 92 643 q 147 683 101 683 l 379 683 q 194 750 333 750 l 126 750 q 92 785 92 750 l 92 896 q 126 931 92 931 l 682 931 q 703 929 696 931 q 735 901 729 925 q 738 882 738 890 l 738 840 q 735 821 738 832 q 703 793 729 797 q 682 792 696 792 l 550 792 q 593 683 583 743 l 682 683 q 703 682 696 683 q 738 635 738 676 l 738 593 q 735 574 738 585 q 682 544 728 544 l 594 544 q 468 351 574 417 l 615 82 q 628 44 628 58 q 599 8 626 19 q 576 1 589 3 l 515 -12 z "},"ℓ":{"ha":538,"x_min":60,"x_max":524,"o":"m 274 -21 q 117 38 175 -21 q 60 197 60 96 l 60 704 q 126 889 60 828 q 300 950 192 950 q 517 724 517 950 q 254 376 517 496 l 254 264 q 301 188 254 188 q 365 214 339 188 l 388 236 q 461 235 424 272 l 524 175 q 510 89 556 144 q 396 5 463 31 q 274 -21 329 -21 m 254 729 l 254 557 q 339 717 339 624 q 294 781 339 781 q 254 729 254 781 z "},"™":{"ha":1019,"x_min":19,"x_max":957,"o":"m 614 493 q 586 465 614 465 l 489 465 q 461 493 461 465 l 461 917 q 489 944 461 944 l 586 944 q 610 935 606 944 l 714 753 l 806 914 q 832 931 815 931 l 929 931 q 957 903 957 931 l 957 479 q 929 451 957 451 l 832 451 q 804 479 804 451 l 804 696 l 760 594 q 742 583 754 583 l 679 583 q 661 594 667 583 l 614 700 l 614 493 m 296 493 q 268 465 296 465 l 171 465 q 143 493 143 465 l 143 771 l 46 771 q 19 799 19 771 l 19 903 q 47 931 19 931 l 392 931 q 419 903 419 931 l 419 799 q 392 771 419 771 l 296 771 l 296 493 z "},"Ω":{"ha":1000,"x_min":39,"x_max":961,"o":"m 167 838 q 231 899 167 838 q 500 961 294 961 q 833 838 706 961 q 961 525 961 714 q 919 343 961 425 q 807 218 878 261 q 797 202 794 210 q 813 194 799 194 l 919 194 q 961 153 961 194 l 961 42 q 919 0 961 0 l 642 0 q 564 75 564 0 l 564 168 q 603 222 564 196 q 717 346 674 269 q 760 497 760 422 q 688 682 760 611 q 500 753 617 753 q 312 682 383 753 q 240 497 240 611 q 283 346 240 422 q 397 222 326 269 q 436 168 436 196 l 436 75 q 358 0 436 0 l 81 0 q 39 42 39 0 l 39 153 q 81 194 39 194 l 188 194 q 203 202 201 194 q 193 218 206 210 q 81 343 122 261 q 39 525 39 425 q 167 838 39 714 z "},"℮":{"ha":989,"x_min":69,"x_max":919,"o":"m 919 357 l 231 357 q 225 353 225 357 l 225 144 q 235 119 225 132 q 496 8 342 8 q 769 133 660 8 l 831 133 q 684 25 772 65 q 494 -15 596 -15 q 194 97 318 -15 q 69 367 69 208 q 194 639 69 526 q 494 751 318 751 q 795 639 671 751 q 919 367 919 526 l 919 357 m 764 383 l 764 593 q 753 619 764 608 q 496 728 647 728 q 236 615 342 728 q 225 589 225 607 l 225 383 q 231 378 225 378 l 760 378 q 764 383 764 378 z "},"∂":{"ha":756,"x_min":29,"x_max":733,"o":"m 379 -15 q 128 79 226 -15 q 29 318 29 174 q 117 553 29 463 q 354 644 204 644 q 475 628 413 644 q 279 890 404 778 q 279 957 238 928 l 338 997 q 376 1015 363 1014 q 415 997 390 1015 q 733 379 733 743 q 641 91 733 197 q 379 -15 549 -15 m 372 193 q 532 407 532 193 l 532 414 q 376 450 464 450 q 268 414 306 450 q 231 317 231 378 q 271 226 231 260 q 372 193 311 193 z "},"∆":{"ha":933,"x_min":19,"x_max":907,"o":"m 868 0 l 65 0 q 19 22 28 0 q 26 81 11 43 l 288 875 q 312 920 299 910 q 354 931 325 931 l 460 931 q 497 922 486 931 q 526 875 508 913 l 907 81 q 868 0 944 0 m 647 174 l 424 629 l 268 174 l 647 174 z "},"∏":{"ha":922,"x_min":0,"x_max":922,"o":"m 811 28 q 756 -28 811 -28 l 665 -28 q 610 28 610 -28 l 610 729 l 313 729 l 313 56 q 257 0 313 0 l 167 0 q 111 56 111 0 l 111 729 l 54 729 q 0 783 0 729 l 0 875 q 56 931 0 931 l 867 931 q 922 875 922 931 l 922 783 q 868 729 922 729 l 811 729 l 811 28 z "},"∑":{"ha":801,"x_min":69,"x_max":758,"o":"m 758 -85 q 704 -139 758 -139 l 124 -139 q 69 -85 69 -139 l 69 -21 q 90 31 69 10 l 394 396 l 89 760 q 69 811 69 781 l 69 875 q 125 931 69 931 l 703 931 q 758 875 758 931 l 758 811 q 704 757 758 757 l 353 757 l 617 440 q 636 393 636 417 q 618 350 636 369 l 353 35 l 703 35 q 758 -21 758 35 l 758 -85 z "},"−":{"ha":694,"x_min":74,"x_max":621,"o":"m 565 558 q 621 503 621 558 l 621 433 q 565 378 621 378 l 129 378 q 74 433 74 378 l 74 503 q 129 558 74 558 l 565 558 z "},"∕":{"ha":290,"x_min":-160,"x_max":449,"o":"m -42 13 q -118 -8 -72 -39 l -139 6 q -160 82 -186 38 l 331 908 q 407 929 360 958 l 428 917 q 449 840 478 888 l -42 13 z "},"√":{"ha":882,"x_min":35,"x_max":865,"o":"m 550 0 l 444 0 q 396 19 411 0 q 378 56 388 32 l 186 493 l 89 493 q 58 499 69 493 q 35 547 35 511 l 35 639 q 90 694 35 694 l 260 694 q 300 682 286 694 l 303 679 q 331 632 315 668 l 481 303 l 669 915 q 701 969 683 957 q 757 971 721 982 l 818 954 q 855 938 844 947 q 865 914 865 929 q 857 874 865 899 l 617 56 q 601 19 611 35 q 550 0 588 0 z "},"∞":{"ha":949,"x_min":49,"x_max":900,"o":"m 671 211 q 475 301 543 211 q 278 211 406 211 q 110 283 172 211 q 49 465 49 354 q 110 648 49 576 q 278 719 172 719 q 472 629 407 719 q 671 719 544 719 q 838 648 776 719 q 900 465 900 576 q 838 283 900 354 q 671 211 776 211 m 299 372 q 404 465 404 372 q 299 558 404 558 q 197 465 197 558 q 299 372 197 372 m 650 372 q 751 465 751 372 q 650 558 751 558 q 544 465 544 558 q 650 372 544 372 z "},"∫":{"ha":632,"x_min":-3,"x_max":611,"o":"m 388 -8 q 300 -235 381 -154 q 86 -307 219 -317 l 46 -304 q 3 -288 15 -301 q -3 -242 -8 -275 l 15 -149 q 60 -117 21 -115 l 100 -119 q 173 -90 157 -124 q 193 25 189 -57 l 221 717 q 308 944 228 863 q 522 1015 389 1025 l 563 1013 q 605 997 593 1010 q 611 950 617 983 l 593 857 q 549 825 588 824 l 508 828 q 435 799 451 832 q 415 683 419 765 l 388 -8 z "},"≈":{"ha":694,"x_min":74,"x_max":621,"o":"m 456 501 q 351 514 419 501 q 249 526 283 526 q 128 507 197 526 q 74 540 74 492 l 74 629 q 115 689 74 676 q 239 707 175 707 q 347 694 281 707 q 446 682 413 682 q 567 701 497 682 q 621 668 621 717 l 621 579 q 579 519 621 532 q 456 501 519 501 m 456 224 q 351 236 419 224 q 249 249 283 249 q 128 229 197 249 q 74 263 74 214 l 74 351 q 115 411 74 399 q 239 429 175 429 q 347 417 281 429 q 446 404 413 404 q 567 424 497 404 q 621 390 621 439 l 621 301 q 579 242 621 254 q 456 224 519 224 z "},"≠":{"ha":694,"x_min":60,"x_max":635,"o":"m 235 99 q 158 78 210 50 l 128 94 q 107 171 79 121 l 142 236 l 115 236 q 60 292 60 236 l 60 361 q 115 417 60 417 l 238 417 l 290 514 l 115 514 q 60 569 60 514 l 60 639 q 115 694 60 694 l 386 694 l 460 833 q 535 853 485 879 l 565 836 q 588 760 615 810 l 553 694 l 579 694 q 635 639 635 694 l 635 569 q 579 514 635 514 l 457 514 l 404 417 l 579 417 q 635 361 635 417 l 635 292 q 579 236 635 236 l 308 236 l 235 99 z "},"≤":{"ha":694,"x_min":88,"x_max":621,"o":"m 565 128 l 143 128 q 113 133 124 128 q 88 183 88 146 l 88 253 q 143 308 88 308 l 393 308 l 143 432 q 94 469 106 451 l 94 471 l 94 472 q 93 475 93 474 q 92 478 92 475 q 90 481 90 479 l 89 482 q 89 485 89 483 l 89 489 q 88 493 89 489 l 88 585 q 97 610 88 599 q 113 625 106 621 q 143 640 121 629 l 169 653 l 565 849 q 606 849 590 861 q 621 807 621 836 l 621 724 q 565 654 621 679 l 308 536 l 565 418 q 581 410 571 415 q 594 404 590 406 q 621 363 621 389 l 621 183 q 615 153 621 164 q 565 128 603 128 z "},"≥":{"ha":694,"x_min":74,"x_max":607,"o":"m 129 128 q 79 153 92 128 q 74 183 74 164 l 74 363 q 100 404 74 389 q 114 410 104 406 q 129 418 124 415 l 386 536 l 129 654 q 74 724 74 679 l 74 807 q 89 849 74 836 q 129 849 104 861 l 525 653 l 551 640 q 581 625 574 629 q 598 610 589 621 q 607 585 607 599 l 607 493 q 606 492 607 494 q 606 489 606 490 l 606 485 q 606 483 606 483 l 604 481 q 603 478 604 479 q 601 475 603 475 q 600 472 601 474 l 600 471 l 600 469 q 551 432 589 451 l 301 308 l 551 308 q 607 253 607 308 l 607 183 q 582 133 607 146 q 551 128 571 128 l 129 128 z "},"◊":{"ha":694,"x_min":40,"x_max":663,"o":"m 303 0 q 243 42 263 0 l 40 454 q 40 482 33 468 l 243 889 q 303 931 263 931 l 400 931 q 460 889 440 931 l 663 482 q 663 454 669 468 l 460 42 q 400 0 440 0 l 303 0 m 231 468 l 351 207 l 474 468 l 351 724 l 231 468 z "},"ﬁ":{"ha":886,"x_min":19,"x_max":847,"o":"m 310 0 l 199 0 q 161 18 171 0 q 157 42 157 28 l 157 469 l 58 464 q 28 474 36 463 q 19 507 19 485 l 19 618 q 24 636 19 628 q 67 665 32 663 l 157 671 l 157 717 q 160 769 157 736 q 256 957 175 890 q 458 1015 338 1024 l 479 1014 l 499 1013 q 519 1010 508 1013 q 549 974 547 1001 q 547 950 550 968 l 529 857 q 485 825 524 824 l 444 828 q 374 803 393 832 q 351 713 354 775 l 351 683 l 510 693 q 540 683 532 694 q 549 650 549 672 l 549 539 q 535 506 549 519 q 501 492 522 493 l 351 482 l 351 42 q 310 0 351 0 m 813 798 q 795 780 813 798 q 729 763 778 763 q 646 798 681 763 q 611 882 611 833 q 646 965 611 931 q 729 1000 681 1000 q 813 965 778 1000 q 847 882 847 931 q 813 798 847 833 m 826 56 q 771 0 826 0 l 688 0 q 632 56 632 0 l 632 611 q 688 667 632 667 l 771 667 q 826 611 826 667 l 826 56 z "},"ﬂ":{"ha":894,"x_min":19,"x_max":832,"o":"m 310 0 l 199 0 q 161 18 171 0 q 157 42 157 28 l 157 469 l 58 464 q 28 474 36 463 q 19 507 19 485 l 19 618 q 24 636 19 628 q 67 665 32 663 l 157 671 l 157 717 q 160 769 157 736 q 256 957 175 890 q 458 1015 338 1024 l 479 1014 l 499 1013 q 519 1010 508 1013 q 549 974 547 1001 q 547 950 550 968 l 529 857 q 485 825 524 824 l 444 828 q 374 803 393 832 q 351 713 354 775 l 351 683 l 510 693 q 540 683 532 694 q 549 650 549 672 l 549 539 q 535 506 549 519 q 501 492 522 493 l 351 482 l 351 42 q 310 0 351 0 m 832 56 q 776 0 832 0 l 686 0 q 631 56 631 0 l 631 944 q 686 1000 631 1000 l 776 1000 q 832 944 832 1000 l 832 56 z "}}}
